<?xml version="1.0" encoding="utf-8"?>
<!-- Generator: Adobe Illustrator 26.0.1, SVG Export Plug-In . SVG Version: 6.00 Build 0)  -->
<svg version="1.1" id="Layer_1" xmlns="http://www.w3.org/2000/svg" xmlns:xlink="http://www.w3.org/1999/xlink" x="0px" y="0px"
	 viewBox="0 0 87.1 89.5" style="enable-background:new 0 0 87.1 89.5;" xml:space="preserve">
<style type="text/css">
	.st0{fill:#F6921E;}
	.st1{fill:#254180;}
</style>
<g id="Group_745">
	<g id="Group_744">
		<g id="Line_321">
			<path class="st0" d="M55,45.7c-0.3,0-0.5-0.1-0.7-0.3L33.6,24.8c-0.4-0.4-0.4-1,0-1.4c0.4-0.4,1-0.4,1.4,0L55.7,44
				c0.4,0.4,0.4,1,0,1.4C55.5,45.6,55.3,45.7,55,45.7z"/>
		</g>
		<g id="Line_322">
			<path class="st0" d="M34.3,66.4c-0.3,0-0.5-0.1-0.7-0.3c-0.4-0.4-0.4-1,0-1.4L54.3,44c0.4-0.4,1-0.4,1.4,0s0.4,1,0,1.4L35,66.1
				C34.8,66.3,34.6,66.4,34.3,66.4z"/>
		</g>
	</g>
	<g id="Line_323">
		<path class="st0" d="M55,45.7H1.5c-0.5,0-1-0.4-1-1c0-0.5,0.4-1,1-1H55c0.5,0,1,0.4,1,1C56,45.3,55.6,45.7,55,45.7z"/>
	</g>
</g>
<g id="Path_3885">
	<path class="st1" d="M42.3,89.2c-6.3,0-12.7-1.4-18.6-4.1C13.1,80.2,4.6,71.1,0.6,60c-0.2-0.5,0.1-1.1,0.6-1.3
		c0.5-0.2,1.1,0.1,1.3,0.6c3.9,10.6,11.9,19.3,22.1,24c10.3,4.7,21.8,5.2,32.5,1.3C67.7,80.7,76.2,72.8,81,62.5
		c4.7-10.3,5.2-21.8,1.3-32.5C78.3,19.4,70.5,10.9,60.2,6.2C38.9-3.6,13.6,5.7,3.8,27c-0.2,0.5-0.8,0.7-1.3,0.5
		C2,27.2,1.8,26.6,2,26.1C12.3,3.9,38.7-5.9,61,4.4c10.8,5,19,13.8,23.1,25c4.1,11.1,3.6,23.2-1.3,34c-5,10.8-13.8,19-25,23.1
		C52.8,88.3,47.5,89.2,42.3,89.2z"/>
</g>
</svg>
