<?xml version="1.0" encoding="utf-8"?>
<!-- Generator: Adobe Illustrator 22.0.1, SVG Export Plug-In . SVG Version: 6.00 Build 0)  -->
<svg version="1.1" id="Layer_1" xmlns="http://www.w3.org/2000/svg" xmlns:xlink="http://www.w3.org/1999/xlink" x="0px" y="0px"
	 viewBox="0 0 458.3 196" style="enable-background:new 0 0 458.3 196;" xml:space="preserve">
<style type="text/css">
	.st0{fill:#922B8C;}
</style>
<path class="st0" d="M271.1,130.8c0.3-0.3,0.4-0.5,0.5-0.5c0.1,0,0.3,0.1,0.5,0.4c1,1,1.8,1.6,2.5,2c0,0,0.2-0.1,0.5-0.4
	c1-1.1,1.5-1.7,1.7-1.8c0.1,0,0.2,0.1,0.4,0.3c0.8,0.8,1.7,1.4,2.4,2c0,0,0.1,0.1,0,0.2c0,0.1-0.2,0.4-0.6,0.9l-0.3,0.3
	c-0.8,1-1.3,1.5-1.4,1.6c-0.1,0-0.2,0.1-0.3,0.1c-0.4,0-0.9-0.3-1.7-1c-0.5-0.5-0.9-0.9-1-1.1c-0.1-0.1-0.1-0.2-0.2-0.2
	c0,0-0.4,0.3-1,1c-0.6,0.7-0.9,1-1,1.1c-0.2,0-0.5,0-0.8-0.2c-0.6-0.3-1.1-0.8-1.7-1.3c-0.4-0.5-0.6-0.7-0.6-0.8
	C269.1,133.2,269.8,132.4,271.1,130.8"/>
<path class="st0" d="M285.3,111.8c0.1-0.1,0.2-0.1,0.2-0.1c0.2,0.1,0.3,0.2,0.4,0.5c0.2,0.6,0.8,1.5,1.7,2.8
	c0.3,0.4,0.4,0.7,0.4,0.8c-0.1,0.5-0.4,1-0.9,1.4c-0.6,0.6-1.1,1-1.4,1.2c-0.2,0.1-0.3,0.1-0.4,0.1c-0.2,0-0.6-0.2-1.3-0.6
	c-0.9-0.4-1.7-0.5-2.5-0.2c-0.8,0.5-1.5,1.1-2.1,2.1c-0.8,1-1.5,1.7-2,2c-1.5,0.9-2.7,0.7-3.6-0.5c-0.2-0.2-0.3-0.2-0.4,0
	c-0.5,0.7-1.1,1.4-1.8,1.9c-0.5,0.5-1.2,0.7-2.2,0.7c-0.5,0-0.8,0.1-0.8,0.1c-0.1,0.1-0.1,0.3-0.1,0.8c0,0.9-0.1,1.9-0.3,3.1
	c-0.6,3.8-2,7.2-4.2,10.1c-1.4,1.8-2.8,3.1-4.4,3.9c-1.1,0.5-2.3,0.8-3.6,0.9c-1.9,0.1-3.3-0.4-4.2-1.5c-1.4-1.3-2-3.3-2-5.9
	c0-0.8,0.1-1.6,0.2-2.4c0.3-1.9,0.9-4,1.8-6.5c0.2-0.5,0.3-0.8,0.4-0.9c0.1-0.1,0.3-0.1,0.4,0c0.1,0.2,0,0.6-0.1,1.1
	c-0.5,1.8-0.9,3.3-1.1,4.5c-0.2,1.7-0.1,3.3,0.6,4.6c0.5,1.1,1.6,1.9,3.1,2.2c2.1,0.3,4,0.1,5.7-0.8c1.4-0.7,2.7-1.7,3.8-3.2
	c2.1-2.6,2.9-6.2,2.5-10.8c-0.1-1.1,0.1-2.1,0.4-2.9c0.2-0.3,0.4-0.2,0.4,0.2l0.1,0.5c1.1,0.4,2.2,0.3,3.3-0.2
	c0.6-0.3,1-0.6,1.3-0.9c0.3-0.3,0.4-0.9,0.5-1.8c0.2-1.2,0.6-2.6,1.3-4c0.2-0.5,0.4-0.7,0.5-0.8c0.1,0,0.3-0.1,0.5-0.1l0,0.6
	c-0.1,1.5,0.2,2.5,0.7,3.1c0.5,0.6,1.3,0.9,2.3,0.9c0.2,0,0.4-0.1,0.6-0.2c0.4-0.3,1-0.8,1.9-1.6c0.9-0.9,1.7-1.5,2.6-1.9
	c0.2-0.1,0.3-0.3,0.4-0.6C284.4,112.9,284.8,112.2,285.3,111.8"/>
<path class="st0" d="M316.7,127.3c0,0.3-0.1,0.6-0.3,0.9c-0.2,0.3-0.3,0.6-0.5,0.9c-0.8,1-1.4,1.5-1.9,1.5c-0.5-0.2-1.2-0.4-2.2-0.6
	c-0.2,0-0.3,0.1-0.4,0.3c-0.1,0.2-0.3,0.3-0.4,0.5c-0.6,1-1.2,1.9-1.8,2.9c-0.7,1.1-1.6,1.8-2.5,2.3c-2.4,1.2-6,2-10.7,2.4
	c-1.1,0.1-2.2,0.1-3.2,0.1c-2,0-3.8-0.2-5.4-0.6c-1.4-0.3-2.2-1-2.4-2.1c-0.1-0.5-0.1-1.1-0.1-1.8c0-1.1,0.2-2.5,0.5-4.2
	c0-0.2,0.1-0.3,0.3-0.3c0.2,0,0.3,0.1,0.5,0.3v1.7c0,0.7,0.3,1.2,0.8,1.5c2.1,0.8,4.8,1.2,8.2,1.2c4.8,0,8.7-0.4,11.6-1.3
	c1.8-1,3-1.9,3.5-2.9c0.3-0.4,0.6-0.8,0.8-1.2c0.4-0.5,0.8-0.7,1.2-0.8c0.2,0,0.6,0.1,1.2,0.3c0.6,0.2,1,0.3,1.2,0.3
	c0.5,0,0.9-0.3,1.1-0.9c0.1-0.2,0.3-0.4,0.6-0.6C316.6,127,316.7,127.1,316.7,127.3 M298.8,125.8h0.1c0.7-0.6,1.3-0.9,1.9-0.9
	c0.5,0,0.9,0.2,1.2,0.7c0,0.2,0.1,0.3,0.1,0.5c0,0.5-0.2,1.1-0.7,1.6c-0.5,0.4-0.9,0.9-1.4,1.3c-0.5,0.2-1.1,0.4-1.8,0.4
	c-1.1,0.1-1.7,0.1-1.8,0.1c-0.1,0-0.3,0-0.5,0.1c-0.2,0-0.4,0-0.5,0c-0.1,0-0.3-0.1-0.4-0.2c0.1-0.3,0.4-0.6,0.9-0.7
	c1.3-1.4,1.9-2.5,1.9-3.5c0-0.2,0.1-0.8,0.1-1.8c0-0.8,0.1-1.4,0.3-1.8c0.2-0.3,0.6-0.8,1-1.4c0.1,0,0.2,0,0.2,0.1
	c-0.1,0.3-0.2,1.2-0.2,2.7C299.3,124.3,299.1,125.1,298.8,125.8 M300.5,126.5c-0.2-0.1-0.3-0.1-0.5-0.1c-0.5,0-1,0.3-1.5,0.8
	c-0.3,0.5-0.7,0.9-1.1,1.4c1-0.1,1.5-0.2,1.7-0.3c0.6-0.2,1.1-0.5,1.4-1C300.7,126.9,300.7,126.6,300.5,126.5 M312,121l0.1-0.2
	l2.9-2.5l0.2,0.1c0.9,1.1,1.7,2.1,2.4,2.7v0.3c-0.6,0.6-1.6,1.4-2.8,2.3c-0.1,0-0.1,0-0.2,0c-0.2,0-0.5-0.2-1-0.7
	C313.2,122.6,312.6,121.9,312,121"/>
<path class="st0" d="M326,131.4c-0.2,1.2-0.8,2.8-1.9,4.9c-0.3,0.5-0.8,0.9-1.6,1.1c-0.6,0.2-1.3,0.3-1.9,0.5
	c-0.5,0.1-1.2,0.4-2.2,0.6c-0.2,0-0.4-0.1-0.4-0.2c0-0.2,0.2-0.4,0.5-0.6c1-0.6,2-1.2,3-1.8c1.1-0.7,2-1.4,2.8-2.1
	c0.2-0.3,0.3-0.7,0.2-1.2c-0.1-0.4-0.3-0.6-0.5-0.8c-0.3,0-0.5,0.1-0.7,0.1c-0.9,0-1.6-0.3-2-0.9c-0.2-0.3-0.3-0.6-0.3-0.9
	c0-0.4,0.1-0.8,0.3-1.3c0.2-0.4,0.4-0.8,0.6-1.2c0.2-0.4,0.3-0.9,0.5-1.4c0.3-0.5,0.6-0.9,1.1-1.1c0.8-0.2,1.5,0.2,2,1
	c0.5,0.9,0.8,2,0.8,3.3C326.3,130,326.2,130.7,326,131.4 M327.3,118.2L327.3,118.2c-0.2,0.3-0.5,0.7-0.9,1.3c-0.2,0-0.4,0-0.6,0
	c-1.1,0-1.9,0.4-2.6,1.3c-0.6,1-1,1.7-1.2,1.9c-0.5,0.7-1.1,1.2-1.6,1.4c-0.4,0.1-0.7,0.2-1,0.2c-0.5,0-0.8-0.2-1.1-0.5l0.1-0.2
	c0.4-0.7,1-1.6,1.8-2.6c0.3,0.2,0.6,0.2,0.8,0.2c0.4,0,0.8-0.2,1.1-0.5c0.5-0.6,1.3-1.6,2.4-2.8c0.9-1,1.9-1.6,3-1.5
	c0.2,0,0.5,0.1,0.7,0.3l0,0.3C327.9,117.1,327.6,117.5,327.3,118.2"/>
<path class="st0" d="M332.1,125.8L332.1,125.8c0.6-0.1,1.2-0.2,1.7-0.2c1.4,0,2.4,0.4,3.2,1.2c0.6,0.6,0.9,1.5,0.9,2.6
	c0,0.6-0.1,1.3-0.3,2.3c-0.2,0.4-0.5,1.3-1,2.8c-0.3,1.1-0.7,2-1.1,2.6c-0.6,1-1.6,1.4-2.8,1.4c-0.2,0-0.4,0-0.6,0
	c-1.6-0.4-2.6-2-2.8-5c-0.1-0.9-0.1-1.9-0.1-3c0-1.1,0-2.6,0.1-4.6c0.1-2.1,0.1-3.7,0.1-4.6c-0.1-0.7,0.1-1.6,0.5-2.5
	c0.5-1.4,0.8-2.2,0.9-2.4c0,0,0.1-0.1,0.1-0.1c0.3,0,0.4,0.1,0.4,0.3c-0.5,3.3-0.7,6.5-0.6,9.7c0,0,0.1-0.1,0.2-0.2
	c0.1-0.1,0.1-0.2,0.1-0.2c0-0.2,0.3-0.6,0.7-1.3c0.7-1.1,2.5-3,5.3-5.6c0.2-0.2,1.4-1.2,3.6-3c1.4-1.2,2.6-2.3,3.4-3.4
	c0.1-0.3,0.4-0.6,0.8-1c0.1,0,0.1,0.1,0.2,0.3l0,0.5c-0.4,1.1-1.1,2.2-1.8,3.4c-1.2,1.3-2.8,2.8-4.8,4.4c-3.3,2.7-5,4-5,4.1
	C332.8,124.8,332.3,125.3,332.1,125.8 M336.3,131.4c-0.5-0.8-1.2-1.3-2.3-1.5c-1.3-0.1-2.3,0.2-3,1c-0.2,0.5-0.2,1.1,0.1,1.8
	c0.6,1,1.4,1.6,2.5,1.7c1.2,0,2.2-0.7,2.8-2C336.4,132,336.4,131.6,336.3,131.4"/>
<path class="st0" d="M343.7,118.6c-0.1,0.5-0.2,1.1-0.3,2c-0.1,1.1-0.2,2.7-0.2,4.6c0,2.3,0,3.9-0.1,4.8c-0.1,1.9-0.6,3.9-1.6,6
	c-0.2,0.4-0.3,0.6-0.5,0.6c-0.1,0-0.1,0-0.2-0.1c-0.2-0.1-0.2-0.3-0.2-0.7c0.2-0.7,0.4-2.4,0.5-5.1c-0.2-2.2-0.2-4.6-0.2-7.3
	c0.4-1.4,1.1-3,2.1-5C343.4,118.3,343.6,118.4,343.7,118.6"/>
<path class="st0" d="M380,124.3c0.3-0.3,0.6-0.3,0.9,0c0.5,0.4,1.1,0.9,1.8,1.4c0.3,0.2,0.4,0.3,0.4,0.4c0,0.1-0.4,0.5-1.1,1.3
	l-1.2,1.2c-0.4,0-0.8,0-1-0.2c-0.3-0.2-0.7-0.6-1.3-1.2c-0.4-0.4-0.5-0.6-0.5-0.6c0-0.1,0.3-0.5,1-1.2
	C379.7,124.7,380,124.4,380,124.3"/>
<path class="st0" d="M379.7,142c0.3-0.3,0.4-0.5,0.5-0.5c0.1,0,0.3,0.1,0.5,0.4c1,1,1.8,1.6,2.5,2c0,0,0.2-0.1,0.5-0.4
	c1-1.1,1.5-1.7,1.7-1.8c0.1,0,0.2,0.1,0.4,0.3c0.8,0.8,1.7,1.4,2.4,2c0,0,0,0.1,0,0.2c0,0.1-0.2,0.4-0.6,0.9l-0.3,0.3
	c-0.8,1-1.3,1.5-1.4,1.6c-0.1,0-0.2,0.1-0.3,0.1c-0.4,0-0.9-0.3-1.7-1c-0.5-0.5-0.9-0.9-1-1.1c-0.1-0.1-0.1-0.2-0.2-0.2
	c0,0-0.4,0.3-1,1c-0.6,0.7-0.9,1-1,1.1c-0.2,0-0.5,0-0.8-0.2c-0.6-0.3-1.1-0.8-1.7-1.3c-0.4-0.5-0.6-0.7-0.6-0.8
	C377.6,144.5,378.3,143.6,379.7,142"/>
<path class="st0" d="M391.8,136.8c0.3-0.2,0.5-0.2,0.8,0c0.4,0.4,1,0.8,1.7,1.4c0.3,0.3,0.5,0.4,0.5,0.5c0,0.1-0.1,0.2-0.2,0.4
	c-0.4,0.5-0.9,1-1.6,1.7l-0.4,0.5c-0.5,0-1-0.2-1.3-0.5c-0.6-0.5-1.1-1-1.5-1.6c0-0.1,0.3-0.4,0.7-0.9l0.3-0.3
	C391.4,137.1,391.8,136.8,391.8,136.8"/>
<path class="st0" d="M351.7,134.4c0-1.2,0.1-2.1,0.2-2.9c0-0.4,0.1-0.6,0.2-0.7c0.4-0.3,0.6-0.1,0.6,0.4c0,0.7,0.1,1.3,0.2,1.8
	c0.1,0.3,0.3,0.6,0.5,0.8c1.5,0.6,3.9,0.9,7.1,0.8l2.4,0l2.6-0.3c1.8-0.2,2.7-0.3,2.9-0.4c1.6-0.3,2.9-0.9,3.9-1.8
	c0.7-0.5,1-1.5,1-3v-3c0-2.6,0-4,0.1-4.2c0.5-2,1.3-3.5,2.2-4.4c0.4-0.4,1.1-0.8,2-1.4l0.6-0.3c1-0.5,2.2-1.1,3.8-1.8
	c2.2-1,4-1.8,5.3-2.6c0.6-0.4,1.2-0.7,1.6-1c0.2-0.2,0.4-0.2,0.6-0.1c0,0,0.1,0.1,0,0.2c-0.6,1.2-1.6,2.2-2.9,3
	c-0.8,0.5-1.8,1.1-2.9,1.5c-2.5,1-5,2.2-7.6,3.6c-0.3,0.2-0.6,0.5-0.9,0.8c-0.2,0.3-0.3,0.6-0.3,0.9c-0.1,1.2-0.1,2.9-0.1,5.4v3.3
	l0.1,1.2c0.1,1,0.2,1.6,0.5,2c0.7,1.1,1.9,1.6,3.6,1.6c0.6,0,1.1-0.1,1.5-0.3c0.2-0.1,0.5-0.4,1-0.9c0.5-0.5,0.8-0.8,1-0.9
	c0.3-0.2,0.7-0.2,1.1-0.1l0.6,0.2c0.8,0.3,1.3,0.3,1.6,0.1c0.5-0.6,0.8-1.4,1-2.3c0.2-1.6,0.5-2.9,1-4.1c0.1-0.3,0.3-0.4,0.5-0.5
	c0.1,0,0.2,0,0.2,0.1c0,0.8,0.1,1.5,0.3,2.2c0.5,1.2,1.5,1.8,3.1,1.6c0.2-0.1,0.5-0.2,0.7-0.4c0.4-0.4,0.7-0.4,1,0
	c0,0.1,0,0.2,0,0.2c-0.1,0.3-0.5,0.9-1.1,1.7c-1.1,1.6-2.2,2.5-3.1,2.6c-0.8,0-1.5-0.3-2.2-0.9c-0.7,0.9-1.4,1.5-2.1,1.8
	c-0.5,0.1-1,0.1-1.6-0.1c-0.8-0.3-1.3-0.3-1.6,0.1c-0.2,0.2-0.5,0.8-1.1,1.8c-0.5,0.9-1,1.5-1.5,1.8l-0.4,0.3
	c-0.6,0.5-1.4,0.6-2.4,0.5c-0.4-0.1-0.7-0.2-1-0.3c-0.7-0.4-1.2-1.1-1.6-2.2c-0.3-0.8-0.5-1.7-0.6-2.6l-0.2,0.5
	c-0.9,1.8-2.6,3.1-5,3.8c-0.8,0.3-1.7,0.5-2.6,0.7l-1.2,0.1c-2.8,0.3-5.1,0.5-6.8,0.5c-2,0-3.5-0.2-4.5-0.6
	C352.1,137.7,351.6,136.4,351.7,134.4"/>
<path class="st0" d="M73.4,132.8c0.9-0.2,1.3-0.1,1.2,0.3c-0.2,0.7-0.7,1.5-1.4,2.4c-0.2,0.2-0.3,0.4-0.5,0.5
	c-1.3,0.3-2.7,0.4-4.4,0.2c-1.8-0.3-3.8-0.9-5.7-1.7l-0.7-0.3c-0.2-0.5-0.1-0.8,0.3-0.9l3.6,0C69.2,133.3,71.8,133.2,73.4,132.8"/>
<path class="st0" d="M102,102.2c0,0.2,0,0.4-0.1,0.5c-0.1,0.2-0.2,0.4-0.3,0.5c-0.7,1-1.5,1.7-2.3,2.3c-1,0.7-2.3,1.5-4,2.3
	c-2.2,1-3.6,1.7-4.2,2c-1.3,0.7-1.9,1.5-1.8,2.5c-0.1,0.4-0.1,0.9-0.1,1.4c0,0.5,0,1.1,0.1,2c0.1,0.9,0.1,1.5,0.1,1.9
	c0,0.4,0,0.8,0,1.1c-0.2,0.9-0.5,1.8-1,2.8c-0.1,0.2-0.2,0.4-0.4,0.8c-0.1,0.6,0,1,0.4,1.4c0.1,0.1,0.7,0.3,1.8,0.6
	c0.7,0.2,1.2,0.5,1.4,1c0.4,0.8,0.6,1.9,0.6,3.2c0,1.1-0.1,2.3-0.4,3.6c-0.5,2.1-1.4,4.1-2.6,5.8c-1.4,2-3.1,3.4-5,4.1
	c-0.6,0.2-1.3,0.3-2,0.3c-1.3,0-2.4-0.4-3.3-1.2c-1.8-1.6-2.8-4.1-2.8-7.5c0-2.7,0.7-6.5,2-11.2c0.2-0.1,0.3-0.2,0.4-0.2
	c0.1,0,0.1,0.3,0.1,0.7c-0.7,3.7-1.1,6.1-1.1,7.5c0,0.9,0.1,1.8,0.2,2.5c0.5,2.3,1.4,3.8,2.9,4.4c0.6,0.2,1.3,0.4,2,0.4
	c1.6,0,3.3-0.7,5.1-2c1.4-1.1,2.5-2.6,3.3-4.5c0-0.1,0-0.3,0-0.6c0-0.3,0-0.5,0-0.6c0-0.2-0.2-0.4-0.3-0.5c-0.2-0.1-0.9-0.4-2-0.6
	c-0.9-0.2-1.4-0.6-1.7-1.2c-0.4-0.7-0.5-1.5-0.5-2.5c0-0.7,0.1-1.6,0.4-2.5c0.3-0.8,0.6-1.6,0.8-2.5c0-0.5,0-1.4,0-2.5v-3
	c0.1-1.2,0.3-2.2,0.7-2.9c0.5-1.6,1.6-3,3.5-4.1c1.6-0.8,3.3-1.6,4.9-2.5c0.8-0.4,1.7-0.9,2.5-1.4c1-0.5,1.7-1.1,2.4-1.7
	C101.8,102,102,102.1,102,102.2 M101.4,99c-0.6,1.2-1.7,2.2-3.3,3.1c-1.4,0.7-2.7,1.4-4,2.1c-1.1,0.6-1.8,1-2.3,1.2
	c-0.8,0.5-1.5,1-2.1,1.5c0,0-0.1,0-0.3-0.1c0.2-0.7,0.7-1.5,1.6-2.3c1-0.9,2.2-1.6,3.5-2.1c0.6-0.4,1.7-1,3.3-1.8
	c1.5-0.7,2.6-1.4,3.3-1.9C101.3,98.7,101.4,98.8,101.4,99"/>
<path class="st0" d="M132.1,133.9l-0.1,0.3c-2,1.4-3.8,2.3-5.4,2.5c-2.5,0.4-4.8,0.6-6.9,0.7l-6.7,0.3c-4.1,0.1-7.2-0.2-9.4-0.9
	c-1.3-0.4-1.9-1.1-1.8-2c0.2-0.9,1.1-2.3,2.5-4c0.6-0.8,1.5-1.6,2.7-2.2c1-0.5,2-1.1,3-1.6c0.6-0.3,1.2-0.9,1.6-1.7
	c0.4-0.7,0.7-1.4,1.1-2.2c0.1-0.1,0.2-0.2,0.3-0.2c0.1,0,0.2,0.1,0.2,0.2c-0.2,1.5-0.9,3.1-2.1,4.8c-0.5,0.6-1.6,1.2-3.2,1.7
	c-1.5,0.5-2.5,1.2-3,2.1c0,0,0,0.1-0.1,0.3c0,0.1,0,0.2,0,0.3c0.9,0.8,2.5,1.3,4.8,1.5c2.4,0.2,4.6,0.3,6.8,0.3h7.8
	c3.3,0,5.8,0,7.6-0.1C131.9,133.8,132.1,133.8,132.1,133.9 M113.7,115.7c-0.4,0.6-0.9,1.6-1.7,2.9c-0.7-0.3-1.3-0.2-1.8,0.3
	c-0.3,0.4-0.8,1-1.4,1.9c-0.6,0.9-1.1,1.5-1.5,1.9c-0.6,0.6-1.3,0.9-2.1,0.9c-0.3,0-0.6-0.1-0.9-0.3c0.3-0.6,0.8-1.6,1.4-2.8
	c0.2,0,0.6,0,1,0c0.9-0.1,1.7-0.6,2.4-1.6c0.5-0.9,1-1.7,1.5-2.5c0.7-0.8,1.6-1.1,2.7-0.9C113.4,115.3,113.5,115.4,113.7,115.7"/>
<path class="st0" d="M137.7,133h0.1c0.4-1,0.9-2,1.4-3.1c0.6-1.2,1.2-2.1,1.9-2.8c0.5-0.4,1.1-0.6,1.7-0.6c0.5,0,1.2,0.1,2,0.4
	c1,0.4,1.6,0.6,1.9,0.6c0.4,0.1,1.1,0.2,1.9,0.3c0.1,0.1,0.2,0.2,0.2,0.3c0,0.1,0,0.1-0.1,0.2c-0.7,0.6-1.8,1.9-3.2,3.6
	c-1.4,1.8-2.5,3-3.4,3.7c-1.3,1.1-2.8,1.7-4.3,1.9c-1.2,0.1-2.1-0.4-2.8-1.5c-0.7-1.5-1.1-3.5-1.1-5.9c0-0.5,0-1.6,0.1-3.3
	c0-1.4,0.1-2.5,0-3.4c0-1.1,0.1-2.3,0.1-3.4c0.1-1.4,0.3-2.4,0.8-3.2c0.1-0.4,0.3-0.9,0.7-1.6c0.2,0,0.3,0.1,0.3,0.2
	c-0.5,3.9-0.6,8-0.5,12.2c0.1,1.5,0.2,2.6,0.3,3.1C136.1,131.9,136.8,132.6,137.7,133 M140,145.7c-1.2-0.4-2.3-1.2-3.3-2.4
	c1.5-1.7,2.3-2.7,2.5-2.8c1,0.8,2.1,1.7,3.2,2.4L140,145.7z M145.7,129.8v-0.1c-1.5-0.6-2.8-1-3.8-1.1c-0.5,0.1-1,0.4-1.4,1
	c-0.3,0.5-0.5,1-0.8,1.5c-0.4,0.7-0.6,1.4-0.7,2C141.3,133.1,143.6,132,145.7,129.8"/>
<path class="st0" d="M174.1,112.7l0.1,0.3c-0.2,0.8-0.6,2.1-1.1,3.8c-0.1,0.2-0.3,0.3-0.5,0.3c-0.4,0-0.6,0-0.7,0.1
	c-2.3,1.1-3.7,2.8-4.3,4.9c-0.2,0.6,0,1.1,0.5,1.5c0.2,0.1,0.8,0.3,1.7,0.6c0.7,0.2,1.2,0.5,1.5,1c0.4,0.6,0.5,1.4,0.5,2.4
	c0,0.3,0,0.8-0.1,1.3c0,0.6-0.1,1.1-0.1,1.2c-0.4,2.4-1.2,4.5-2.4,6.4c-1.3,2.1-2.9,3.7-4.9,4.8c-0.9,0.5-1.8,0.7-2.9,0.7
	c-1.3,0-2.3-0.3-3.1-1c-1.9-1.5-2.8-3.9-2.9-7.3c0-2.7,0.8-6.6,2.4-11.7l0.3-0.1c0.1,0.1,0.2,0.4,0.2,0.8c-0.9,3.6-1.3,6.1-1.3,7.7
	c0,3.2,0.8,5.3,2.4,6.3c0.8,0.5,1.6,0.7,2.6,0.7c1.7,0,3.5-0.7,5.4-2.1c1.8-1.6,2.8-3.3,3-4.9c0.1-0.8-0.1-1.3-0.6-1.6
	c-0.6-0.2-1.3-0.4-1.9-0.6c-0.7-0.3-1.2-0.7-1.4-1.3c-0.2-0.6-0.3-1.3-0.3-2c0-0.7,0.1-1.6,0.4-2.8c1-4.2,2.9-7.3,5.8-9.4
	c0.7-0.3,1.1-0.5,1.2-0.5C173.8,112.6,174,112.6,174.1,112.7"/>
<path class="st0" d="M181.3,126.4c0.1,0.5,0.2,1,0.2,1.5c0,1-0.3,2.2-0.8,3.4c0,0.1-0.6,1.2-1.6,3.3c-0.1,0.3-0.4,0.6-0.9,1.1
	c-1.2,0.4-3,0.8-5.4,1.4c-0.2,0.1-0.3,0-0.4-0.3c0-0.1,0.5-0.4,1.3-1c0.5-0.4,1.4-0.9,2.7-1.6c1.2-0.6,2.1-1.1,2.7-1.6
	c0.4-0.5,0.5-1.1,0.3-2c-0.3-1.1-1.1-2-2.6-2.7c-0.1-0.1-0.1-0.3,0-0.5c0.1-0.1,0.2-0.3,0.2-0.5c0.3-0.9,0.6-2.1,1.1-3.4
	c0.7,0,1.3,0.4,1.9,0.9C180.6,125.1,181,125.7,181.3,126.4"/>
<path class="st0" d="M210.9,105.1l1.1-0.7c0.1,0,0.2,0.1,0.4,0.3c-0.1,0.1-0.5,0.6-1.1,1.4c-0.4,0.6-0.9,1-1.3,1.3l-6.2,2.9
	c-1.2,0.5-1.9,0.9-2.1,1c-0.7,0.5-1.2,1.1-1.4,1.8c-0.1,2.1-0.2,4.1-0.3,6.2c-0.1,2.5-0.5,4.6-1,6.1c-0.7,1.4-1.1,2.1-1.2,2.1
	c-0.5,0.7-1.2,1.2-1.9,1.2c-1.2,0.3-2.3,1.2-3.1,2.7c-0.7,1.2-1.3,2.5-2,3.8c-0.2,0.3-0.4,0.6-0.7,1c-0.3,0.4-0.6,0.7-1,0.8
	c-1.3,0.1-3.2,0.3-5.8,0.6c-0.1,0-0.3-0.2-0.4-0.3c0.1-0.2,0.3-0.5,0.7-0.6c0.5-0.2,0.7-0.4,0.8-0.4c1.4-0.7,2.8-1.3,4.1-2
	c1.5-0.9,2.6-1.9,3.3-3.2c0.5-1,1.1-2,1.7-3c0.6-1.1,1.4-1.9,2.4-2.3c1.1-0.2,1.9-0.7,2.3-1.4c0.2-0.6,0.3-1.4,0.3-2.4v-5.8
	c0-1.9,0.7-3.7,2.2-5.5c0.7-0.8,2.1-1.7,4.3-2.7L210.9,105.1z"/>
<path class="st0" d="M227.4,121.8l-0.2-6.3c-0.1-1.9-0.1-3.5,0-5c0.4-1.7,1-3.3,1.9-4.6c0.2,0,0.3,0.1,0.3,0.3c-0.3,2-0.4,4-0.4,5.9
	c0,1.3,0.1,2.5,0.2,3.6c0.3,1.2,0.8,2,1.4,2.4c0.3,0.1,0.7,0.2,1,0.2c0.7,0,1.3-0.2,1.8-0.6c0-0.1,0-0.2-0.1-0.4
	c-0.1-0.2-0.1-0.3-0.1-0.4c-0.1-0.4-0.1-0.8-0.1-1.2c0-1.5,0.5-2.8,1.5-4c0.6-0.7,1.3-1,2.1-0.9c0.7,0.1,1.3,0.4,1.7,1.1
	c0.1,0.4,0.2,0.9,0.2,1.3c0,0.9-0.5,2.4-1.6,4.3c2.1,0,3.5-0.6,4.1-1.9l0.7-1.4c0.1-0.1,0.3-0.1,0.5-0.1c0.3,0.6,0.7,0.9,1.3,0.9
	c1.1,0.1,2-0.3,2.7-1.2c0.3-2.4,0.8-4.1,1.5-5.3c0.1-0.1,0.2-0.1,0.3-0.1c0.1,0.2,0.2,0.4,0.1,0.8c-0.1,0.4-0.1,0.7,0,0.9
	c0.3,0.8,0.4,1.3,0.5,1.4c0.2,0.5,0.6,0.8,1.1,0.9c0.2-0.5,0.6-1.3,1.2-2.4c0.1-0.1,0.3-0.1,0.4-0.1c0.2,0,0.5,0.1,1.1,0.4
	c0.5,0.3,0.8,0.8,0.8,1.5c-0.4,2.5-1.3,4.1-2.8,5c-0.7,0.5-1.5,0.5-2.4,0c-0.5-0.3-1-0.8-1.3-1.4h-0.1c-1.2,1.2-2.3,1.8-3.3,1.8
	c-0.3,0-0.6,0-0.9-0.1c-0.3-0.1-0.5-0.3-0.6-0.5c-1.8,2.2-3.5,3.3-5,3.3c-0.4,0-0.8,0-1.1-0.1c-1,1.1-1.7,1.8-2.1,2.1
	c-0.9,0.7-1.8,0.9-2.7,0.8c-0.3,0-0.8-0.3-1.6-0.8c0,0.9-0.1,2.3-0.3,4.2c-0.6,4-1.9,7.4-3.8,10.5c-2.5,4-5.6,5.9-9.3,5.7
	c-1.1,0-2-0.4-2.9-1.1c-0.9-0.7-1.5-1.6-1.9-2.6c-0.5-1.2-0.7-2.5-0.7-4c0-2.1,0.5-4.7,1.6-7.8c0.1-0.3,0.2-0.7,0.3-1
	c0.1-0.3,0.3-0.6,0.6-0.8c0.1,0,0.2,0,0.3,0.2c-0.3,1-0.6,2.4-1,4.2c-0.1,0.9-0.2,1.7-0.2,2.5c0,1.9,0.4,3.4,1.3,4.3
	c0.9,1,2.2,1.4,3.9,1.4c0.8,0,1.6-0.1,2.4-0.4c2-0.4,3.7-1.6,5.3-3.5c1.5-1.8,2.4-3.7,2.7-5.8C227.5,127,227.5,124.9,227.4,121.8
	 M227.3,102.8l0.1-0.2c0.6-0.8,1.4-1.7,2.4-2.7l0.2,0.1c0.5,0.4,1.4,1.1,2.7,2.1l1.9-2h0.2c1,0.9,1.9,1.6,2.6,2.1
	c0.1,0.1,0.1,0.2,0,0.4l-2,2.3c-0.1,0.1-0.3,0.2-0.5,0.2c-0.2,0-0.4-0.1-0.6-0.2c-0.2-0.2-0.5-0.3-0.7-0.5c-0.4-0.3-0.8-0.7-1.4-1.4
	h-0.1l-1.7,1.8c-0.1,0-0.2,0.1-0.3,0.1c-0.1,0-0.5-0.2-1.2-0.5C228.5,104,228,103.5,227.3,102.8 M237,113.4
	c-0.2-0.2-0.5-0.4-0.9-0.4c-0.8,0.1-1.4,0.6-1.8,1.3c-0.2,0.2-0.2,0.5-0.2,0.7c0,0.4,0.2,0.9,0.5,1.5l0.3,0.3
	c0.1,0.2,0.2,0.2,0.3,0.2c0.9-0.4,1.5-1,2-1.9C237.4,114.4,237.4,113.8,237,113.4 M236.3,107.9l2.3-2.7h0.2c0.5,0.5,1.4,1.2,2.8,2.1
	c0.4-0.5,1-1.2,1.9-2.1l0.2,0.1c0.8,0.8,1.7,1.5,2.6,2c0.1,0.1,0,0.2-0.1,0.4c-0.5,0.8-1.2,1.6-2,2.4c-0.1,0.1-0.2,0.1-0.4,0.1
	c0,0-0.4-0.2-1.1-0.5c-0.4-0.3-0.9-0.8-1.6-1.5c-0.4,0.5-1,1.1-1.9,2c-0.3,0-0.7-0.1-1.1-0.4c-0.4-0.3-0.7-0.5-1.1-0.8
	c-0.2-0.2-0.3-0.3-0.5-0.5C236.3,108.2,236.3,108.1,236.3,107.9 M247.3,102.9l2.4-2.6l0.2,0c1,1,1.8,1.7,2.5,2.2c0,0,0,0.2,0,0.4
	c-0.9,1-1.6,1.8-2.3,2.4c-0.1,0-0.2,0-0.3,0c-0.2,0-0.6-0.2-1-0.5c-0.4-0.4-1-0.9-1.6-1.6L247.3,102.9z"/>
<path class="st0" d="M45.5,50.6l5.5-2.5c0.7-0.4,1.5-0.8,2.2-1.1c0.9-0.5,1.6-1,2.1-1.5c0.2,0,0.3,0.1,0.3,0.2
	c0.1,0.2-0.1,0.5-0.5,1c-1.2,1.4-2.6,2.6-4.4,3.5c-1.9,0.8-4.7,2.1-8.4,3.9c-0.9,0.5-1.5,1.1-1.8,1.9c-0.1,0.5-0.2,1.7-0.2,3.3
	c-0.1,1.4-0.2,2.5-0.4,3.3c-0.6,2.2-1.7,3.7-3.5,4.5c-0.8,0.4-1.7,0.7-2.5,1.1c-1,0.5-1.6,1.2-2,2c-0.1,0.2,0.1,0.4,0.6,0.8
	c0.9,0.3,2.2,0.5,3.8,0.6c2.5,0.2,3.8,0.2,3.9,0.2h7.3l6.8-0.2l4.7-0.3c0.2,0,0.3,0.1,0.3,0.2l-0.1,0.2c-2.1,1.7-4.6,2.7-7.7,3.1
	l-5.9,0.6l-6.8,0.4c-1,0.1-1.9,0.1-2.7,0.1c-2.5,0-4.5-0.4-6-1.1c-0.8-0.4-1.2-0.9-1.2-1.5c0-0.5,0.2-1.2,0.6-1.8
	c0.3-0.6,0.7-1.1,1.1-1.7c0.6-1,1.5-1.8,2.7-2.7c0.6-0.4,1.7-1,3.4-1.9c1.4-0.7,2.1-1.7,2.1-2.9c0-1,0-2,0.1-3.1
	c0-1.2,0.2-2.1,0.5-2.9c0.8-1.8,1.7-3.1,2.8-3.9C43.1,51.8,44.2,51.2,45.5,50.6"/>
<path class="st0" d="M92.5,66.3c-0.3,1.6-1.1,3-2.2,4.3c-1.1,1.3-2.4,2.2-3.9,2.7c-4,1.2-7.9,1.8-11.8,1.8c-2,0-3.8-0.2-5.6-0.5
	c-1.5-0.3-2.4-1-2.6-2.1c-0.1-0.6-0.2-1.2-0.2-1.9c0-0.9,0.2-2.3,0.6-4.2c0,0,0.1-0.1,0.1-0.2c0-0.1,0.1-0.1,0.1-0.1
	c0.2,0,0.4,0.1,0.4,0.2c0,0.6,0,1.2,0,1.8c0,0.8,0.4,1.2,0.9,1.5c2,0.8,5.2,1.2,9.6,1.1c4.4,0,8-0.6,10.9-1.6
	c1.4-0.5,2.4-1.4,3.2-2.9c0-0.1,0.2-0.2,0.3-0.2C92.4,66.1,92.5,66.2,92.5,66.3 M78.5,80.4h-0.1c-0.3,0.4-0.6,0.8-0.9,1.2
	c-0.4,0.5-0.8,0.8-1.1,0.9c-0.5,0-1-0.3-1.5-0.7c-0.5-0.4-0.9-0.7-1.3-1.1c-0.1-0.2-0.1-0.4,0-0.5c0.2-0.3,0.9-1.1,2-2.5
	c0.2-0.1,0.4,0,0.7,0.3c0.2,0.2,0.4,0.4,0.5,0.4c0.3,0.2,0.7,0.4,1.3,0.7c0.2,0.3,0.5,0.5,0.9,0.5c0.4-0.7,1-1.4,1.7-2.2
	c0.6,0.4,1.6,1.1,2.9,1.9c0.1,0.2,0,0.4-0.1,0.5c-0.6,1-1.2,1.9-1.9,2.7C80.5,82.1,79.5,81.4,78.5,80.4 M78.3,83.1h0.4
	c0.3,0.1,0.8,0.4,1.3,0.9c0.5,0.4,1,0.7,1.2,0.9c0.1,0.2,0.2,0.3,0.1,0.4c-0.5,0.6-1.2,1.4-2.1,2.4c-0.2,0.1-0.4,0.2-0.5,0
	c-1-0.5-1.8-1.1-2.5-1.8c0.1-0.3,0.5-0.8,1-1.4C77.7,83.8,78.1,83.4,78.3,83.1"/>
<path class="st0" d="M104.3,46.5c-0.8,2.3-2.2,4.1-4.1,5.5c-1,0.7-2,1-3,1c-0.5,0-1-0.1-1.4-0.3c-0.1,0-0.2-0.1-0.4-0.3
	c-0.2-0.2-0.4-0.2-0.5-0.2c-0.1,0-0.2,0-0.3,0.1c-0.6,0.3-1.4,1-2.2,2.1c-0.1,0.1-0.3,0.1-0.5,0.1c-0.1-0.1-0.1-0.3,0-0.7
	c1.3-2.5,2.7-4.3,4.3-5.3c0.2-0.2,0.4-0.2,0.6-0.2c0.2,0,0.5,0.1,0.8,0.3c0.3,0.2,0.5,0.3,0.7,0.3c0.5,0.2,1,0.3,1.5,0.3
	c1,0,1.9-0.3,2.6-0.9c0.4-0.5,1-1.1,1.8-1.9C104.2,46.1,104.3,46.2,104.3,46.5 M98.5,55.1c-0.1,0.5-0.2,1.1-0.3,2
	c-0.1,1.1-0.2,2.7-0.2,4.6c0,2.3,0,3.9-0.1,4.8c-0.1,1.9-0.6,3.9-1.6,6c-0.2,0.4-0.3,0.6-0.5,0.6c-0.1,0-0.2,0-0.2-0.1
	c-0.2-0.1-0.2-0.3-0.2-0.7c0.2-0.7,0.4-2.4,0.5-5.1c-0.2-2.2-0.2-4.6-0.2-7.3c0.4-1.4,1.1-3,2.1-5C98.2,54.9,98.4,54.9,98.5,55.1"/>
<path class="st0" d="M125.3,67.8c0.3-0.3,0.4-0.5,0.5-0.5c0.1,0,0.3,0.1,0.5,0.4c1,1,1.8,1.6,2.5,2c0,0,0.2-0.1,0.5-0.4
	c1-1.1,1.5-1.7,1.7-1.8c0,0,0.2,0.1,0.4,0.3c0.8,0.8,1.7,1.4,2.4,2c0,0,0,0.1,0,0.2c0,0.1-0.2,0.4-0.6,0.9l-0.3,0.3
	c-0.8,1-1.3,1.5-1.4,1.6c-0.1,0-0.2,0.1-0.3,0.1c-0.4,0-0.9-0.3-1.7-1c-0.5-0.5-0.9-0.9-1-1.1c-0.1-0.1-0.1-0.2-0.2-0.2
	c0,0-0.4,0.3-1,1c-0.6,0.7-0.9,1-1,1.1c-0.2,0-0.5,0-0.8-0.2c-0.6-0.3-1.1-0.8-1.7-1.3c-0.4-0.5-0.6-0.7-0.6-0.8
	C123.2,70.3,123.9,69.4,125.3,67.8"/>
<path class="st0" d="M139.4,48.9c0.1-0.1,0.2-0.1,0.2-0.1c0.2,0.1,0.3,0.2,0.4,0.5c0.2,0.6,0.8,1.5,1.7,2.8c0.3,0.4,0.4,0.7,0.4,0.8
	c-0.1,0.5-0.4,1-0.9,1.4c-0.6,0.6-1.1,1-1.4,1.2c-0.2,0.1-0.3,0.1-0.4,0.1c-0.2,0-0.6-0.2-1.3-0.5c-0.9-0.4-1.7-0.5-2.5-0.2
	c-0.8,0.4-1.5,1.1-2.1,2c-0.8,1-1.5,1.7-2,2c-1.5,0.9-2.7,0.7-3.6-0.5c-0.2-0.2-0.3-0.2-0.4,0c-0.5,0.7-1.1,1.4-1.8,1.9
	c-0.5,0.4-1.2,0.7-2.2,0.7c-0.5,0-0.8,0.1-0.8,0.1c-0.1,0.1-0.1,0.3-0.1,0.8c0,0.9-0.1,1.9-0.3,3.1c-0.6,3.8-2,7.2-4.2,10.1
	c-1.4,1.8-2.8,3.1-4.4,3.9c-1.1,0.5-2.3,0.8-3.6,0.9c-1.9,0.1-3.3-0.4-4.2-1.5c-1.4-1.3-2.1-3.3-2.1-5.9c0-0.8,0.1-1.6,0.2-2.4
	c0.3-1.9,0.9-4,1.8-6.5c0.2-0.5,0.3-0.8,0.4-0.9c0.1-0.1,0.3-0.1,0.4,0c0.1,0.2,0,0.6-0.1,1.1c-0.5,1.8-0.9,3.3-1.1,4.5
	c-0.2,1.7-0.1,3.3,0.6,4.6c0.5,1.1,1.6,1.9,3.1,2.2c2.1,0.3,4,0.1,5.7-0.8c1.4-0.7,2.7-1.7,3.8-3.2c2.1-2.6,2.9-6.2,2.5-10.8
	c0-1.1,0.1-2.1,0.4-2.9c0.2-0.3,0.4-0.2,0.4,0.2l0.1,0.5c1.1,0.4,2.2,0.3,3.3-0.2c0.6-0.3,1-0.6,1.3-0.9c0.3-0.3,0.4-0.9,0.5-1.8
	c0.2-1.2,0.6-2.6,1.3-4c0.2-0.5,0.4-0.7,0.5-0.8c0.1,0,0.3-0.1,0.5-0.1l0,0.6c-0.1,1.5,0.2,2.5,0.7,3.1c0.5,0.6,1.3,0.9,2.3,0.9
	c0.2,0,0.4-0.1,0.6-0.2c0.4-0.3,1-0.8,1.9-1.6c0.9-0.9,1.7-1.5,2.6-1.9c0.2-0.1,0.3-0.3,0.4-0.6C138.5,49.9,139,49.3,139.4,48.9"/>
<path class="st0" d="M157.7,75.3c-1.4-0.6-2.7-1.4-3.9-2.5c-1.3-1.2-2.3-2.8-3-4.9c-0.7-1.8-1-3.7-1-5.6c0-1.8,0.3-3.5,0.9-5.2
	c0.6-1.8,1.6-3.4,2.9-4.7c1-1.1,2.3-2,3.9-2.7c1.8-0.7,3.6-1.1,5.5-1.1c1.5,0,3.1,0.2,4.6,0.7c1.1,0.3,2.1,0.8,3,1.3
	c0.4,0.2,0.7,0.2,0.8,0l0.3-1.1c0-0.1,0.2-0.2,0.5-0.2c0.3,0,0.4,0.2,0.4,0.6c0,0.2,0,0.6,0.1,1.2l0.3,2.3c0.2,1.9,0.4,3.1,0.5,3.7
	c0,0.2,0,0.3-0.1,0.4l-0.5,0.2c-0.2,0-0.3-0.1-0.4-0.3c-0.3-0.9-0.7-1.6-1-2.2c-0.6-0.9-1.2-1.8-1.9-2.5c-0.9-0.9-1.8-1.6-2.7-2.1
	c-1.1-0.6-2.4-0.8-3.8-0.8c-1.6,0-3,0.3-4.3,1c-1.1,0.6-2.1,1.5-2.9,2.7c-1.5,2.1-2.2,4.7-2.2,7.8c0,0.6,0,1.3,0.1,2
	c0.1,0.8,0.3,1.6,0.6,2.5c0.3,1,0.6,1.8,1.1,2.6c0.5,1,1.1,1.8,1.8,2.6c1.2,1.3,2.4,2.2,3.6,2.6c0.9,0.3,2.1,0.5,3.6,0.5
	c2,0,3.8-0.5,5.6-1.5c1.5-0.9,2.7-2,3.7-3.3c0.1-0.2,0.2-0.2,0.3-0.1l0.5,0.4c0.1,0.1,0.1,0.2,0.1,0.3c-1.3,1.9-2.8,3.3-4.5,4.4
	c-2,1.3-4.3,1.9-6.7,1.9C161.2,76.2,159.3,75.9,157.7,75.3"/>
<path class="st0" d="M180.7,71.7l0,1.6c0,0.8,0.4,1.2,1,1.2h1.7c0.3,0,0.4,0.1,0.4,0.3v0.7c0,0.2-0.1,0.4-0.2,0.4l-1.4-0.1
	c-1,0-1.9,0-2.9,0c-1,0-1.9,0-2.9,0l-1.4,0.1c-0.2,0-0.3-0.1-0.3-0.4v-0.7c0-0.2,0.2-0.3,0.5-0.3h1.8c0.5,0,0.8-0.3,0.8-0.9l0-1.7
	V61.4c0-1.5,0-2.9,0-4.2c0-1.5,0-2.4-0.1-2.9c-0.1-1.1-0.7-1.9-1.9-2.2l-0.8-0.3c-0.1,0-0.2-0.1-0.2-0.2v-0.3c0-0.1,0.1-0.2,0.3-0.3
	l2.2-1c0.9-0.4,1.6-0.8,2.2-1.2c0.3-0.2,0.6-0.3,0.8-0.3c0.2,0,0.3,0.2,0.3,0.7l-0.1,9.5V71.7z"/>
<path class="st0" d="M188.6,75.5c-1.1-0.5-2.1-1.1-2.8-2c-1.4-1.7-2.1-3.7-2.1-6.1c0-2.4,1.1-4.4,3.2-6c0.9-0.7,1.8-1.2,2.8-1.5
	c0.8-0.2,1.5-0.3,2.2-0.3c2,0,3.8,0.7,5.3,2.2c1.7,1.8,2.5,3.8,2.5,6.1c0,2.1-0.8,4-2.4,5.7c-1.7,1.7-3.6,2.6-5.9,2.6
	C190.5,76.1,189.6,75.9,188.6,75.5 M195.4,72.8c0.9-1.4,1.3-3.2,1.3-5.2c0-1.9-0.6-3.6-1.8-4.9c-1-1.2-2.1-1.9-3.2-1.9
	c-1.2,0-2.1,0.4-2.9,1.2c-1.3,1.3-2,3.3-2,5.9c0,2.1,0.5,3.9,1.4,5.2c0.9,1.3,2.1,2,3.7,2C193.4,75,194.5,74.3,195.4,72.8"/>
<path class="st0" d="M203.4,75.7c-0.3-0.1-0.6-0.2-0.8-0.3c-0.2-0.1-0.4-0.2-0.5-0.3c-0.1,0-0.1-0.1-0.2-0.3c0,0,0-0.1,0-0.1
	l-0.7-3.7c0-0.1,0-0.2,0.2-0.3l0.5-0.1c0.2,0,0.3,0,0.4,0.2l0.9,1.8c0.5,0.9,0.9,1.4,1.2,1.7c0.5,0.4,1.2,0.7,2.1,0.7
	c0.8,0,1.4-0.2,2-0.6c0.6-0.5,1-1.1,1-1.9c0-1.6-1.2-2.8-3.6-3.4c-1.3-0.4-2.3-0.9-3-1.5c-0.9-0.8-1.4-1.9-1.4-3.3
	c0-1.3,0.5-2.4,1.6-3.3c1-0.9,2.2-1.3,3.7-1.3c0.8,0,1.5,0.1,2.2,0.3c0.2,0.1,0.5,0.2,0.7,0.3l0.6,0.3c0.3,0.1,0.4,0.2,0.5,0.3
	c0.1,0.1,0.1,0.2,0.1,0.4l0.6,2.6c0,0.1-0.1,0.3-0.3,0.4l-0.4,0.1c-0.1,0-0.2,0-0.3-0.2l-1.3-1.8c-0.3-0.4-0.6-0.7-1-1
	c-0.4-0.3-1-0.5-1.7-0.5c-0.8,0-1.4,0.2-2,0.7c-0.6,0.4-0.9,1-0.9,1.8c0,1,0.4,1.7,1.1,2.2c0.3,0.2,0.7,0.4,1.2,0.6l1.3,0.4
	c1.5,0.4,2.6,1,3.3,1.6c0.8,0.8,1.2,1.8,1.2,3.2c0,1.5-0.5,2.7-1.6,3.6c-1.1,0.9-2.4,1.4-4.1,1.4C205,76.1,204.2,76,203.4,75.7"/>
<path class="st0" d="M215.3,64.8c0-1.3-0.7-2-2.1-2.2c-0.2,0-0.3-0.1-0.3-0.3v-0.3c0-0.1,0.1-0.2,0.3-0.3c0.7-0.2,1.3-0.5,2-0.8
	c0.7-0.3,1.4-0.7,2.1-1.1c0.3-0.1,0.5-0.2,0.7-0.2c0.2,0,0.3,0.1,0.2,0.4c0,0.3,0,1-0.1,2.1v10.1c0,0.6,0,1,0,1.2
	c0.1,0.6,0.3,1,0.6,1h1.7c0.2,0,0.4,0.1,0.4,0.3v0.7c0,0.2-0.1,0.4-0.3,0.4l-1.3-0.1c-0.9,0-1.7,0-2.3,0c-0.9,0-1.8,0-2.7,0
	l-1.4,0.1c-0.2,0-0.3-0.1-0.3-0.3v-0.8c0-0.2,0.1-0.3,0.4-0.3h1.8c0.4,0,0.6-0.2,0.6-0.7c0-0.5,0-1.1,0-1.7V64.8z M214.3,54.8
	c-0.5-0.4-0.7-0.9-0.7-1.4c0-1.3,0.8-2,2.3-2c1.3,0,1.9,0.6,1.9,1.9c0,1.4-0.7,2.1-2.2,2.1C215.2,55.3,214.7,55.1,214.3,54.8"/>
<path class="st0" d="M236.7,73.7c0,0.5,0.3,0.8,0.8,0.8h1.2c0.3,0,0.4,0.1,0.4,0.3v0.6c0,0.3-0.1,0.4-0.3,0.4l-1.1-0.1
	c-0.1,0-0.3,0-0.5,0h-3.8c-0.1,0-0.3,0-0.5,0l-1.1,0.1c-0.2,0-0.3-0.1-0.3-0.4v-0.6c0-0.2,0.2-0.3,0.5-0.3h1.1
	c0.5,0,0.7-0.3,0.7-0.8c0-0.6,0-1.1,0-1.6c0-0.6,0-1.1,0-1.6v-6c0-0.4-0.1-0.7-0.1-0.9c-0.1-0.6-0.4-1.1-1-1.4
	c-0.4-0.3-0.8-0.5-1.3-0.6l-0.7-0.1h-0.7c-0.4,0-0.9,0.1-1.3,0.3c-0.7,0.3-1.2,0.7-1.7,1.2c-0.3,0.4-0.6,0.8-0.7,1.3
	c-0.1,0.4-0.1,0.8-0.1,1.2v7.8c0,0.8,0.3,1.2,0.9,1.2h0.9c0.3,0,0.4,0.1,0.4,0.4v0.7c0,0.2-0.1,0.3-0.3,0.3l-1-0.1c-0.3,0-0.7,0-1,0
	h-3.1c-0.1,0-0.3,0-0.4,0l-1.1,0.1c-0.2,0-0.3-0.1-0.3-0.3v-0.7c0-0.2,0.1-0.3,0.4-0.3h1.1c0.5,0,0.7-0.2,0.7-0.7v-8.8
	c0-1-0.5-1.7-1.5-2.2l-0.3-0.1c-0.2-0.1-0.3-0.2-0.3-0.4V62c0-0.1,0.1-0.3,0.3-0.4l3.2-1.8l0.4-0.2c0.1,0,0.2-0.1,0.3-0.1
	c0.2,0,0.3,0.1,0.3,0.4l0.3,2.3h0.1c0.6-0.7,1.4-1.3,2.3-1.9c1-0.6,1.9-0.8,2.8-0.8c1.3,0,2.4,0.3,3.2,0.8c1.4,0.9,2.1,2.1,2.1,3.6
	V73.7z"/>
<path class="st0" d="M243.7,85.6c-1.1-0.2-2.1-0.5-2.9-1c-1.3-0.8-1.9-1.8-1.9-3c0-1,0.4-1.9,1.3-2.7c0.7-0.7,1.6-1.3,2.6-1.8V77
	c-1.7-0.4-2.5-1.2-2.5-2.6c0-0.8,0.4-1.6,1.2-2.3c0.6-0.6,1.3-1,2.2-1.3v-0.1c-0.9-0.4-1.7-1-2.3-1.8c-0.8-1.1-1.2-2.4-1.2-3.9
	c0-1.4,0.5-2.6,1.6-3.6c1.2-1.2,2.8-1.8,4.8-1.8c1.2,0,2.3,0.3,3.3,0.9c0.3,0.2,0.6,0.5,1,0.8l0.5,0.5c0.6-0.4,1.2-0.8,1.7-1
	c0.7-0.3,1.3-0.4,1.8-0.4c1.3,0,1.9,0.5,1.8,1.6c0,0.9-0.5,1.4-1.5,1.4c-0.3,0-0.5-0.1-0.8-0.2c-0.1,0-0.2-0.1-0.3-0.2l-0.4-0.3
	c0,0-0.1-0.1-0.2-0.1c-0.1-0.1-0.3-0.1-0.4-0.1h-0.2c-0.1,0-0.2,0-0.3,0.1c-0.3,0-0.5,0.1-0.7,0.2c0.2,0.4,0.3,0.8,0.4,1.2
	c0.1,0.5,0.1,1,0.1,1.6c0,1.6-0.5,3-1.4,4.1c-1.1,1.2-2.6,1.9-4.4,1.9c-0.8,0-1.4-0.1-1.9-0.2c-0.5,0.2-0.9,0.5-1.3,0.8
	c-0.5,0.4-0.7,0.9-0.7,1.3c0,0.7,0.4,1.1,1.2,1.3c0.4,0,0.8,0.1,1.4,0.1l1.8-0.1c3-0.1,5.1,0.3,6.4,1.4c0.7,0.5,1.2,1.1,1.5,1.9
	c0.1,0.3,0.2,0.6,0.3,0.9c0,0.1,0,0.3,0,0.4c0,0.1,0,0.2,0,0.4c0,1.8-0.8,3.4-2.5,4.6c-0.6,0.4-1.4,0.8-2.4,1.1
	c-1.3,0.4-2.6,0.6-4,0.6C245.5,85.9,244.5,85.8,243.7,85.6 M251.1,83.8c1.4-0.8,2.1-1.8,2-3c0-2.7-1.8-3.9-5.4-3.7l-3.6,0.3
	c-0.7,0.2-1.3,0.5-1.9,1.1c-0.7,0.7-1.1,1.6-1.1,2.5c0,1,0.5,1.9,1.5,2.6c1,0.7,2.8,1,5.3,1C248.9,84.7,250,84.4,251.1,83.8
	 M248.9,68.5c0.5-1,0.7-2.2,0.7-3.6c0-1.5-0.3-2.6-1-3.4c-0.5-0.6-1.1-0.8-1.8-0.8c-1.1,0-2,0.4-2.7,1.1c-0.5,0.6-0.9,1.3-1.1,2.1
	c-0.1,0.6-0.2,1.4-0.2,2.3c0,1.3,0.4,2.4,1.2,3.3c0.7,0.6,1.4,1,2.3,1C247.5,70.3,248.3,69.7,248.9,68.5"/>
<path class="st0" d="M274.9,51.2v6.1c0,1.1-0.2,2.4-0.6,3.8c-0.4,1.2-0.8,2.4-1.2,3.6c-0.1,1-0.1,1.6,0,1.8c0.2,0.2,0.8,0.4,1.8,0.7
	c0.8,0.2,1.2,0.6,1.4,1.2c0.5,1.1,0.6,2.6,0.3,4.7c-0.6,4.9-2.8,8.4-6.3,10.5c-0.8,0.5-1.8,0.7-2.8,0.7c-1.1,0-2-0.3-2.8-0.8
	c-1.4-1-2.3-2.7-2.9-5.1c-0.1-0.8-0.1-1.6-0.1-2.4c0-3.1,0.6-6.5,1.8-10.3c0-0.1,0.2-0.1,0.4-0.1c0.1,0.1,0.1,0.8,0,1.8
	c-0.5,2.5-0.7,4.4-0.7,5.7c0,2,0.4,3.6,1.1,4.8c0.8,1.3,1.9,1.9,3.5,1.9c1.4,0,2.7-0.4,4-1.3c1.3-0.9,2.3-2,3-3.2
	c0.5-1,0.7-1.9,0.5-2.9c-0.1-0.3-0.4-0.6-0.9-0.7c-0.7-0.2-1.1-0.3-1.2-0.3c-0.6-0.2-1.2-0.6-1.6-1.1c-0.2-1.3-0.2-2.7,0.1-4.4
	c0.2-1.1,0.5-2.1,0.7-3.2c0.3-1.3,0.4-2.4,0.4-3.4c-0.1-2.1-0.1-3.6,0-4.6c0.4-0.8,0.8-1.9,1.4-3.5c0.2-0.1,0.3-0.2,0.2-0.2v-0.1
	C274.8,50.9,274.9,51,274.9,51.2"/>
<path class="st0" d="M281.2,59.8c-0.1,0.5-0.2,1.1-0.3,2c-0.1,1.1-0.2,2.7-0.2,4.6c0,2.3,0,3.9-0.1,4.8c-0.1,1.9-0.6,3.9-1.6,6
	c-0.2,0.4-0.3,0.6-0.5,0.6c-0.1,0-0.1,0-0.2-0.1c-0.2-0.1-0.2-0.3-0.2-0.7c0.2-0.7,0.4-2.4,0.5-5.1c-0.2-2.2-0.2-4.6-0.2-7.3
	c0.4-1.4,1.1-3,2.1-5C280.8,59.5,281,59.6,281.2,59.8"/>
<path class="st0" d="M289.2,72.6c-0.2,1.2-0.8,2.8-1.9,4.9c-0.3,0.5-0.8,0.9-1.6,1.1c-0.6,0.2-1.3,0.3-1.9,0.5
	c-0.5,0.1-1.2,0.4-2.2,0.6c-0.2,0-0.4-0.1-0.4-0.2c0-0.2,0.2-0.4,0.5-0.6c1-0.6,2-1.2,3-1.8c1.1-0.7,2-1.4,2.8-2.1
	c0.2-0.3,0.3-0.7,0.2-1.2c-0.1-0.4-0.3-0.6-0.5-0.8c-0.3,0-0.5,0.1-0.7,0.1c-0.9,0-1.6-0.3-2-0.9c-0.2-0.3-0.3-0.6-0.3-0.9
	c0-0.4,0.1-0.8,0.3-1.3c0.2-0.4,0.4-0.8,0.6-1.2c0.2-0.4,0.3-0.9,0.5-1.4c0.3-0.5,0.6-0.9,1.1-1.1c0.8-0.2,1.5,0.2,2,1
	c0.5,0.9,0.8,2,0.8,3.3C289.5,71.2,289.4,71.9,289.2,72.6"/>
<path class="st0" d="M319.4,78.9l-6.5,0.6c-3.4,0.3-6,0.4-8.1,0.4c-2,0-3.9-0.1-5.5-0.4c-2-0.3-3.2-1.1-3.5-2.3c0-0.6,0.3-1.3,0.8-2
	c0.4-0.6,0.8-1.2,1.2-1.8c0.7-0.9,1.7-1.7,3-2.4c1.1-0.6,2.2-1.1,3.4-1.7c0.7-0.4,1-1,1-2c0,0.1-0.1-0.6-0.2-2.1l-0.1-0.9
	c0.1-0.4,0.3-0.8,0.6-1.3c0.4-0.8,0.6-1.2,0.7-1.3c0.2-0.2,0.3-0.3,0.4-0.2c0,1,0,2.4,0,4.2c-0.2,2-0.7,3.4-1.4,4.3
	c-0.5,0.6-1.4,1.1-2.6,1.6c-1.4,0.6-2.3,1-2.8,1.3c-0.8,0.5-1.1,1-1,1.5c0.1,0.3,0.6,0.5,1.4,0.8l1.8,0.3l6,0.4h5.9l8.7-0.1l3.4-0.3
	c0.2,0,0.3,0,0.3,0.3c-0.3,0.3-0.7,0.7-1.4,1C323.5,78,321.6,78.7,319.4,78.9 M305.6,53.1l0.2,0c0.6,0.6,1.6,1.3,2.9,2.3
	c-0.5,0.9-1.3,1.9-2.6,3c-0.4,0-0.9-0.3-1.3-0.6c-0.4-0.4-0.8-0.7-1.2-1.1c-0.4-0.3-0.5-0.6-0.5-0.8C303.9,55,304.8,54,305.6,53.1"
	/>
<path class="st0" d="M339.6,51.1c-0.8,2.3-2.2,4.1-4.1,5.5c-1,0.7-2,1-3,1c-0.5,0-1-0.1-1.4-0.3c-0.1,0-0.2-0.1-0.4-0.3
	c-0.2-0.2-0.4-0.2-0.5-0.2c-0.1,0-0.2,0-0.3,0.1c-0.6,0.3-1.4,1-2.2,2.1c-0.1,0.1-0.3,0.1-0.5,0.1c-0.1-0.1-0.1-0.3,0-0.7
	c1.3-2.5,2.7-4.3,4.3-5.3c0.2-0.2,0.4-0.2,0.6-0.2c0.2,0,0.5,0.1,0.8,0.3c0.3,0.2,0.5,0.3,0.7,0.3c0.5,0.2,1,0.3,1.5,0.3
	c1,0,1.9-0.3,2.6-0.9c0.4-0.5,1-1.1,1.8-1.9C339.5,50.8,339.6,50.9,339.6,51.1 M333.8,59.8c-0.1,0.5-0.2,1.1-0.3,2
	c-0.1,1.1-0.2,2.7-0.2,4.6c0,2.3,0,3.9-0.1,4.8c-0.1,1.9-0.6,3.9-1.6,6c-0.2,0.4-0.3,0.6-0.5,0.6c-0.1,0-0.2,0-0.2-0.1
	c-0.2-0.1-0.2-0.3-0.2-0.7c0.2-0.7,0.4-2.4,0.5-5.1c-0.2-2.2-0.2-4.6-0.2-7.3c0.4-1.4,1.1-3,2.1-5C333.4,59.5,333.6,59.6,333.8,59.8
	"/>
<path class="st0" d="M353,56.1l-0.1-0.2c-1.1,0-1.9-0.3-2.5-1c-0.2-0.4-0.3-0.9-0.2-1.5c0.4-0.7,1-1.8,1.7-3.3
	c0.4-0.7,0.9-1.1,1.4-1.1c0.6-0.1,1.1,0.2,1.7,1.1c0.4,0.8,0.5,1.7,0.5,2.7c0,2-0.6,3.8-1.9,5.5l-1.2,1.3c0.5,0.3,1.3,0.8,2.3,1.6
	c0.3,0.8,0.3,1.5-0.1,2.1c-1.1,1.7-2.4,2.6-4,2.7c-1.6,0.2-3.1,0.7-4.5,1.5c-1.5,1-2.5,2.2-3,3.7c-0.3,1.1-0.4,3.2-0.3,6.4l0.2,8.7
	c0,0.8-0.2,1.9-0.6,3.4c0,0.1-0.2,0.2-0.4,0.2c-0.1-0.1-0.1-0.3-0.1-0.6c0-0.3,0-0.5,0-0.5c0-0.6,0-1.6,0-2.9l-0.4-5.6
	c-0.1-1.8-0.2-3.2-0.2-4.2c0-3.2,0.5-5.8,1.6-7.9c1.1-2.1,3-3.9,5.8-5.4c1-1.9,2.4-3.7,4.1-5.3C353.1,56.8,353.2,56.3,353,56.1
	 M355.1,40.9h0.3c0.9,0.9,1.8,1.6,2.8,2.2c0.1,0.1,0.1,0.3-0.1,0.5c-0.4,0.5-0.8,1-1.2,1.5c-0.5,0.6-0.9,1-1.4,1.3
	c-0.8-0.3-1.7-1-2.9-2.1c-0.1-0.1-0.2-0.2-0.2-0.2c-0.4,0.5-1.1,1.3-2,2.2c-0.6-0.1-1.6-0.8-2.8-2c-0.2-0.3-0.3-0.5-0.2-0.6
	c0.5-0.7,1.4-1.7,2.4-2.9l0.3,0c0.9,0.9,1.8,1.6,2.8,2.2h0.2L355.1,40.9z"/>
<path class="st0" d="M354.2,79.1c-0.5,0.1-1.2,0.2-2.2,0.4c-0.2,0-0.4-0.1-0.4-0.2c0-0.2,0.1-0.4,0.5-0.6c1-0.6,1.9-1.2,2.9-1.8
	c1.1-0.7,2-1.4,2.7-2c0.7-0.8,1.4-2,2.1-3.6c0.5-1.4,1-2.7,1.4-4c0.1-0.2,0.2-0.3,0.5-0.3c0.2,0,0.3,0.1,0.3,0.3
	c0,0.5-0.2,1.6-0.6,3.3c-0.8,3-1.7,5.3-2.8,7.2c-0.4,0.7-1.1,1.1-2,1.2C355.8,78.9,355,79,354.2,79.1"/>
<path class="st0" d="M406,51.2v6.1c0,1.1-0.2,2.4-0.6,3.8c-0.4,1.2-0.8,2.4-1.2,3.6c-0.1,1-0.1,1.6,0,1.8c0.2,0.2,0.8,0.4,1.8,0.7
	c0.8,0.2,1.2,0.6,1.4,1.2c0.5,1.1,0.6,2.6,0.3,4.7c-0.6,4.9-2.8,8.4-6.3,10.5c-0.8,0.5-1.8,0.7-2.8,0.7c-1.1,0-2-0.3-2.8-0.8
	c-1.4-1-2.3-2.7-2.9-5.1c-0.1-0.8-0.1-1.6-0.1-2.4c0-3.1,0.6-6.5,1.8-10.3c0-0.1,0.2-0.1,0.4-0.1c0.1,0.1,0.1,0.8,0,1.8
	c-0.5,2.5-0.7,4.4-0.7,5.7c0,2,0.4,3.6,1.1,4.8c0.8,1.3,1.9,1.9,3.5,1.9c1.4,0,2.7-0.4,4-1.3c1.3-0.9,2.3-2,3-3.2
	c0.5-1,0.7-1.9,0.5-2.9c-0.1-0.3-0.4-0.6-0.9-0.7c-0.7-0.2-1.1-0.3-1.2-0.3c-0.6-0.2-1.2-0.6-1.6-1.1c-0.2-1.3-0.2-2.7,0.1-4.4
	c0.2-1.1,0.5-2.1,0.7-3.2c0.3-1.3,0.4-2.4,0.4-3.4c-0.1-2.1-0.1-3.6,0-4.6c0.4-0.8,0.8-1.9,1.4-3.5c0.2-0.1,0.3-0.2,0.2-0.2v-0.1
	C405.9,50.9,406,51,406,51.2"/>
<path class="st0" d="M411.3,67.4L411.3,67.4c0.8-1.4,1.8-2.8,3.2-4.3c0.4-0.5,1.8-1.7,4.1-3.8c2.3-2.1,3.9-3.8,5-5.1
	c0.1-0.4,0.3-0.6,0.4-0.6c0.1,0,0.2,0.1,0.2,0.2c0,0.2-0.1,0.7-0.4,1.5c-0.4,1.2-1.5,2.7-3.2,4.5c-0.8,0.8-2.1,2-3.9,3.6
	c-1.8,1.6-3.2,2.8-4,3.7c-0.1,0.4-0.2,0.6-0.2,0.6c0.5-0.2,1.1-0.3,1.7-0.3c1.4,0,2.4,0.4,3.1,1.3c0.5,0.6,0.8,1.4,0.8,2.4
	c0,0.7-0.2,1.8-0.7,3.3c-0.7,1.7-1.3,3-1.8,3.8c0.1,0.1,0.4,0.1,0.6,0.1c0.3,0,0.6,0,0.7,0c1.3-0.2,2.5-0.6,3.5-1.3
	c1.1-0.7,1.9-1.7,2.4-2.8c0-0.6,0-1.4,0-2.4c-0.1-1.2-0.1-2-0.1-2.4c0.3-0.5,0.7-1.2,1.3-2.2c0.1-0.1,0.3-0.1,0.6,0
	c-0.1,1.7-0.2,3.3-0.3,5c-0.2,1.9-0.7,3.4-1.7,4.5c-1.4,1.8-3.3,2.8-5.5,3.1c-0.3,0-0.8,0-1.4,0c-0.7-0.1-1.1-0.1-1.4-0.1
	c-0.4,0-0.7,0-0.9,0.1c-1,0-1.7-0.2-2.3-0.8c-0.5-0.7-0.8-1.5-0.9-2.6c-0.1-0.9-0.2-1.8-0.3-2.7c0-2.7-0.1-6.7-0.1-12
	c0-0.5,0.2-1.2,0.6-2c0.5-1,0.8-1.6,0.8-2c0-0.1,0.1-0.1,0.1-0.2c0.1,0,0.3,0,0.4,0.1c-0.1,1.5-0.3,4.3-0.4,8.1
	C411.2,66.3,411.3,66.9,411.3,67.4 M416.5,72.9c-0.4-0.7-1-1.2-2-1.5c-0.2,0-0.5-0.1-0.7-0.1c-0.8,0-1.7,0.3-2.4,1
	c-0.2,0.3-0.3,0.5-0.2,0.8c0.1,1.2,0.8,2,2.1,2.4c0.9,0.2,1.6,0,2.2-0.6C416.4,74.2,416.7,73.5,416.5,72.9 M421.9,62.5v-0.1
	c0.9-0.9,1.8-1.8,2.9-2.7l0.2,0.1c1,1.1,1.9,1.9,2.6,2.6l0,0.3c-0.6,0.6-1.5,1.5-2.7,2.5c-0.2,0-0.4,0-0.6-0.1
	c-0.2-0.1-0.4-0.3-0.5-0.4c-0.4-0.3-0.7-0.6-1.1-1C422.3,63.2,422,62.9,421.9,62.5"/>
<path class="st0" d="M398,48c-0.6,0.7-1.4,1.5-2.4,2.4c-0.7,0.4-1.9,0.9-3.4,1.7c-0.8,0.4-1.7,0.8-2.5,1.1c-1,0.4-1.7,1-2.2,1.6
	c-0.2,0.2-0.3,0.5-0.4,0.9l-0.2,0.9v4.6c-0.1,0.7-0.5,1.7-1.1,2.9c-0.2,0.4-0.5,0.7-1,0.9c-0.3,0-0.7,0-1.3-0.2
	c-0.6-0.2-1-0.2-1.4-0.1c-1.1,0.3-1.8,0.8-2.1,1.7c-0.1,0.4,0,0.7,0.1,0.8c0.2,0.3,0.5,0.4,0.9,0.5c0.4,0.1,0.8,0.1,1.1,0.2
	c0.7,0.1,1.2,0.6,1.5,1.6c0.2,0.9,0.3,1.8,0.3,2.7c0,3.6-1.2,6.8-3.7,9.8c-1.6,2-3.5,2.9-5.5,2.9c-0.6,0-1.2-0.1-1.8-0.3
	c-1.6-0.8-2.7-2.1-3.3-4c-0.4-1.4-0.6-3.2-0.5-5.5c0-1.3,0.5-4,1.4-8c0-0.2,0.2-0.4,0.4-0.7c0.2,0,0.3,0.1,0.3,0.3
	c0,0.4,0,0.8-0.1,1.4c-0.1,0.7-0.2,1.1-0.3,1.3c-0.3,1.7-0.4,3.2-0.4,4.4c0,2.3,0.5,4.1,1.6,5.4c0.7,0.9,1.7,1.3,3,1.3
	c1.7,0,3.4-0.7,4.9-2c1.5-1.3,2.5-2.8,2.9-4.5c0.1-0.6,0.1-1-0.3-1.3c-0.1,0-0.8-0.2-2.1-0.6c-0.9-0.3-1.4-0.7-1.6-1.3
	c-0.2-0.7-0.4-1.4-0.4-2.1c0-1.3,0.4-2.8,1.3-4.5c0.5-1,1.3-1.5,2.4-1.7c0.2,0,0.6,0,1.2,0.3c0.5,0.2,0.9,0.2,1.3,0
	c0.3-0.1,0.6-0.5,0.9-1c0-0.2,0-1.2,0-3c0-1.2,0.1-2.1,0.4-2.8c0.4-1,0.7-1.6,1-2c0.4-0.7,0.9-1.3,1.5-1.7c2.1-1.1,3.7-1.9,4.7-2.3
	c2.2-1,3.8-2,4.9-2.9c0.1,0,0.2,0.1,0.3,0.1C398.3,47.3,398.2,47.6,398,48 M381.7,58.1c-1.9,1.4-3.2,2.8-4.1,4.2
	c0,0.1-0.2,0.1-0.4,0c-0.1-0.3,0.1-0.8,0.4-1.5c0.3-0.4,0.7-0.9,1.2-1.7c-0.4-0.3-0.6-0.5-0.8-0.6c-0.3-0.2-0.4-0.5-0.5-0.8
	c-0.1-0.4,0.1-0.9,0.4-1.4c0.3-0.4,0.7-0.8,1-1.2c0.5-0.7,1.1-1,1.8-1c0.1,0,0.3,0,0.5,0.1c0.2,0,0.4,0.2,0.5,0.4
	c0.1,0.3,0.1,0.6,0,0.7c-0.1,0.1-0.4,0-0.9-0.2c-0.5-0.2-0.9-0.1-1.1,0.3c-0.1,0.1-0.3,0.4-0.4,0.8c0.1,0.4,0.5,0.7,1.2,0.9
	c0.3,0.1,0.7-0.1,1.2-0.5c0.5-0.4,0.9-0.6,1.2-0.6C383.1,56.8,382.6,57.4,381.7,58.1 M394.9,46.3c-0.4,0.4-1.6,1-3.4,1.8
	c-0.9,0.4-1.9,0.9-2.8,1.3c-1.1,0.5-2,1-2.7,1.6c-0.2,0-0.4-0.1-0.4-0.2c0.1-0.4,0.6-1,1.5-2c1-0.6,2.4-1.4,4.4-2.3
	c2.1-0.9,3.6-1.7,4.5-2.2c0.1,0,0.2,0.1,0.3,0.3C396.2,44.9,395.7,45.5,394.9,46.3"/>
</svg>
