<?xml version="1.0" encoding="utf-8"?>
<!-- Generator: Adobe Illustrator 26.0.1, SVG Export Plug-In . SVG Version: 6.00 Build 0)  -->
<svg version="1.1" id="Layer_1" xmlns="http://www.w3.org/2000/svg" xmlns:xlink="http://www.w3.org/1999/xlink" x="0px" y="0px"
	 viewBox="0 0 297.78 99.23" style="enable-background:new 0 0 297.78 99.23;" xml:space="preserve">
<style type="text/css">
	.st0{fill:#010101;}
	.st1{fill:#93278D;}
</style>
<g>
	<path class="st0" d="M41.69,32.66c0.13,0,0.35,0.05,0.67,0.16c0.27,0.08,0.49,0.1,0.64,0.08c0.35-0.06,0.57-0.33,0.68-0.8
		c0-0.06,0-0.64,0-1.74c0-0.62,0.11-1.22,0.32-1.77c0.43-1,1.03-1.71,1.81-2.11c0.02-0.01,0.79-0.38,2.31-1.09
		c0.92-0.42,1.66-0.84,2.22-1.26c0.01-0.01,0.07-0.05,0.17-0.12c0.1-0.07,0.17-0.1,0.2-0.1c0.05,0,0.09,0.04,0.11,0.11
		c-0.03,0.17-0.13,0.37-0.32,0.61c-0.33,0.39-0.72,0.76-1.18,1.14c-0.47,0.31-1.16,0.66-2.08,1.05c-0.98,0.43-1.68,0.77-2.09,1.02
		c-0.52,0.32-0.78,0.87-0.78,1.66c0,0.13,0.01,0.39,0.04,0.8c0.03,0.33,0.04,0.6,0.03,0.79c0.01,0.82-0.2,1.62-0.64,2.39
		c-0.17,0.3-0.42,0.47-0.74,0.51c-0.17,0.01-0.41-0.03-0.72-0.12c-0.31-0.09-0.53-0.14-0.65-0.14c-0.2,0-0.37,0.05-0.51,0.15
		c-0.53,0.27-0.79,0.69-0.79,1.24c0.06,0.35,0.33,0.61,0.81,0.76c0.55,0.16,0.87,0.37,0.98,0.64c0.14,0.36,0.21,0.75,0.21,1.17
		c0,0.27-0.06,0.81-0.19,1.61c-0.69,2.66-2.02,4.45-4,5.35c-0.41,0.2-0.86,0.29-1.35,0.29c-0.75,0-1.36-0.22-1.83-0.66
		c-0.84-0.79-1.26-1.93-1.26-3.43c0-0.84,0.14-1.81,0.41-2.92c0.15-0.61,0.53-1.74,1.15-3.41c0.08-0.1,0.16-0.15,0.25-0.13
		c0.04,0.08,0.06,0.16,0.06,0.25c0-0.09-0.05,0.11-0.16,0.61c-0.25,0.72-0.5,1.79-0.76,3.22c-0.01,0.27-0.02,0.51-0.02,0.72
		c0,1.42,0.39,2.43,1.16,3.02c0.42,0.25,0.89,0.37,1.42,0.37c0.8,0,1.62-0.25,2.46-0.76c0.93-0.69,1.56-1.46,1.9-2.31
		c0.15-0.38,0.14-0.68-0.05-0.87c-0.14-0.11-0.45-0.25-0.93-0.41c-0.4-0.11-0.68-0.31-0.85-0.59c-0.17-0.28-0.25-0.62-0.25-1.04
		c0-0.21,0.09-0.77,0.27-1.69c0.25-0.66,0.46-1.14,0.64-1.42C40.82,32.93,41.23,32.66,41.69,32.66z M40.82,28.16
		c0.05,0.17,0.04,0.3-0.03,0.39c-0.05,0.03-0.11,0.04-0.17,0.04c-0.08,0-0.18-0.03-0.33-0.09c-0.14-0.06-0.25-0.08-0.32-0.08
		c-0.13,0-0.23,0.07-0.3,0.21c-0.08,0.08-0.17,0.22-0.26,0.43c0.04,0.26,0.28,0.43,0.72,0.51c0.11,0.03,0.36-0.08,0.74-0.33
		c0.32-0.21,0.51-0.31,0.58-0.29c0.06,0.3-0.18,0.65-0.72,1.05c-1,0.75-1.76,1.55-2.26,2.39c-0.03,0.08-0.09,0.08-0.2,0.02
		c-0.05-0.15,0.02-0.42,0.2-0.81c0.05-0.08,0.27-0.4,0.67-0.96c-0.25-0.18-0.39-0.28-0.43-0.3c-0.15-0.15-0.24-0.29-0.26-0.43
		c-0.04-0.25,0.04-0.5,0.25-0.76c0.18-0.21,0.37-0.42,0.57-0.64c0.28-0.39,0.61-0.58,0.98-0.58c0.09,0,0.19,0.01,0.3,0.04
		C40.66,27.98,40.75,28.05,40.82,28.16z M48.38,24.34l-2.67,1.22c-0.66,0.3-1.16,0.59-1.48,0.87c-0.1,0-0.16-0.02-0.17-0.06
		c0.05-0.21,0.29-0.56,0.73-1.05c0.34-0.26,0.77-0.51,1.29-0.76c0.45-0.2,0.89-0.4,1.33-0.6c0.4-0.18,0.8-0.37,1.2-0.56
		c0.47-0.22,0.86-0.44,1.18-0.66c0.03-0.02,0.06-0.02,0.11,0c0.06,0.03,0.09,0.06,0.09,0.11c-0.04,0.06-0.26,0.32-0.67,0.78
		C49.05,23.95,48.73,24.19,48.38,24.34z"/>
	<path class="st0" d="M63.57,24.62c0,0.14-0.05,0.28-0.14,0.41c-0.09,0.14-0.18,0.26-0.27,0.37c-0.29,0.47-0.73,0.91-1.33,1.33
		c-0.53,0.31-1.05,0.62-1.57,0.95c-0.44,0.23-0.87,0.46-1.32,0.68c-0.52,0.28-0.91,0.59-1.18,0.91c-0.16,0.44-0.22,1.01-0.17,1.7
		c0.04,0.5,0.06,0.9,0.06,1.18c0,0.84-0.15,1.52-0.45,2.04c-0.18,0.44-0.27,0.7-0.27,0.78c0,0.16,0.06,0.29,0.18,0.41
		c0.12,0.12,0.34,0.21,0.65,0.27c0.31,0.06,0.52,0.14,0.64,0.23c0.45,0.34,0.67,0.91,0.67,1.7c0-0.03-0.03,0.38-0.08,1.22
		c-0.25,1.3-0.67,2.45-1.26,3.45c-0.69,1.18-1.58,2.01-2.67,2.5c-0.38,0.17-0.8,0.26-1.25,0.26c-0.62,0-1.13-0.15-1.54-0.46
		c-1.16-0.88-1.67-2.46-1.55-4.75c0.04-0.74,0.17-1.59,0.41-2.56c0.23-0.84,0.46-1.68,0.67-2.53c0.09-0.09,0.18-0.11,0.26-0.06
		c0.04,0.12,0.01,0.44-0.09,0.98c-0.33,1.59-0.5,2.74-0.5,3.45c0,1.06,0.24,1.97,0.73,2.72c0.48,0.54,1.12,0.81,1.92,0.81
		c0.89,0,1.76-0.33,2.6-1c0.8-0.65,1.36-1.41,1.69-2.27c0.09-0.52,0.05-0.86-0.11-1.01c-0.38-0.11-0.76-0.22-1.15-0.32
		c-0.44-0.15-0.73-0.39-0.85-0.74c-0.08-0.3-0.12-0.62-0.12-0.98c0-0.85,0.22-1.75,0.66-2.69v-1.46c-0.01-0.21-0.02-0.41-0.02-0.6
		c0-1,0.23-1.91,0.68-2.74c0.33-0.62,0.93-1.17,1.78-1.65c0.73-0.4,1.44-0.8,2.15-1.18c0.35-0.22,0.7-0.44,1.03-0.64
		c0.41-0.27,0.74-0.54,0.98-0.8C63.53,24.46,63.57,24.5,63.57,24.62z"/>
	<path class="st0" d="M66.18,42.24c-0.23,0.05-0.62,0.12-1.15,0.22c-0.11,0-0.18-0.04-0.21-0.12c-0.01-0.11,0.08-0.22,0.27-0.32
		c0.49-0.32,0.98-0.63,1.48-0.94c0.58-0.37,1.05-0.72,1.41-1.04c0.38-0.43,0.74-1.06,1.07-1.88c0.25-0.7,0.49-1.4,0.74-2.09
		c0.04-0.11,0.12-0.16,0.26-0.16c0.11,0,0.17,0.05,0.17,0.16c0.03,0.25-0.08,0.81-0.31,1.69c-0.4,1.53-0.87,2.76-1.43,3.7
		c-0.21,0.35-0.55,0.56-1.03,0.64C67.02,42.14,66.6,42.19,66.18,42.24z"/>
	<path class="st0" d="M75.04,38.87c-0.09,0.63-0.42,1.47-1,2.52c-0.16,0.28-0.43,0.48-0.81,0.58c-0.32,0.08-0.65,0.17-0.99,0.26
		c-0.25,0.08-0.62,0.19-1.12,0.33c-0.12,0-0.19-0.04-0.22-0.11c0-0.09,0.08-0.19,0.26-0.29c0.52-0.31,1.04-0.61,1.55-0.91
		c0.57-0.37,1.05-0.74,1.45-1.11c0.12-0.16,0.16-0.37,0.11-0.64C74.19,39.3,74.1,39.17,74,39.1c-0.13,0.03-0.26,0.04-0.37,0.04
		c-0.47,0-0.82-0.16-1.05-0.48c-0.09-0.15-0.13-0.31-0.13-0.48c0-0.18,0.06-0.41,0.17-0.68c0.11-0.2,0.21-0.42,0.29-0.64
		c0.09-0.23,0.17-0.47,0.26-0.73c0.14-0.28,0.33-0.47,0.56-0.56c0.43-0.08,0.77,0.09,1.03,0.52c0.28,0.48,0.43,1.05,0.43,1.7
		C75.18,38.13,75.14,38.49,75.04,38.87z"/>
	<path class="st0" d="M80.08,38.87c-0.09,0.63-0.42,1.47-1,2.52c-0.16,0.28-0.43,0.48-0.81,0.58c-0.32,0.08-0.65,0.17-0.99,0.26
		c-0.25,0.08-0.62,0.19-1.12,0.33c-0.12,0-0.19-0.04-0.22-0.11c0-0.09,0.08-0.19,0.26-0.29c0.52-0.31,1.04-0.61,1.55-0.91
		c0.57-0.37,1.05-0.74,1.45-1.11c0.12-0.16,0.16-0.37,0.11-0.64c-0.08-0.19-0.16-0.32-0.27-0.39c-0.13,0.03-0.26,0.04-0.37,0.04
		c-0.47,0-0.82-0.16-1.05-0.48c-0.09-0.15-0.13-0.31-0.13-0.48c0-0.18,0.06-0.41,0.17-0.68c0.11-0.2,0.21-0.42,0.29-0.64
		c0.09-0.23,0.17-0.47,0.26-0.73c0.14-0.28,0.33-0.47,0.56-0.56c0.43-0.08,0.77,0.09,1.03,0.52c0.28,0.48,0.43,1.05,0.43,1.7
		C80.22,38.13,80.18,38.49,80.08,38.87z"/>
	<path class="st0" d="M83.63,32.23c-0.04,0.23-0.09,0.58-0.14,1.03c-0.05,0.58-0.08,1.38-0.09,2.41c0,1.17-0.01,1.99-0.04,2.46
		c-0.05,1-0.32,2.04-0.81,3.12c-0.09,0.2-0.18,0.3-0.26,0.3c-0.04,0-0.08-0.01-0.11-0.04c-0.09-0.05-0.12-0.17-0.09-0.35
		c0.1-0.35,0.18-1.22,0.25-2.61c-0.09-1.12-0.12-2.38-0.09-3.78c0.21-0.7,0.57-1.57,1.09-2.6C83.45,32.1,83.55,32.12,83.63,32.23z"
		/>
	<path class="st0" d="M98.52,26.98c-0.14,0.86-0.16,2.59-0.08,5.2c0.04,1.01,0.06,1.78,0.06,2.31c0,1.85-0.18,3.41-0.54,4.68
		c-0.45,1.62-1.19,2.98-2.2,4.09c-1.07,1.19-2.23,1.78-3.47,1.78c-0.42,0-0.82-0.08-1.22-0.24c-1.4-0.52-2.06-1.83-2-3.93
		c0.05-1.51,0.41-3.07,1.07-4.66c0.09-0.14,0.18-0.18,0.26-0.11c0.03,0.05,0.03,0.19,0,0.41c-0.37,1.23-0.56,2.25-0.56,3.07
		c0,0.5,0.06,0.97,0.19,1.41c0.25,0.83,0.78,1.34,1.59,1.53c0.3,0.06,0.6,0.09,0.91,0.09c0.93,0,1.9-0.3,2.9-0.89
		c1.38-1.14,2.11-2.32,2.19-3.55c0.03-0.44,0.04-0.91,0.04-1.41c0-0.7-0.03-1.67-0.09-2.9c-0.08-1.33-0.12-2.28-0.13-2.85
		c-0.01-1.07-0.02-1.6-0.02-1.59c0.02-0.62,0.17-1.12,0.43-1.51c0.18-0.53,0.36-0.91,0.56-1.15C98.46,26.77,98.49,26.84,98.52,26.98
		z"/>
	<path class="st0" d="M103.49,38.87c-0.09,0.63-0.42,1.47-1,2.52c-0.16,0.28-0.43,0.48-0.81,0.58c-0.32,0.08-0.65,0.17-0.99,0.26
		c-0.25,0.08-0.62,0.19-1.12,0.33c-0.12,0-0.19-0.04-0.22-0.11c0-0.09,0.08-0.19,0.26-0.29c0.52-0.31,1.04-0.61,1.55-0.91
		c0.57-0.37,1.05-0.74,1.45-1.11c0.12-0.16,0.16-0.37,0.11-0.64c-0.08-0.19-0.16-0.32-0.27-0.39c-0.13,0.03-0.26,0.04-0.37,0.04
		c-0.47,0-0.82-0.16-1.05-0.48c-0.09-0.15-0.13-0.31-0.13-0.48c0-0.18,0.06-0.41,0.17-0.68c0.11-0.2,0.21-0.42,0.29-0.64
		c0.09-0.23,0.17-0.47,0.26-0.73c0.14-0.28,0.33-0.47,0.56-0.56c0.43-0.08,0.77,0.09,1.03,0.52c0.28,0.48,0.43,1.05,0.43,1.7
		C103.63,38.13,103.58,38.49,103.49,38.87z"/>
	<path class="st0" d="M105.47,42.24c-0.23,0.05-0.62,0.12-1.15,0.22c-0.11,0-0.18-0.04-0.21-0.12c-0.01-0.11,0.08-0.22,0.27-0.32
		c0.49-0.32,0.98-0.63,1.48-0.94c0.58-0.37,1.05-0.72,1.41-1.04c0.38-0.43,0.74-1.06,1.07-1.88c0.25-0.7,0.49-1.4,0.74-2.09
		c0.04-0.11,0.12-0.16,0.26-0.16c0.11,0,0.17,0.05,0.17,0.16c0.03,0.25-0.08,0.81-0.31,1.69c-0.4,1.53-0.87,2.76-1.43,3.7
		c-0.21,0.35-0.55,0.56-1.03,0.64C106.3,42.14,105.88,42.19,105.47,42.24z"/>
	<path class="st0" d="M117.24,36.65v0.21l-0.32,0.16c-0.29,0.15-0.6,0.37-0.92,0.66c-0.36,0.33-0.59,0.64-0.7,0.94
		c-0.06,0.18-0.03,0.29,0.08,0.35c0.47-0.02,0.79,0.13,0.96,0.45c0.16,0.33,0.14,0.65-0.07,0.98c-0.25,0.38-0.62,0.5-1.13,0.37
		c-0.56-0.15-0.83-0.61-0.83-1.38c0-0.66,0.28-1.3,0.84-1.9c0.42-0.44,0.94-0.76,1.56-0.97c0.09-0.03,0.19-0.04,0.27-0.04
		C117.14,36.49,117.22,36.54,117.24,36.65z"/>
	<path class="st0" d="M120.88,42l-2.67,0.56c-0.13,0-0.2-0.05-0.2-0.15c0-0.06,0.14-0.19,0.41-0.39c1.41-0.68,2.63-1.63,3.66-2.85
		c0.3-0.48,0.6-1.13,0.9-1.96c0.38-1.1,0.63-1.78,0.75-2.04l0.27-0.1c0.1,0.15,0.12,0.32,0.06,0.51c-0.23,1.09-0.35,1.75-0.35,2
		c0,0.66,0.23,1.15,0.68,1.47c0.33,0.16,0.72,0.24,1.15,0.24c0.68,0,1.34-0.18,1.98-0.55c0.13-0.05,0.36-0.22,0.69-0.5
		c-0.05-0.1-0.22-0.42-0.5-0.97c-0.41-0.54-1.02-0.78-1.84-0.72c-0.06,0-0.1-0.04-0.12-0.11c0-0.25,0.2-0.48,0.61-0.7
		c0.76-0.43,1.52-0.64,2.26-0.64c0.15,0,0.29,0.01,0.44,0.02c0.68,0.08,1.1,0.36,1.24,0.84c0.01,0.25-0.07,0.53-0.24,0.83
		c-0.16,0.25-0.31,0.49-0.46,0.73c-0.06,0.09-0.16,0.25-0.27,0.45c0.12,0.03,0.23,0.04,0.33,0.04c0.42,0,0.85-0.14,1.3-0.43
		c0.61-0.38,0.92-1.01,0.92-1.9c0-0.17-0.02-0.53-0.07-1.07c-0.04-0.44-0.04-0.78-0.02-1.02c0.06-0.45,0.3-1.13,0.74-2.02
		c0.01-0.08,0.07-0.12,0.16-0.12c0.09,0,0.13,0.05,0.13,0.14c-0.06,0.33-0.1,0.74-0.11,1.22c-0.01,0.31-0.01,0.74,0,1.28
		c0,0.61,0,1.01,0,1.22c-0.09,0.76-0.34,1.46-0.74,2.07c-0.44,0.69-1,1.17-1.67,1.46c-0.16,0.06-0.33,0.09-0.53,0.09
		c-0.35,0-0.66-0.09-0.95-0.26h-0.06c-1.11,1.4-2.22,2.32-3.31,2.77c-0.26,0.11-0.53,0.16-0.81,0.16c-0.42,0-0.75-0.12-0.99-0.35
		c-0.47-0.44-0.69-1.16-0.65-2.14h-0.03c-0.19,0.53-0.53,1.31-1.02,2.33C121.79,41.69,121.44,41.88,120.88,42z M129.8,41.91
		l0.05-0.13c0.27-0.36,0.7-0.87,1.28-1.53l0.11,0.02c0.17,0.16,0.68,0.56,1.52,1.2l-0.04,0.16c-0.49,0.63-0.91,1.1-1.26,1.41
		c-0.13,0.04-0.38-0.07-0.74-0.31C130.5,42.56,130.2,42.29,129.8,41.91z"/>
	<path class="st0" d="M147.13,29.56l2.87-1.28c0.38-0.2,0.77-0.39,1.15-0.59c0.45-0.25,0.82-0.5,1.09-0.76c0.1,0,0.15,0.03,0.15,0.1
		c0.04,0.1-0.04,0.27-0.24,0.5c-0.61,0.73-1.37,1.33-2.28,1.8c-0.98,0.42-2.44,1.08-4.37,2c-0.48,0.26-0.78,0.59-0.91,0.99
		c-0.06,0.28-0.1,0.86-0.12,1.72c-0.04,0.74-0.11,1.31-0.21,1.7c-0.3,1.12-0.9,1.89-1.81,2.31c-0.44,0.2-0.87,0.38-1.3,0.56
		c-0.49,0.26-0.85,0.6-1.06,1.01c-0.03,0.1,0.08,0.23,0.32,0.39c0.48,0.18,1.13,0.28,1.96,0.32c1.31,0.08,1.98,0.12,2.04,0.12h3.79
		l3.52-0.12l2.42-0.15c0.09,0,0.15,0.03,0.16,0.09l-0.06,0.12c-1.07,0.89-2.41,1.42-4,1.59l-3.07,0.32l-3.53,0.22
		c-0.53,0.04-0.99,0.06-1.37,0.06c-1.28,0-2.32-0.19-3.11-0.56c-0.41-0.2-0.61-0.46-0.6-0.8c0.01-0.28,0.12-0.6,0.31-0.94
		c0.18-0.3,0.36-0.59,0.56-0.87c0.31-0.49,0.78-0.95,1.41-1.37c0.29-0.2,0.87-0.53,1.73-0.99c0.71-0.37,1.07-0.88,1.1-1.52
		c0-0.53,0.01-1.06,0.03-1.59c0.03-0.6,0.11-1.09,0.27-1.48c0.39-0.95,0.88-1.62,1.46-2.02C145.87,30.17,146.43,29.87,147.13,29.56z
		"/>
	<path class="st0" d="M171.29,42.11l-3.34,0.29c-1.74,0.15-3.13,0.23-4.17,0.23c-1.06,0-2.01-0.06-2.85-0.19
		c-1.06-0.16-1.66-0.55-1.8-1.18c0.03-0.31,0.16-0.65,0.41-1.03c0.2-0.31,0.41-0.62,0.62-0.95c0.38-0.47,0.89-0.89,1.53-1.26
		c0.58-0.3,1.16-0.59,1.74-0.87c0.35-0.18,0.53-0.53,0.53-1.05c0,0.06-0.03-0.29-0.1-1.07l-0.04-0.45c0.05-0.2,0.15-0.42,0.29-0.68
		c0.21-0.41,0.33-0.63,0.35-0.67c0.1-0.11,0.17-0.15,0.21-0.11c0,0.5,0.01,1.23,0.02,2.19c-0.1,1.02-0.35,1.76-0.75,2.21
		c-0.27,0.3-0.71,0.57-1.33,0.81c-0.73,0.3-1.21,0.52-1.43,0.66c-0.4,0.27-0.57,0.54-0.51,0.8c0.07,0.13,0.32,0.27,0.74,0.43
		l0.92,0.18l3.12,0.19h3.07l4.52-0.06l1.76-0.13c0.11-0.02,0.16,0.03,0.16,0.13c-0.15,0.16-0.38,0.34-0.7,0.52
		C173.43,41.65,172.44,42,171.29,42.11z M164.19,28.79l0.09,0.02c0.33,0.28,0.82,0.69,1.48,1.2c-0.25,0.47-0.7,0.99-1.35,1.57
		c-0.22-0.03-0.45-0.13-0.67-0.32c-0.23-0.19-0.44-0.37-0.63-0.55c-0.19-0.18-0.28-0.32-0.25-0.42
		C163.29,29.74,163.73,29.24,164.19,28.79z"/>
	<path class="st0" d="M175.9,42.24l0.26-0.17c0.67-0.3,1.68-0.75,3.02-1.36c0.4-0.26,0.63-0.5,0.68-0.71c0.06-0.26,0-0.5-0.2-0.72
		c-0.08-0.04-0.19-0.06-0.35-0.06c-0.16,0.01-0.27,0.01-0.32,0c-0.48-0.09-0.75-0.32-0.8-0.66c-0.06-0.31,0.01-0.7,0.21-1.17
		c0.26-0.61,0.4-0.98,0.43-1.13c0.16-0.25,0.24-0.38,0.26-0.39c0.11-0.14,0.24-0.22,0.37-0.25c0.32-0.08,0.61,0.03,0.85,0.35
		c0.31,0.38,0.48,0.99,0.5,1.82c0.17-0.01,0.4-0.14,0.7-0.39c0.84-0.69,1.54-1.49,2.09-2.39c0.31-0.36,0.57-0.54,0.79-0.54
		c0.06,0,0.13,0.01,0.2,0.04c0.07,0.03,0.16,0.11,0.26,0.26c0.1,0.15,0.2,0.22,0.29,0.22c0.04,0,0.08-0.02,0.14-0.05
		c0.06-0.03,0.13-0.18,0.23-0.44c0.08-0.2,0.21-0.27,0.41-0.21c0.05,0.06,0.11,0.17,0.19,0.32c0.01,0.11,0.02,0.21,0.02,0.29
		c0,0.59-0.22,1.07-0.67,1.44c-0.3,0.13-0.6,0.09-0.88-0.1c-0.05-0.02-0.13-0.11-0.25-0.27c-0.12-0.15-0.23-0.21-0.35-0.18
		c-0.22,0.16-0.47,0.4-0.74,0.74c-0.41,0.52-0.62,0.79-0.63,0.81c-0.43,0.48-0.74,0.81-0.94,0.99c-0.36,0.36-0.71,0.64-1.04,0.85
		c-0.16,0.61-0.49,1.39-0.99,2.34c-0.21,0.39-0.58,0.62-1.13,0.68c-0.45,0.05-0.91,0.09-1.37,0.13c-0.09,0-0.3,0.03-0.62,0.1
		c-0.24,0.05-0.43,0.06-0.58,0.04C175.89,42.48,175.88,42.39,175.9,42.24z M184.84,37.15l-0.04,0.17c-0.44,0.8-0.69,1.25-0.74,1.35
		c-0.23,0.52-0.35,1.01-0.35,1.48c0.01,0.08,0.06,0.19,0.14,0.33c0.09,0.06,0.18,0.09,0.26,0.09c0.04-0.04,0.12-0.17,0.24-0.41
		c0.08-0.2,0.18-0.29,0.31-0.29c0.05,0,0.11,0.02,0.17,0.06c0.1,0.15,0.15,0.33,0.15,0.55c0,0.33-0.09,0.64-0.28,0.93
		c-0.21,0.32-0.47,0.5-0.78,0.54c-0.28,0.04-0.56-0.12-0.81-0.48c-0.09-0.26-0.14-0.53-0.14-0.81c0-0.56,0.28-1.38,0.83-2.48
		c0.17-0.27,0.45-0.65,0.82-1.15C184.77,36.97,184.84,37.01,184.84,37.15z"/>
	<path class="st0" d="M200.25,26.98c-0.14,0.86-0.16,2.59-0.08,5.2c0.04,1.01,0.06,1.78,0.06,2.31c0,1.85-0.18,3.41-0.54,4.68
		c-0.45,1.62-1.19,2.98-2.2,4.09c-1.07,1.19-2.23,1.78-3.47,1.78c-0.42,0-0.82-0.08-1.22-0.24c-1.4-0.52-2.06-1.83-2-3.93
		c0.05-1.51,0.41-3.07,1.07-4.66c0.09-0.14,0.18-0.18,0.26-0.11c0.03,0.05,0.03,0.19,0,0.41c-0.37,1.23-0.56,2.25-0.56,3.07
		c0,0.5,0.06,0.97,0.19,1.41c0.25,0.83,0.78,1.34,1.59,1.53c0.3,0.06,0.6,0.09,0.91,0.09c0.93,0,1.9-0.3,2.9-0.89
		c1.38-1.14,2.11-2.32,2.19-3.55c0.03-0.44,0.04-0.91,0.04-1.41c0-0.7-0.03-1.67-0.09-2.9c-0.08-1.33-0.12-2.28-0.13-2.85
		c-0.01-1.07-0.02-1.6-0.02-1.59c0.02-0.62,0.17-1.12,0.43-1.51c0.18-0.53,0.36-0.91,0.56-1.15
		C200.18,26.77,200.22,26.84,200.25,26.98z"/>
	<path class="st0" d="M201.35,42.24l0.21-0.17c0.73-0.37,1.79-0.98,3.2-1.83c0.21-0.15,0.33-0.34,0.35-0.58
		c0-0.38-0.11-0.63-0.33-0.76c-0.56,0.13-0.98,0.06-1.26-0.2c-0.16-0.2-0.24-0.43-0.24-0.67c0-0.2,0.07-0.5,0.22-0.9
		s0.23-0.71,0.24-0.9c0.12-0.5,0.35-0.81,0.7-0.93c0.25-0.05,0.5,0.04,0.76,0.26c0.33,0.3,0.57,0.88,0.72,1.74
		c0.03,0.01,0.21-0.02,0.54-0.09c0.37-0.16,0.73-0.45,1.09-0.88c0.3-0.36,0.59-0.73,0.89-1.1c0.13-0.15,0.29-0.22,0.46-0.22
		c0.11,0,0.26,0.03,0.46,0.08c0.2,0.05,0.34,0.08,0.43,0.08c0.22,0,0.39-0.13,0.49-0.39c0.05-0.12,0.11-0.24,0.17-0.37
		s0.09-0.24,0.09-0.33c0-0.08,0-0.14-0.01-0.19c-0.01-0.05-0.02-0.11-0.05-0.16c-0.03-0.05-0.04-0.08-0.04-0.09
		c-0.1-0.08-0.24-0.1-0.43-0.08c-0.23,0.03-0.38,0.03-0.45,0.02c-0.25-0.06-0.41-0.1-0.5-0.14c-0.17-0.09-0.28-0.22-0.33-0.39
		c-0.06-0.13-0.09-0.26-0.09-0.41c0-0.18,0.06-0.39,0.17-0.65c0.15-0.35,0.23-0.57,0.26-0.64c0.14-0.92,0.47-1.37,0.99-1.37
		c0.4,0,0.73,0.26,0.97,0.77c0.24,0.51,0.37,1.08,0.37,1.71c0,0.5-0.08,1-0.23,1.48c-0.13,0.71-0.45,1.36-0.95,1.97
		c-0.27,0.34-0.62,0.48-1.03,0.41c-0.05,0-0.14-0.02-0.26-0.07c-0.12-0.04-0.22-0.07-0.28-0.07c-0.08,0-0.16,0.02-0.22,0.06
		c-0.25,0.39-0.49,0.78-0.74,1.16c-0.31,0.47-0.63,0.78-0.97,0.95l-0.81,0.29c-0.05,0.25-0.15,0.62-0.29,1.13
		c-0.18,0.53-0.3,0.87-0.35,1c-0.15,0.38-0.33,0.7-0.52,0.96c-0.26,0.18-0.62,0.31-1.09,0.39c-0.72,0.13-1.1,0.19-1.15,0.2
		c-0.05,0.01-0.23,0.06-0.55,0.15c-0.22,0.05-0.4,0.07-0.54,0.06C201.34,42.47,201.31,42.37,201.35,42.24z M206.5,40.48l1.17-1.44
		l0.16,0.02c0.49,0.45,0.94,0.8,1.37,1.03l0.04,0.06c-0.32,0.61-0.69,1.08-1.11,1.41c-0.06,0.07-0.16,0.09-0.3,0.07
		c-0.53-0.23-0.97-0.58-1.33-1.03V40.48z M207.23,27.58l1.13-1.38c0.06-0.04,0.12-0.05,0.17-0.04c0.21,0.18,0.68,0.55,1.42,1.09
		h0.06c0.21-0.26,0.52-0.62,0.93-1.09h0.12c0.35,0.3,0.8,0.66,1.37,1.09l-0.02,0.15c-0.25,0.35-0.61,0.8-1.09,1.33
		c-0.05,0.03-0.1,0.04-0.15,0.04c-0.08,0-0.17-0.03-0.27-0.09c-0.14-0.09-0.23-0.15-0.27-0.16c-0.38-0.27-0.69-0.54-0.94-0.81
		l-0.83,0.98c-0.08,0.05-0.15,0.08-0.23,0.08c-0.06,0-0.26-0.11-0.62-0.34c-0.35-0.23-0.62-0.46-0.79-0.71V27.58z"/>
	<path class="st0" d="M238.49,34.93c-0.06,1.01-0.44,1.81-1.15,2.41c-0.34,0.16-0.6,0.21-0.78,0.17c-0.05,0-0.12-0.03-0.21-0.08
		c-0.09-0.05-0.16-0.08-0.21-0.08c-0.22,0.32-0.38,0.54-0.46,0.64c-0.22,0.23-0.45,0.36-0.68,0.39c-0.12,0.03-0.27,0.01-0.45-0.05
		c-0.22-0.08-0.36-0.11-0.43-0.11c-0.11,0-0.2,0.03-0.27,0.09c-0.85,1.33-1.67,2.15-2.46,2.44c-0.2,0.08-0.4,0.12-0.61,0.12
		c-0.44,0-0.8-0.13-1.08-0.39c-0.11,0.11-0.29,0.26-0.55,0.45c-0.81,0.58-2.15,1.04-4.01,1.37c-1.12,0.2-2.24,0.29-3.38,0.29
		c-1,0-1.94-0.08-2.81-0.24c-0.88-0.16-1.38-0.54-1.5-1.15c-0.05-0.28-0.08-0.59-0.08-0.92c0-0.57,0.1-1.3,0.29-2.21
		c0.03-0.05,0.08-0.12,0.15-0.2c0.13-0.02,0.21,0.03,0.24,0.16c0,0.33,0,0.66,0,0.98c0.04,0.39,0.21,0.64,0.52,0.76
		c1.12,0.42,2.84,0.6,5.16,0.54c2.34-0.05,4.16-0.35,5.46-0.91c0.63-0.27,1.1-0.74,1.41-1.41c0.15-0.11,0.24-0.15,0.28-0.14
		c0.06,0.07,0.08,0.17,0.06,0.29c-0.04,0.13-0.23,0.61-0.59,1.42c0.17,0.05,0.35,0.08,0.55,0.08c0.41,0,0.85-0.12,1.32-0.37
		c0.31-0.21,0.63-0.56,0.97-1.07c0.38-0.56,0.67-0.92,0.88-1.11c0.16-0.1,0.37-0.11,0.62-0.04c0.32,0.11,0.51,0.16,0.57,0.16
		c0.15,0,0.29-0.07,0.41-0.22c0.15-0.3,0.42-0.7,0.81-1.2c0.06-0.01,0.13,0.02,0.21,0.09c-0.01,0.07-0.01,0.18,0,0.33
		c0.11,0.12,0.24,0.18,0.39,0.18c0.47-0.08,0.84-0.58,1.11-1.5c0.01-0.05,0.04-0.09,0.09-0.11c0.05-0.01,0.1-0.01,0.15,0
		C238.47,34.84,238.49,34.88,238.49,34.93z M225.51,37.91c-0.45-0.21-0.97-0.58-1.56-1.1l-0.98,1.12c-0.78-0.18-1.34-0.59-1.69-1.24
		c0.76-0.95,1.19-1.46,1.28-1.52c0.23,0.21,0.48,0.44,0.74,0.66c0.26,0.23,0.53,0.39,0.81,0.49l1.16-1.19
		c0.73,0.59,1.28,1.03,1.65,1.3C226.29,37.11,225.81,37.6,225.51,37.91z"/>
	<path class="st0" d="M241.31,32.23c-0.04,0.23-0.09,0.58-0.14,1.03c-0.05,0.58-0.08,1.38-0.09,2.41c0,1.17-0.01,1.99-0.04,2.46
		c-0.05,1-0.32,2.04-0.81,3.12c-0.09,0.2-0.18,0.3-0.26,0.3c-0.04,0-0.08-0.01-0.11-0.04c-0.09-0.05-0.12-0.17-0.09-0.35
		c0.1-0.35,0.18-1.22,0.25-2.61c-0.09-1.12-0.12-2.38-0.09-3.78c0.21-0.7,0.57-1.57,1.09-2.6C241.13,32.1,241.23,32.12,241.31,32.23
		z"/>
	<path class="st0" d="M247.95,39.1c-0.27,1.09-0.78,2.08-1.52,2.97c-0.15,0.19-0.38,0.3-0.68,0.33c-0.3,0.03-0.57,0.04-0.82,0.04
		c-0.25,0-0.6,0.02-1.06,0.06c-0.45,0.04-0.8,0.04-1.05,0.02c-0.05-0.04-0.06-0.13-0.04-0.27l0.26-0.13
		c0.37-0.21,0.96-0.44,1.76-0.69c0.8-0.25,1.39-0.48,1.75-0.67c0.24-0.13,0.38-0.34,0.43-0.63c0.04-0.27-0.04-0.47-0.24-0.61
		c-0.61,0-1.03-0.17-1.28-0.52c-0.06-0.14-0.09-0.27-0.09-0.41c0-0.22,0.09-0.5,0.27-0.83c0.23-0.42,0.37-0.69,0.41-0.81
		c0.13-0.28,0.22-0.47,0.27-0.56c0.14-0.22,0.31-0.36,0.5-0.43c0.33-0.12,0.59-0.05,0.78,0.21c0.27,0.26,0.45,0.7,0.52,1.32
		c0.04,0.03,0.15-0.01,0.33-0.09c0.4-0.27,1.35-1.12,2.83-2.56c-0.64-0.32-1.33-0.71-2.07-1.16c-0.26-0.16-0.49-0.2-0.7-0.11
		c-0.16,0.05-0.35,0.16-0.56,0.34c-0.31,0.3-0.48,0.47-0.52,0.49c-0.08,0-0.14-0.05-0.18-0.16c0.01-0.11,0.08-0.25,0.2-0.41
		c0.08-0.13,0.16-0.25,0.25-0.37c0.47-0.64,0.95-0.97,1.44-0.97c0.28,0,0.66,0.13,1.13,0.39c0.35,0.2,0.69,0.39,1.04,0.6
		c0.68,0.35,1.22,0.61,1.63,0.76c0.09,0.05,0.13,0.14,0.1,0.27l-0.1,0.11c-0.81,0.45-1.68,1.12-2.59,2
		C249.9,37.03,249.1,37.86,247.95,39.1z M249.58,29.85l1.37-1.45h0.12c0.28,0.31,0.74,0.72,1.37,1.24c0.06,0.04,0.06,0.12,0,0.24
		c-0.27,0.31-0.7,0.74-1.28,1.3c-0.06,0.03-0.24-0.02-0.52-0.12c-0.27-0.21-0.47-0.38-0.59-0.5c-0.22-0.21-0.38-0.41-0.48-0.6V29.85
		z"/>
	<path class="st0" d="M254.94,42.24c-0.23,0.05-0.62,0.12-1.15,0.22c-0.11,0-0.18-0.04-0.21-0.12c-0.01-0.11,0.08-0.22,0.27-0.32
		c0.49-0.32,0.98-0.63,1.48-0.94c0.58-0.37,1.05-0.72,1.41-1.04c0.38-0.43,0.74-1.06,1.07-1.88c0.25-0.7,0.49-1.4,0.74-2.09
		c0.04-0.11,0.12-0.16,0.26-0.16c0.11,0,0.17,0.05,0.17,0.16c0.03,0.25-0.08,0.81-0.31,1.69c-0.4,1.53-0.87,2.76-1.43,3.7
		c-0.21,0.35-0.55,0.56-1.03,0.64C255.78,42.14,255.36,42.19,254.94,42.24z"/>
	<path class="st0" d="M263.68,36.78c0.06,0.26,0.09,0.52,0.09,0.8c0,0.53-0.14,1.12-0.41,1.78c-0.03,0.05-0.3,0.61-0.81,1.69
		c-0.06,0.15-0.21,0.33-0.45,0.55c-0.61,0.19-1.54,0.43-2.79,0.73c-0.09,0.06-0.15,0.01-0.19-0.13c0.02-0.04,0.25-0.21,0.67-0.5
		c0.27-0.2,0.75-0.47,1.42-0.83c0.61-0.31,1.06-0.59,1.37-0.85c0.21-0.23,0.26-0.58,0.14-1.05c-0.15-0.56-0.59-1.01-1.34-1.37
		c-0.05-0.07-0.05-0.15,0-0.24c0.04-0.08,0.08-0.15,0.12-0.24c0.14-0.49,0.33-1.07,0.56-1.76c0.35,0.03,0.68,0.19,0.99,0.48
		C263.33,36.09,263.54,36.41,263.68,36.78z"/>
	<path class="st0" d="M37.62,65.53c0.46-0.13,0.67-0.07,0.63,0.17c-0.13,0.34-0.36,0.76-0.71,1.26c-0.09,0.12-0.18,0.2-0.27,0.25
		c-0.66,0.17-1.41,0.21-2.27,0.11c-0.95-0.15-1.94-0.45-2.97-0.89l-0.38-0.17c-0.09-0.24-0.04-0.4,0.16-0.48l1.84-0.01
		C35.46,65.8,36.78,65.72,37.62,65.53z"/>
	<path class="st0" d="M53.19,49.68c0.02,0.09,0,0.18-0.06,0.28c-0.07,0.1-0.12,0.19-0.18,0.28c-0.38,0.49-0.78,0.89-1.18,1.2
		c-0.5,0.37-1.2,0.77-2.07,1.18c-1.15,0.53-1.87,0.88-2.15,1.04c-0.65,0.38-0.96,0.8-0.93,1.27c-0.03,0.23-0.05,0.47-0.05,0.73
		c0,0.23,0.01,0.57,0.04,1.02s0.04,0.78,0.04,0.99c0,0.21-0.01,0.4-0.02,0.59c-0.11,0.46-0.28,0.94-0.51,1.45
		c-0.04,0.09-0.1,0.23-0.19,0.41c-0.06,0.3,0,0.54,0.19,0.7c0.07,0.04,0.38,0.14,0.92,0.29c0.36,0.1,0.6,0.27,0.73,0.52
		c0.22,0.43,0.33,0.98,0.33,1.65c0,0.57-0.08,1.18-0.23,1.85c-0.27,1.11-0.73,2.11-1.36,3c-0.72,1.04-1.58,1.75-2.58,2.14
		c-0.31,0.11-0.65,0.17-1.01,0.17c-0.68,0-1.26-0.2-1.72-0.6c-0.95-0.85-1.43-2.13-1.43-3.86c0-1.41,0.34-3.35,1.02-5.81
		c0.09-0.07,0.16-0.1,0.22-0.1c0.04,0.03,0.06,0.15,0.06,0.37c-0.38,1.89-0.57,3.17-0.57,3.86c0,0.47,0.04,0.91,0.12,1.32
		c0.23,1.21,0.74,1.96,1.52,2.25c0.33,0.13,0.67,0.19,1.01,0.19c0.85,0,1.73-0.35,2.64-1.04c0.72-0.55,1.28-1.33,1.69-2.35
		c0-0.04,0.01-0.15,0.02-0.33c0.01-0.13,0.01-0.24,0-0.33c-0.03-0.1-0.08-0.19-0.16-0.27c-0.11-0.08-0.46-0.18-1.04-0.32
		c-0.44-0.12-0.74-0.33-0.89-0.62c-0.18-0.35-0.27-0.78-0.27-1.3c0-0.38,0.08-0.81,0.23-1.3c0.15-0.42,0.29-0.84,0.44-1.27
		c-0.02-0.28-0.02-0.71,0-1.28c0-0.98,0-1.5,0-1.55c0.04-0.62,0.16-1.11,0.38-1.49c0.23-0.84,0.83-1.55,1.79-2.13
		c0.85-0.42,1.7-0.84,2.54-1.27c0.43-0.23,0.85-0.46,1.28-0.71c0.49-0.28,0.9-0.58,1.22-0.88C53.1,49.61,53.16,49.63,53.19,49.68z
		 M52.86,48.05c-0.33,0.61-0.9,1.14-1.7,1.61c-0.7,0.36-1.39,0.73-2.07,1.1c-0.56,0.3-0.94,0.51-1.16,0.64
		c-0.43,0.26-0.8,0.52-1.11,0.78c0.01,0-0.03-0.02-0.13-0.06c0.1-0.37,0.37-0.77,0.81-1.2c0.53-0.44,1.13-0.81,1.8-1.09
		c0.32-0.21,0.89-0.52,1.7-0.93c0.75-0.38,1.32-0.7,1.71-0.98C52.81,47.9,52.86,47.94,52.86,48.05z"/>
	<path class="st0" d="M70.31,66.08l-0.08,0.16c-1.06,0.75-1.99,1.18-2.79,1.3c-1.27,0.2-2.46,0.31-3.57,0.35l-3.45,0.13
		c-2.12,0.08-3.74-0.08-4.87-0.46c-0.65-0.23-0.97-0.58-0.96-1.05c0.12-0.48,0.55-1.18,1.29-2.09c0.33-0.43,0.79-0.81,1.37-1.15
		c0.5-0.27,1.02-0.54,1.53-0.81c0.32-0.18,0.61-0.47,0.85-0.89c0.2-0.37,0.38-0.75,0.56-1.13c0.04-0.06,0.1-0.09,0.18-0.09
		c0.06,0,0.1,0.03,0.11,0.09c-0.11,0.8-0.48,1.62-1.09,2.46c-0.27,0.3-0.83,0.6-1.67,0.9c-0.75,0.28-1.28,0.64-1.57,1.08
		c0,0.01-0.01,0.06-0.04,0.14c-0.01,0.06-0.01,0.11,0.02,0.13c0.44,0.4,1.28,0.65,2.5,0.75c1.23,0.1,2.4,0.16,3.51,0.16h4.02
		c1.7,0,3.02-0.01,3.94-0.04C70.22,66.02,70.28,66.04,70.31,66.08z M60.77,56.66c-0.18,0.32-0.47,0.81-0.87,1.48
		c-0.38-0.16-0.7-0.11-0.96,0.13c-0.18,0.18-0.42,0.51-0.74,0.97c-0.32,0.46-0.58,0.79-0.77,0.97c-0.32,0.3-0.68,0.45-1.08,0.46
		c-0.15,0-0.3-0.05-0.46-0.14c0.16-0.32,0.41-0.8,0.73-1.45c0.12,0,0.3-0.01,0.53-0.02c0.45-0.05,0.86-0.33,1.22-0.83
		c0.26-0.44,0.52-0.88,0.8-1.3c0.37-0.39,0.83-0.55,1.37-0.47C60.61,56.48,60.69,56.55,60.77,56.66z"/>
	<path class="st0" d="M73.98,65.61h0.06c0.23-0.53,0.47-1.06,0.7-1.59c0.3-0.61,0.62-1.09,0.97-1.45c0.26-0.2,0.55-0.29,0.87-0.29
		c0.26,0,0.6,0.08,1.01,0.23c0.52,0.2,0.85,0.31,1,0.33c0.22,0.04,0.55,0.1,0.98,0.18c0.06,0.04,0.09,0.08,0.09,0.13
		c0,0.04-0.01,0.08-0.04,0.11c-0.38,0.33-0.93,0.96-1.64,1.87c-0.72,0.91-1.3,1.55-1.74,1.92c-0.69,0.58-1.43,0.9-2.21,0.97
		c-0.62,0.05-1.11-0.21-1.46-0.8c-0.37-0.8-0.56-1.82-0.56-3.05c0-0.27,0.02-0.85,0.06-1.72c0.02-0.72,0.03-1.3,0.02-1.74
		c0.03-0.59,0.04-1.18,0.06-1.76c0.04-0.7,0.17-1.26,0.41-1.68c0.04-0.2,0.15-0.48,0.35-0.83c0.09,0,0.14,0.03,0.16,0.08
		c-0.25,2.01-0.33,4.13-0.24,6.33c0.04,0.79,0.09,1.32,0.15,1.59C73.16,65.04,73.49,65.43,73.98,65.61z M75.17,72.22
		c-0.62-0.2-1.19-0.62-1.69-1.26c0.77-0.89,1.2-1.37,1.28-1.45c0.52,0.44,1.07,0.86,1.65,1.26L75.17,72.22z M78.11,63.99v-0.06
		c-0.78-0.31-1.42-0.5-1.94-0.59c-0.27,0.04-0.51,0.21-0.7,0.51c-0.14,0.26-0.28,0.52-0.43,0.8c-0.2,0.37-0.33,0.72-0.39,1.04
		C75.86,65.68,77.01,65.11,78.11,63.99z"/>
	<path class="st0" d="M94.38,55.14l0.08,0.16c-0.12,0.44-0.32,1.09-0.59,1.95c-0.05,0.09-0.14,0.15-0.26,0.16
		c-0.21,0.01-0.33,0.03-0.35,0.04c-1.17,0.59-1.91,1.45-2.22,2.56c-0.09,0.31,0,0.58,0.26,0.8c0.1,0.06,0.39,0.17,0.87,0.31
		c0.37,0.1,0.62,0.27,0.76,0.52c0.18,0.32,0.28,0.74,0.28,1.26c0,0.17-0.01,0.39-0.04,0.66c-0.03,0.33-0.04,0.55-0.04,0.64
		c-0.22,1.22-0.63,2.33-1.22,3.31c-0.68,1.11-1.52,1.94-2.53,2.48c-0.45,0.23-0.95,0.35-1.51,0.35c-0.66,0-1.21-0.17-1.63-0.5
		c-0.97-0.78-1.46-2.03-1.48-3.77c-0.01-1.41,0.4-3.43,1.24-6.07l0.17-0.06c0.07,0.05,0.1,0.19,0.1,0.43
		c-0.45,1.84-0.68,3.16-0.68,3.96c0,1.67,0.41,2.76,1.22,3.28c0.4,0.26,0.85,0.39,1.35,0.39c0.87,0,1.8-0.36,2.79-1.07
		c0.93-0.85,1.45-1.69,1.55-2.52c0.05-0.4-0.05-0.67-0.29-0.81c-0.33-0.09-0.67-0.19-1-0.29c-0.38-0.14-0.62-0.36-0.74-0.67
		c-0.11-0.31-0.17-0.65-0.17-1.03c0-0.36,0.07-0.84,0.21-1.43c0.52-2.18,1.52-3.79,3.01-4.85c0.36-0.17,0.56-0.26,0.62-0.26
		C94.22,55.07,94.3,55.09,94.38,55.14z"/>
	<path class="st0" d="M98.84,62.21c0.06,0.26,0.09,0.52,0.09,0.8c0,0.53-0.14,1.12-0.41,1.78c-0.03,0.05-0.3,0.61-0.81,1.69
		c-0.06,0.14-0.21,0.33-0.45,0.55c-0.61,0.19-1.54,0.43-2.79,0.73c-0.09,0.06-0.15,0.01-0.19-0.13c0.02-0.04,0.25-0.21,0.67-0.5
		c0.27-0.2,0.75-0.47,1.42-0.83c0.61-0.31,1.06-0.59,1.37-0.85c0.21-0.23,0.26-0.58,0.14-1.05c-0.15-0.56-0.59-1.01-1.34-1.37
		c-0.05-0.07-0.05-0.15,0-0.24c0.04-0.08,0.08-0.15,0.12-0.24c0.14-0.49,0.33-1.07,0.56-1.76c0.35,0.03,0.68,0.19,0.99,0.48
		C98.49,61.52,98.69,61.84,98.84,62.21z"/>
	<path class="st0" d="M117.7,51.18l0.58-0.35c0.04-0.01,0.11,0.03,0.22,0.14c-0.06,0.06-0.25,0.31-0.57,0.74
		c-0.22,0.31-0.45,0.54-0.68,0.69l-3.22,1.48c-0.63,0.28-0.98,0.45-1.06,0.5c-0.38,0.25-0.61,0.55-0.7,0.92
		c-0.05,1.07-0.1,2.14-0.15,3.21c-0.06,1.31-0.23,2.36-0.51,3.14c-0.39,0.73-0.58,1.09-0.6,1.11c-0.28,0.39-0.61,0.6-0.99,0.64
		c-0.64,0.18-1.17,0.63-1.61,1.37c-0.34,0.64-0.68,1.29-1.01,1.94c-0.11,0.16-0.23,0.33-0.35,0.5c-0.14,0.21-0.31,0.34-0.5,0.39
		c-0.68,0.06-1.68,0.17-3,0.31c-0.06-0.03-0.13-0.08-0.22-0.16c0.05-0.13,0.17-0.23,0.35-0.32c0.23-0.12,0.37-0.19,0.41-0.22
		c0.71-0.35,1.42-0.69,2.13-1.03c0.79-0.45,1.36-1,1.72-1.67c0.28-0.52,0.57-1.04,0.86-1.57c0.33-0.59,0.75-0.99,1.24-1.2
		c0.59-0.13,0.99-0.38,1.2-0.75c0.11-0.3,0.17-0.7,0.17-1.22v-3.01c0-0.98,0.38-1.93,1.13-2.85c0.35-0.42,1.09-0.89,2.24-1.41
		L117.7,51.18z"/>
	<path class="st0" d="M120.63,61.64v0.27c-0.38,1.43-0.58,2.51-0.58,3.22c0,0.84,0.19,1.53,0.58,2.07c0.44,0.62,1.13,0.93,2.05,0.93
		c0.8,0,1.58-0.2,2.32-0.6c0.75-0.4,1.36-0.93,1.85-1.59c0.96-1.28,1.39-2.74,1.31-4.37c-0.08-1.36-0.19-3.45-0.33-6.28
		c-0.05-1.17,0.03-1.92,0.23-2.25c0.16-0.43,0.37-0.9,0.64-1.4c0.09-0.09,0.15-0.07,0.19,0.05c-0.16,1.29-0.2,2.8-0.11,4.54
		c0.15,0.41,0.4,0.69,0.78,0.83c0.03,0,0.07,0.01,0.15,0.03c0.07,0.02,0.13,0.02,0.17,0.01c0.05-0.01,0.09-0.05,0.11-0.11
		c0.06-0.22,0.13-0.45,0.2-0.7s0.19-0.45,0.35-0.61c0.27-0.04,0.54,0.07,0.81,0.31c0.2,0.18,0.3,0.44,0.3,0.76
		c0,0.21-0.06,0.52-0.19,0.95c-0.28,0.9-0.74,1.47-1.36,1.71c-0.11,0.05-0.23,0.08-0.36,0.08c-0.23,0-0.52-0.1-0.86-0.29
		c0.09,2.25-0.21,4.29-0.91,6.11c-0.52,1.36-1.2,2.51-2.05,3.46c-1.09,1.17-2.24,1.76-3.47,1.76c-1.02,0-1.81-0.39-2.37-1.18
		c-0.53-0.75-0.8-1.7-0.8-2.85c0-0.95,0.22-2.24,0.65-3.85c0.07-0.18,0.14-0.38,0.22-0.58c0.08-0.2,0.18-0.36,0.31-0.47
		C120.51,61.55,120.56,61.57,120.63,61.64z"/>
	<path class="st0" d="M133.56,64.89v-5.68c-0.01-0.09-0.02-0.19-0.02-0.29c0-0.28,0.07-0.62,0.2-1c0.13-0.32,0.25-0.64,0.37-0.97
		c0.03-0.13,0.09-0.29,0.21-0.47c0.09,0,0.18,0.04,0.26,0.12l-0.2,1.94v3.02c0,1.37,0.08,2.37,0.25,3.01
		c0.17,0.63,0.47,0.98,0.89,1.05c0.09,0.01,0.19,0.02,0.29,0.02c0.9,0,1.6-0.45,2.09-1.33c0.27-0.49,0.58-0.75,0.93-0.78
		c0.06-0.01,0.12-0.02,0.18-0.02c0.06,0,0.16,0.01,0.28,0.03c0.12,0.02,0.22,0.03,0.28,0.03c0.13,0,0.25-0.03,0.35-0.09
		c0.05-0.05,0.22-0.3,0.52-0.74c0.2-0.31,0.43-0.46,0.7-0.46c0.06,0,0.17,0.01,0.31,0.03c0.14,0.02,0.25,0.03,0.34,0.03
		c0.26,0,0.44-0.1,0.54-0.31c0.02-0.02,0.08-0.17,0.17-0.43c0.08-0.18,0.2-0.26,0.35-0.24c0.07,0.04,0.1,0.11,0.08,0.2
		c-0.03,0.2-0.05,0.27-0.05,0.21c-0.15,0.38-0.31,0.76-0.46,1.15c-0.23,0.43-0.56,0.62-0.97,0.59c-0.04,0-0.19-0.01-0.45-0.02
		c-0.18-0.01-0.33,0.02-0.43,0.09c-0.17,0.27-0.33,0.54-0.48,0.81c-0.23,0.31-0.49,0.46-0.78,0.46c-0.12,0.03-0.27,0.02-0.45-0.02
		c-0.22-0.06-0.36-0.09-0.42-0.09c-0.14,0-0.25,0.08-0.34,0.23c-0.4,0.93-0.68,1.53-0.83,1.79c-0.4,0.66-0.9,1.08-1.5,1.28
		c-0.47,0.1-0.87,0.04-1.2-0.19C133.91,67.15,133.56,66.18,133.56,64.89z M140.65,59.78c-0.46-0.22-0.98-0.59-1.57-1.11l-0.98,1.13
		c-0.78-0.2-1.34-0.61-1.68-1.24c0.75-0.97,1.17-1.48,1.27-1.53c0.24,0.22,0.49,0.44,0.75,0.66s0.52,0.39,0.79,0.51l1.18-1.2
		c0.73,0.59,1.28,1.03,1.65,1.3C141.41,58.97,140.94,59.47,140.65,59.78z M139.21,56.79c-0.63-0.21-1.19-0.63-1.69-1.26
		c0.76-0.88,1.19-1.36,1.28-1.46c0.5,0.45,1.05,0.88,1.65,1.27L139.21,56.79z"/>
	<path class="st0" d="M158.89,63.95c0.13-0.16,0.22-0.24,0.26-0.24c0.04,0,0.13,0.07,0.27,0.2c0.5,0.49,0.93,0.84,1.31,1.04
		c0.03,0,0.1-0.08,0.24-0.23c0.51-0.59,0.8-0.89,0.87-0.92c0.03,0,0.1,0.05,0.22,0.16c0.44,0.39,0.86,0.73,1.26,1.01
		c0.02,0.01,0.03,0.05,0.02,0.11c-0.01,0.07-0.12,0.23-0.33,0.48l-0.13,0.15c-0.42,0.51-0.66,0.79-0.72,0.82
		c-0.03,0.02-0.08,0.03-0.16,0.03c-0.2,0-0.49-0.17-0.88-0.52c-0.28-0.25-0.46-0.44-0.54-0.57c-0.04-0.07-0.07-0.11-0.1-0.11
		c-0.03,0-0.19,0.18-0.5,0.54c-0.31,0.35-0.48,0.54-0.51,0.56c-0.11,0.03-0.26-0.01-0.44-0.1c-0.3-0.16-0.58-0.39-0.86-0.68
		c-0.22-0.23-0.33-0.38-0.33-0.44C157.82,65.22,158.18,64.78,158.89,63.95z"/>
	<path class="st0" d="M166.2,54.16c0.06-0.05,0.1-0.07,0.12-0.06c0.08,0.04,0.15,0.13,0.21,0.25c0.1,0.3,0.39,0.79,0.88,1.47
		c0.15,0.21,0.22,0.35,0.22,0.42c-0.05,0.26-0.21,0.5-0.48,0.74c-0.32,0.33-0.57,0.53-0.74,0.62c-0.09,0.04-0.16,0.06-0.21,0.06
		c-0.11-0.01-0.33-0.11-0.68-0.28c-0.47-0.23-0.9-0.26-1.29-0.08c-0.39,0.23-0.76,0.59-1.11,1.06c-0.43,0.53-0.77,0.88-1.03,1.04
		c-0.78,0.45-1.41,0.37-1.88-0.25c-0.09-0.1-0.16-0.09-0.23,0.02c-0.25,0.38-0.56,0.71-0.93,0.98c-0.27,0.23-0.64,0.36-1.13,0.37
		c-0.25,0.01-0.39,0.03-0.43,0.08c-0.04,0.04-0.06,0.18-0.06,0.41c0,0.44-0.05,0.98-0.14,1.62c-0.3,1.96-1.02,3.7-2.16,5.24
		c-0.7,0.95-1.46,1.62-2.26,2.02c-0.58,0.28-1.2,0.44-1.85,0.46c-0.97,0.03-1.69-0.22-2.15-0.76c-0.71-0.68-1.06-1.7-1.06-3.07
		c0-0.4,0.03-0.8,0.09-1.22c0.14-0.97,0.46-2.09,0.95-3.37c0.09-0.26,0.17-0.41,0.22-0.46c0.08-0.06,0.14-0.07,0.2-0.01
		c0.03,0.1,0.01,0.29-0.08,0.57c-0.27,0.94-0.45,1.72-0.55,2.35c-0.13,0.9-0.03,1.7,0.29,2.4c0.28,0.59,0.82,0.97,1.6,1.15
		c1.1,0.16,2.08,0.03,2.96-0.4c0.74-0.35,1.39-0.9,1.97-1.64c1.08-1.35,1.5-3.22,1.27-5.6c-0.03-0.59,0.05-1.09,0.22-1.5
		c0.12-0.13,0.19-0.1,0.22,0.09l0.06,0.28c0.56,0.2,1.13,0.17,1.71-0.1c0.29-0.14,0.51-0.3,0.67-0.47c0.14-0.15,0.23-0.47,0.27-0.95
		c0.11-0.64,0.33-1.32,0.66-2.05c0.11-0.23,0.2-0.36,0.25-0.39c0.07-0.02,0.16-0.03,0.28-0.03l-0.02,0.31
		c-0.03,0.78,0.09,1.3,0.38,1.58c0.28,0.31,0.67,0.46,1.19,0.45c0.09-0.01,0.19-0.05,0.29-0.12c0.2-0.13,0.52-0.41,0.98-0.83
		c0.44-0.44,0.89-0.77,1.33-0.99c0.09-0.07,0.17-0.18,0.23-0.32C165.73,54.7,165.97,54.35,166.2,54.16z"/>
	<path class="st0" d="M182.17,51.88c0.04-0.12,0.13-0.17,0.27-0.14c0.02,0.17,0.01,0.37-0.03,0.62c-0.17,1.91-0.23,4.04-0.19,6.39
		c0.01,0.7,0.03,1.09,0.06,1.16c0.09,0.25,0.26,0.45,0.5,0.58c0.06,0.03,0.2,0.14,0.42,0.36l0.32,0.32v1.01l-0.66,0.66l-0.34-0.11
		l-0.21-0.27c-0.12-0.14-0.19-0.22-0.21-0.22s-0.03,0.06-0.05,0.18c-0.06,0.68-0.35,1.62-0.85,2.84c-0.46,1.16-1.03,2.14-1.71,2.95
		c-1.02,1.22-2.13,1.94-3.32,2.14c-0.38,0.05-0.79,0.05-1.21,0c-0.83-0.16-1.46-0.61-1.89-1.35c-0.52-0.85-0.71-1.99-0.57-3.4
		c0.11-0.86,0.36-1.91,0.76-3.14c0.15-0.48,0.27-0.79,0.37-0.92c0.05-0.07,0.09-0.1,0.13-0.1c0.1,0,0.15,0.04,0.15,0.1
		c0,0.08-0.1,0.52-0.29,1.34c-0.21,0.87-0.33,1.56-0.34,2.07c-0.06,1.86,0.75,2.87,2.42,3.03c0.33,0.04,0.68,0.03,1.05-0.03
		c0.79-0.12,1.52-0.43,2.19-0.93c1.23-0.92,2-2.23,2.32-3.91c0.15-0.98,0.19-2.14,0.12-3.47c-0.11-2.29-0.12-4.19-0.03-5.69
		c0.01-0.16,0.04-0.32,0.09-0.46C181.68,52.84,181.92,52.3,182.17,51.88z"/>
	<path class="st0" d="M185.68,53.33c-0.01,0.87-0.07,1.46-0.18,1.79c0.22-0.16,0.45-0.29,0.68-0.4c0.42-0.14,0.73-0.05,0.93,0.26
		c0.04,0.07,0.06,0.17,0.06,0.3v0.21l-0.13,0.26c-0.25,0.51-0.59,0.88-1.04,1.1c-0.09,0.05-0.22,0.08-0.39,0.09
		c-0.62,0.09-1.23,0.17-1.84,0.24c-0.11-0.04-0.14-0.11-0.08-0.2c0.04-0.08,0.16-0.16,0.35-0.25c0.21-0.1,0.37-0.28,0.49-0.54
		c0.36-0.43,0.52-1.08,0.47-1.95c0-0.56,0.03-0.92,0.1-1.09c0.04-0.11,0.14-0.28,0.3-0.49c0.13-0.18,0.22-0.27,0.27-0.27
		c0.04,0,0.05,0.02,0.05,0.05C185.7,52.58,185.68,52.88,185.68,53.33z M186.35,55.91c0.06-0.16,0.04-0.3-0.08-0.43
		c-0.37-0.05-0.67,0.08-0.9,0.39c-0.21,0.27-0.39,0.5-0.52,0.71l0.84-0.21C186.04,56.27,186.25,56.12,186.35,55.91z"/>
	<path class="st0" d="M186.22,59.13c0.3-0.25,0.62-0.27,0.96-0.07c0.22,0.07,0.41,0.17,0.56,0.3l0.16,0.17v0.39l-0.16,0.16
		c-0.11,0.11-0.16,0.18-0.15,0.19c0.02,0.04-0.06,0.08-0.23,0.1c-0.2-0.01-0.43-0.07-0.7-0.18c-0.23-0.09-0.38-0.13-0.44-0.13
		c-0.21,0.03-0.4,0.18-0.57,0.44l-0.27,0.42c-0.58,0.88-1.16,1.46-1.75,1.76c-0.23,0.12-0.47,0.19-0.71,0.21v-2.33
		c0.11,0.03,0.26,0.04,0.46,0.06c0.83,0.06,1.5-0.17,2.01-0.69C185.82,59.47,186.1,59.2,186.22,59.13z"/>
	<path class="st0" d="M188.11,65.33c0.21-0.21,0.34-0.32,0.38-0.32c0.04,0,0.12,0.06,0.24,0.17c0.32,0.3,0.68,0.61,1.1,0.93
		c0.1,0.08,0.16,0.14,0.19,0.18c0.01-0.01,0.2-0.21,0.55-0.6c0.35-0.39,0.54-0.59,0.57-0.59c0.03,0,0.13,0.07,0.28,0.21
		c0.3,0.27,0.65,0.56,1.06,0.89c0.09,0.08,0.14,0.13,0.15,0.15c0.02,0.07-0.08,0.22-0.3,0.46l-1.01,1.07
		c-0.33-0.06-0.63-0.23-0.92-0.5c-0.33-0.29-0.56-0.54-0.68-0.75c-0.01,0-0.04,0.03-0.09,0.09c-0.23,0.26-0.56,0.6-0.98,0.99
		c-0.04,0.03-0.1,0.03-0.16,0.02c-0.2-0.04-0.56-0.31-1.06-0.81c-0.23-0.23-0.34-0.36-0.34-0.41c0-0.04,0.01-0.06,0.02-0.06
		L188.11,65.33z M188.36,69.49c0.42-0.5,0.89-0.97,1.39-1.4c0.03,0.01,0.1,0.07,0.22,0.19c0.34,0.35,0.72,0.7,1.13,1.03
		c0.02,0.03,0.03,0.06,0.02,0.11c-0.01,0.06-0.14,0.21-0.39,0.44l-0.93,0.87c-0.16-0.04-0.33-0.11-0.5-0.23
		C188.97,70.24,188.65,69.9,188.36,69.49z"/>
	<path class="st0" d="M190.58,55.76c0.08-0.03,0.13-0.03,0.17,0.01c0.03,0.04,0.04,0.15,0.01,0.33c-0.06,0.53,0.03,0.93,0.29,1.21
		c0.11,0.13,0.28,0.24,0.5,0.35c0.17,0.09,0.34,0.23,0.51,0.42l0.32,0.32v0.98l-0.67,0.68l-0.26-0.02
		c-0.33-0.01-0.57-0.06-0.73-0.14c-0.35-0.21-0.64-0.51-0.87-0.89c-0.4,0.47-0.94,0.84-1.6,1.11c-0.25,0.09-0.47,0.13-0.65,0.12
		v-0.51c0-0.34,0.01-0.51,0.02-0.51c0.95-0.06,1.63-0.4,2.06-1l0.12-0.19l0.05-0.29c0.11-0.61,0.26-1.11,0.43-1.51
		C190.39,55.94,190.5,55.78,190.58,55.76z"/>
	<path class="st0" d="M192.8,63.36c0.13-0.16,0.22-0.24,0.26-0.24c0.04,0,0.13,0.07,0.27,0.2c0.5,0.49,0.93,0.84,1.31,1.04
		c0.03,0,0.1-0.08,0.24-0.23c0.51-0.59,0.8-0.89,0.87-0.92c0.03,0,0.1,0.05,0.22,0.16c0.44,0.39,0.86,0.73,1.26,1.01
		c0.02,0.01,0.03,0.05,0.02,0.11c-0.01,0.07-0.12,0.23-0.33,0.48l-0.13,0.15c-0.42,0.51-0.66,0.79-0.72,0.82
		c-0.03,0.02-0.08,0.03-0.16,0.03c-0.2,0-0.49-0.17-0.88-0.52c-0.28-0.25-0.46-0.44-0.54-0.57c-0.04-0.07-0.07-0.11-0.1-0.11
		c-0.03,0-0.19,0.18-0.5,0.54c-0.31,0.35-0.48,0.54-0.51,0.56c-0.11,0.03-0.26-0.01-0.44-0.1c-0.3-0.16-0.58-0.39-0.86-0.68
		c-0.22-0.23-0.33-0.38-0.33-0.44C191.73,64.63,192.09,64.19,192.8,63.36z"/>
	<path class="st0" d="M195.08,56.32c0.3-0.25,0.62-0.27,0.96-0.07c0.22,0.07,0.41,0.17,0.56,0.3l0.16,0.17v0.39l-0.16,0.16
		c-0.11,0.11-0.16,0.18-0.15,0.19c0.02,0.04-0.06,0.08-0.23,0.1c-0.2-0.01-0.43-0.07-0.7-0.18c-0.23-0.09-0.38-0.13-0.44-0.13
		c-0.21,0.03-0.4,0.18-0.57,0.44l-0.27,0.42c-0.58,0.88-1.16,1.46-1.75,1.76c-0.23,0.12-0.47,0.19-0.71,0.21v-2.33
		c0.11,0.03,0.26,0.04,0.46,0.06c0.83,0.06,1.5-0.17,2.01-0.69C194.67,56.66,194.95,56.39,195.08,56.32z"/>
	<path class="st0" d="M205.09,47.83c0.06-0.09,0.15-0.11,0.27-0.08c0.06,0.03,0.07,0.09,0.02,0.21c-0.12,0.27-0.42,0.59-0.91,0.98
		l-0.41,0.28c-0.42,0.27-1.05,0.55-1.9,0.84L200,50.81c-0.81,0.28-1.32,0.47-1.53,0.58c-0.3,0.13-0.5,0.31-0.59,0.53l-0.04,1.21
		c-0.02,1.21-0.08,2.06-0.2,2.58c-0.11,0.56-0.3,1.01-0.55,1.34c-0.15,0.2-0.37,0.32-0.66,0.38v-0.52c0-0.35,0.01-0.52,0.03-0.52
		c0.3-0.09,0.52-0.33,0.64-0.71l0.06-0.15l-0.01-0.68c-0.01-0.64,0.01-1.42,0.06-2.36l0.03-0.49l0.11-0.23
		c0.31-0.62,0.79-1.1,1.46-1.42c0.32-0.16,1.24-0.5,2.78-1.02c0.89-0.3,1.56-0.55,2.01-0.74C204.44,48.23,204.94,47.98,205.09,47.83
		z"/>
	<path class="st0" d="M213.06,54.99l2.87-1.28c0.38-0.2,0.77-0.39,1.15-0.59c0.45-0.25,0.82-0.5,1.09-0.76c0.1,0,0.15,0.04,0.15,0.1
		c0.04,0.1-0.04,0.27-0.24,0.5c-0.61,0.73-1.37,1.33-2.28,1.8c-0.98,0.42-2.44,1.08-4.37,2c-0.48,0.26-0.78,0.59-0.91,0.99
		c-0.06,0.28-0.1,0.86-0.12,1.72c-0.04,0.74-0.11,1.31-0.21,1.71c-0.3,1.12-0.9,1.89-1.81,2.31c-0.44,0.2-0.87,0.38-1.3,0.56
		c-0.49,0.26-0.85,0.6-1.06,1.01c-0.03,0.1,0.08,0.23,0.32,0.39c0.48,0.18,1.13,0.28,1.96,0.32c1.31,0.08,1.98,0.12,2.04,0.12h3.79
		l3.52-0.12l2.42-0.15c0.09,0,0.15,0.03,0.16,0.09l-0.06,0.12c-1.07,0.89-2.41,1.42-4,1.59l-3.07,0.32l-3.53,0.22
		c-0.53,0.04-0.99,0.06-1.37,0.06c-1.28,0-2.32-0.19-3.11-0.56c-0.41-0.2-0.61-0.46-0.6-0.79c0.01-0.28,0.12-0.6,0.31-0.94
		c0.18-0.3,0.36-0.59,0.56-0.87c0.31-0.49,0.78-0.95,1.41-1.37c0.29-0.2,0.87-0.53,1.73-0.99c0.71-0.37,1.07-0.88,1.1-1.52
		c0-0.53,0.01-1.06,0.03-1.59c0.03-0.6,0.11-1.09,0.27-1.48c0.39-0.95,0.88-1.62,1.46-2.02C211.8,55.6,212.36,55.3,213.06,54.99z"/>
	<path class="st0" d="M238.91,63.46c-0.17,0.8-0.55,1.54-1.14,2.23c-0.59,0.69-1.26,1.14-2.03,1.38c-2.07,0.63-4.11,0.95-6.13,0.95
		c-1.01,0-1.97-0.09-2.89-0.26c-0.78-0.14-1.23-0.5-1.36-1.1c-0.06-0.3-0.09-0.62-0.09-0.98c0-0.48,0.1-1.2,0.29-2.15
		c0.01-0.01,0.03-0.04,0.05-0.08c0.02-0.04,0.04-0.07,0.07-0.07c0.12,0,0.19,0.04,0.22,0.11c0,0.32,0.01,0.64,0.02,0.95
		c0.03,0.39,0.19,0.64,0.48,0.76c1.04,0.42,2.69,0.61,4.96,0.58c2.28-0.02,4.15-0.3,5.62-0.81c0.7-0.24,1.25-0.75,1.65-1.52
		c0.03-0.06,0.08-0.09,0.16-0.1C238.87,63.34,238.91,63.38,238.91,63.46z M231.66,70.72h-0.06c-0.16,0.2-0.31,0.4-0.44,0.6
		c-0.2,0.23-0.39,0.39-0.59,0.48c-0.25-0.03-0.51-0.14-0.79-0.35c-0.23-0.19-0.46-0.38-0.69-0.58c-0.07-0.1-0.07-0.19,0-0.25
		c0.1-0.15,0.45-0.59,1.04-1.32c0.11-0.03,0.23,0.02,0.35,0.14c0.13,0.12,0.21,0.18,0.25,0.19c0.14,0.1,0.36,0.23,0.65,0.39
		c0.12,0.17,0.27,0.26,0.45,0.26c0.22-0.35,0.51-0.73,0.88-1.13c0.32,0.23,0.82,0.55,1.51,0.97c0.04,0.11,0.02,0.19-0.04,0.24
		c-0.31,0.49-0.64,0.96-1,1.41C232.72,71.6,232.21,71.25,231.66,70.72z M231.56,72.13h0.19c0.17,0.08,0.39,0.22,0.67,0.45
		c0.28,0.22,0.49,0.37,0.64,0.45c0.06,0.11,0.08,0.17,0.07,0.2c-0.23,0.3-0.6,0.72-1.09,1.26c-0.12,0.08-0.21,0.08-0.27,0.02
		c-0.49-0.26-0.92-0.57-1.28-0.95c0.08-0.17,0.25-0.41,0.52-0.73S231.47,72.27,231.56,72.13z"/>
	<path class="st0" d="M245.8,53.18c-0.42,1.19-1.13,2.14-2.13,2.83c-0.51,0.35-1.02,0.53-1.55,0.53c-0.26,0-0.5-0.05-0.74-0.14
		c-0.04-0.01-0.11-0.06-0.22-0.14s-0.2-0.12-0.26-0.12c-0.04,0-0.08,0.01-0.13,0.04c-0.33,0.18-0.71,0.54-1.13,1.08
		c-0.05,0.04-0.14,0.07-0.27,0.07c-0.04-0.04-0.04-0.17,0-0.37c0.66-1.28,1.4-2.2,2.22-2.75c0.09-0.08,0.19-0.12,0.29-0.12
		c0.1,0,0.24,0.05,0.4,0.15c0.17,0.1,0.28,0.15,0.35,0.17c0.25,0.09,0.5,0.14,0.76,0.14c0.52,0,0.96-0.16,1.33-0.47
		c0.19-0.24,0.5-0.57,0.93-0.98C245.75,53,245.8,53.04,245.8,53.18z M242.8,57.66c-0.04,0.23-0.08,0.58-0.13,1.03
		c-0.06,0.58-0.09,1.38-0.1,2.41c0,1.17-0.01,1.99-0.04,2.46c-0.05,1-0.32,2.04-0.81,3.12c-0.09,0.2-0.17,0.3-0.25,0.3
		c-0.04,0-0.08-0.01-0.12-0.04c-0.09-0.05-0.12-0.17-0.09-0.35c0.1-0.35,0.19-1.22,0.26-2.61c-0.09-1.12-0.13-2.38-0.1-3.78
		c0.21-0.7,0.57-1.57,1.09-2.6C242.62,57.53,242.73,57.55,242.8,57.66z"/>
	<path class="st0" d="M256.37,55.73l-0.07-0.1c-0.58,0.03-1.01-0.14-1.28-0.5c-0.13-0.21-0.16-0.46-0.09-0.76
		c0.22-0.36,0.51-0.92,0.87-1.69c0.22-0.37,0.46-0.56,0.7-0.56c0.3-0.07,0.59,0.12,0.87,0.56c0.18,0.43,0.27,0.89,0.27,1.37
		c0,1.02-0.33,1.97-0.98,2.83l-0.63,0.66c0.28,0.15,0.68,0.42,1.18,0.81c0.18,0.39,0.16,0.75-0.04,1.09
		c-0.54,0.87-1.24,1.34-2.09,1.42c-0.85,0.08-1.62,0.34-2.32,0.79c-0.76,0.49-1.29,1.13-1.57,1.9c-0.14,0.57-0.2,1.68-0.16,3.33
		l0.1,4.52c0.01,0.4-0.09,0.99-0.31,1.75c-0.03,0.08-0.1,0.11-0.22,0.11c-0.04-0.06-0.06-0.17-0.06-0.31c0.01-0.16,0.01-0.26,0-0.28
		c0-0.33-0.01-0.83-0.02-1.51l-0.19-2.91c-0.07-0.92-0.1-1.64-0.1-2.16c0-1.65,0.28-3.02,0.85-4.1c0.56-1.08,1.57-2.01,3.02-2.8
		c0.54-1,1.25-1.92,2.11-2.76C256.41,56.12,256.46,55.88,256.37,55.73z M257.49,47.87h0.18c0.46,0.44,0.94,0.82,1.45,1.15
		c0.06,0.06,0.04,0.15-0.04,0.27c-0.19,0.26-0.39,0.51-0.6,0.76c-0.23,0.31-0.47,0.53-0.72,0.65c-0.4-0.14-0.9-0.5-1.48-1.09
		c-0.08-0.08-0.11-0.11-0.09-0.11c-0.22,0.27-0.57,0.65-1.05,1.15c-0.32-0.05-0.81-0.39-1.47-1.03c-0.11-0.16-0.14-0.27-0.09-0.3
		c0.28-0.37,0.7-0.86,1.26-1.5l0.15,0.02c0.47,0.44,0.95,0.82,1.46,1.15h0.11L257.49,47.87z"/>
	<path class="st0" d="M261.96,67.67c-0.23,0.05-0.62,0.12-1.15,0.22c-0.11,0-0.18-0.04-0.21-0.12c-0.01-0.11,0.08-0.22,0.27-0.32
		c0.49-0.32,0.98-0.63,1.48-0.94c0.58-0.37,1.05-0.72,1.41-1.04c0.38-0.43,0.74-1.06,1.07-1.88c0.25-0.7,0.49-1.4,0.74-2.09
		c0.04-0.11,0.12-0.16,0.26-0.16c0.11,0,0.17,0.05,0.17,0.16c0.03,0.25-0.08,0.81-0.31,1.69c-0.4,1.53-0.87,2.76-1.43,3.7
		c-0.21,0.35-0.55,0.56-1.03,0.64C262.79,67.57,262.37,67.62,261.96,67.67z"/>
</g>
</svg>
