<svg viewBox="0 0 213.86 55.97" xmlns="http://www.w3.org/2000/svg"><g fill="#92298d"><path d="m17.41 15.15c-.01.17-.07.34-.17.52s-.18.35-.26.52c-.43.55-.77.82-1.03.82-.25-.11-.65-.23-1.21-.35-.09.01-.17.06-.24.16-.07.09-.14.18-.21.26-.33.53-.65 1.06-.96 1.58-.41.59-.86 1-1.37 1.25-1.33.65-3.27 1.1-5.83 1.33-.61.05-1.2.08-1.76.08-1.09 0-2.08-.1-2.97-.31-.78-.17-1.22-.56-1.31-1.17-.05-.3-.08-.62-.08-.96 0-.61.1-1.38.29-2.31.03-.09.08-.15.16-.19.11-.01.19.04.25.17v.94c.01.37.15.63.41.8 1.15.45 2.65.67 4.5.67 2.62 0 4.74-.24 6.36-.73.98-.52 1.61-1.04 1.9-1.56.15-.23.3-.46.45-.68.21-.26.43-.4.66-.43.12 0 .33.05.64.15.3.1.52.16.66.16.29 0 .49-.16.61-.47.07-.11.19-.22.35-.35.11 0 .17.04.17.12zm-9.82-.81h.08c.39-.33.73-.5 1.02-.5s.5.13.68.39c.03.1.04.19.04.27 0 .29-.13.58-.39.88-.25.23-.49.47-.74.7-.25.12-.58.2-1 .24-.6.04-.93.06-.99.07-.06 0-.14.02-.26.03-.11.01-.2.02-.26.02-.08-.01-.15-.05-.2-.1.05-.19.22-.32.51-.39.7-.75 1.05-1.38 1.05-1.9.03-.13.05-.45.06-.98 0-.43.05-.75.16-.97.13-.17.3-.42.53-.75.07 0 .11.02.11.06-.05.17-.09.66-.13 1.47-.03.63-.12 1.11-.28 1.46zm.94.38c-.09-.04-.19-.06-.29-.06-.26 0-.53.14-.8.43-.19.25-.38.49-.59.74.53-.08.84-.13.92-.16.33-.1.58-.27.76-.52.11-.2.11-.34 0-.43zm6.28-3.01.04-.1 1.61-1.39.11.04c.5.63.94 1.12 1.33 1.49v.15c-.34.35-.85.78-1.54 1.27-.04.01-.08.02-.12.02-.11 0-.3-.12-.57-.37-.22-.23-.51-.6-.86-1.11z"/><path d="m22.12 17.43c-.09.67-.45 1.56-1.06 2.66-.17.3-.45.5-.86.61-.34.09-.69.18-1.05.27-.26.08-.65.2-1.18.35-.13 0-.2-.04-.23-.12 0-.1.09-.2.27-.31.55-.33 1.09-.65 1.64-.96.6-.39 1.11-.78 1.53-1.17.13-.17.17-.39.12-.68-.08-.2-.17-.34-.28-.41-.14.03-.27.04-.39.04-.49 0-.86-.17-1.11-.51-.09-.16-.14-.33-.14-.51 0-.19.06-.43.18-.72.11-.21.22-.44.31-.68s.18-.5.27-.77c.15-.3.34-.5.59-.59.45-.09.82.1 1.09.55.3.51.45 1.11.45 1.8 0 .37-.05.75-.15 1.15z"/><path d="m25.21 14.33.04.04c.3-.09.6-.13.9-.13.75 0 1.33.22 1.76.66.33.34.49.81.49 1.41 0 .31-.05.73-.16 1.25-.1.21-.27.71-.52 1.52-.19.63-.39 1.1-.61 1.43-.35.52-.87.78-1.54.78-.11 0-.21 0-.32-.02-.89-.21-1.4-1.12-1.54-2.73-.04-.49-.06-1.03-.06-1.63s.03-1.44.08-2.54c.05-1.16.08-2.01.08-2.54-.05-.4.03-.86.25-1.38.3-.77.46-1.21.49-1.31.01-.03.04-.05.08-.08.14 0 .21.05.21.15-.25 1.8-.36 3.56-.33 5.29.03-.01.06-.05.09-.11s.06-.09.07-.1c.03-.11.16-.34.39-.71.4-.61 1.37-1.63 2.91-3.05.09-.09.75-.63 1.97-1.64.79-.66 1.4-1.27 1.84-1.83.07-.16.22-.35.45-.57.04 0 .08.06.12.17l-.02.3c-.25.6-.58 1.21-1 1.83-.65.71-1.54 1.51-2.64 2.41-1.79 1.46-2.71 2.21-2.75 2.25-.39.35-.64.64-.73.89zm2.25 3.05c-.27-.44-.68-.72-1.23-.84-.73-.07-1.28.11-1.66.55-.11.25-.09.57.06.98.34.55.79.85 1.35.92.67 0 1.19-.36 1.54-1.08.04-.21.02-.38-.06-.53z"/><path d="m31.55 10.41c-.05.25-.1.61-.15 1.09-.05.61-.09 1.46-.1 2.54 0 1.24-.01 2.11-.04 2.6-.05 1.05-.34 2.16-.86 3.3-.1.21-.19.32-.27.32-.04 0-.08-.01-.12-.04-.09-.05-.13-.18-.1-.37.11-.37.19-1.29.26-2.76-.09-1.19-.13-2.52-.1-3.99.22-.74.6-1.66 1.15-2.75.13-.08.24-.06.33.06z"/><path d="m51.41 13.55c.14-.19.31-.19.51 0 .29.24.61.5.98.77.14.11.21.18.21.22 0 .05-.19.29-.58.7l-.64.67c-.23.01-.41-.03-.55-.12-.16-.11-.4-.33-.73-.66-.19-.19-.29-.31-.29-.34 0-.04.18-.25.55-.64.36-.39.54-.59.54-.6z"/><path d="m51.2 23.21c.14-.17.23-.25.27-.25s.14.07.29.21c.53.52.99.89 1.38 1.1.03 0 .11-.08.25-.24.54-.62.85-.94.92-.97.03 0 .1.06.23.17.46.41.9.77 1.33 1.07.02.01.03.05.02.12s-.13.24-.35.51l-.14.16c-.45.54-.7.83-.76.87-.03.02-.09.03-.17.03-.21 0-.52-.18-.93-.55-.29-.27-.48-.47-.57-.6-.04-.07-.08-.11-.11-.12-.03 0-.2.19-.53.57-.33.37-.51.57-.54.59-.12.03-.27-.01-.46-.11-.31-.17-.62-.41-.91-.72-.23-.25-.35-.4-.35-.46 0-.04.38-.5 1.13-1.38z"/><path d="m57.81 20.34c.15-.13.3-.13.45-.02.23.2.54.45.94.75.19.14.28.23.28.28 0 .04-.04.11-.13.22-.22.25-.5.56-.85.91l-.23.25c-.3 0-.54-.09-.72-.27-.34-.27-.62-.56-.83-.87 0-.05.14-.22.4-.5l.15-.15c.36-.39.54-.59.54-.6z"/><path d="m35.92 19.05c0-.63.04-1.17.09-1.61 0-.19.03-.33.1-.4.2-.15.31-.07.34.24.01.37.04.7.09.97.05.18.15.32.29.41.82.35 2.12.48 3.9.41l1.33-.02 1.44-.16c.97-.11 1.5-.18 1.6-.2.88-.19 1.59-.51 2.14-.97.38-.29.55-.84.52-1.64v-1.62c0-1.41.01-2.17.04-2.28.28-1.11.69-1.91 1.22-2.4.23-.21.59-.46 1.09-.74l.35-.18c.53-.29 1.23-.62 2.1-1 1.21-.53 2.18-1 2.89-1.4.35-.19.63-.38.85-.57.12-.1.22-.12.3-.06.03.01.03.05 0 .1-.33.63-.86 1.19-1.57 1.66-.45.3-.98.58-1.61.84-1.36.57-2.75 1.22-4.17 1.94-.19.12-.35.27-.49.46-.1.15-.15.31-.15.48-.05.63-.08 1.61-.07 2.93v1.79l.08.64c.05.52.13.88.25 1.09.37.59 1.02.88 1.97.87.32 0 .59-.06.8-.17.11-.05.29-.21.56-.48s.46-.43.57-.48c.19-.1.39-.12.61-.07l.33.1c.41.17.71.19.88.04.27-.34.44-.76.53-1.27.09-.86.28-1.61.57-2.25.08-.15.17-.24.26-.26.07 0 .11.02.13.08.02.43.07.83.14 1.19.25.67.81.97 1.67.89.13-.03.26-.11.39-.22.22-.23.4-.22.53.01.01.04.02.08 0 .13-.07.17-.27.49-.58.95-.63.87-1.18 1.35-1.67 1.43-.41.02-.81-.14-1.18-.49-.38.49-.76.82-1.13.99-.26.07-.55.04-.88-.07-.44-.17-.73-.16-.86.03-.09.1-.29.42-.61.97-.28.48-.55.82-.8 1.01l-.22.19c-.31.27-.75.35-1.3.26-.2-.03-.39-.09-.57-.18-.37-.2-.67-.6-.9-1.21-.14-.43-.25-.9-.32-1.43l-.13.26c-.5 1.01-1.41 1.7-2.73 2.08-.45.15-.91.27-1.4.36l-.65.08c-1.55.19-2.78.27-3.69.26-1.09 0-1.92-.11-2.46-.32-.63-.21-.91-.88-.83-1.99z"/><path d="m73.25 7.59 3.03-1.35c.41-.21.81-.41 1.21-.62.48-.26.86-.53 1.15-.8.11 0 .16.04.16.11.04.11-.04.28-.25.53-.64.77-1.44 1.41-2.41 1.9-1.04.44-2.58 1.14-4.61 2.11-.51.27-.83.62-.96 1.05-.06.3-.1.91-.13 1.82-.04.78-.11 1.38-.22 1.8-.31 1.19-.95 2-1.91 2.44-.46.21-.92.4-1.37.59-.52.27-.89.63-1.12 1.07-.03.11.08.24.34.41.51.19 1.2.3 2.07.34 1.38.09 2.1.13 2.15.13h4l3.72-.13 2.56-.16c.1 0 .16.03.17.1l-.06.13c-1.13.94-2.54 1.5-4.22 1.68l-3.24.34-3.73.23c-.56.04-1.04.06-1.45.06-1.35 0-2.45-.2-3.28-.59-.43-.21-.64-.49-.63-.84.01-.3.12-.63.33-.99.19-.31.38-.62.59-.92.33-.52.82-1 1.49-1.45.31-.21.92-.56 1.83-1.05.75-.39 1.13-.93 1.16-1.61 0-.56 0-1.12.03-1.68.03-.63.12-1.15.28-1.56.41-1 .93-1.71 1.54-2.13.45-.31 1.04-.63 1.78-.96z"/><path d="m98.94 16.55c-.18.85-.58 1.63-1.2 2.36-.62.72-1.33 1.21-2.14 1.46-2.19.67-4.35 1-6.48 1-1.07 0-2.09-.09-3.05-.27-.82-.15-1.3-.53-1.44-1.16-.07-.31-.1-.66-.1-1.03 0-.51.1-1.26.31-2.27.01-.01.03-.04.05-.09s.04-.07.07-.07c.13 0 .2.04.23.12 0 .34 0 .67.02 1 .03.41.2.68.51.8 1.09.44 2.84.64 5.25.61s4.39-.31 5.95-.86c.74-.25 1.32-.79 1.74-1.61.03-.06.08-.1.17-.11.08 0 .12.04.12.13zm-7.67 7.67h-.06c-.17.21-.32.42-.47.63-.21.25-.41.42-.62.51-.26-.03-.54-.15-.84-.37-.25-.2-.49-.4-.73-.61-.07-.11-.07-.2 0-.27.11-.16.47-.62 1.1-1.39.11-.03.24.02.38.15.14.12.22.19.26.21.15.11.38.24.69.41.13.18.28.27.47.27.23-.37.54-.77.93-1.19.34.25.87.59 1.59 1.02.04.11.03.2-.04.25-.33.52-.68 1.02-1.06 1.49-.48-.17-1.01-.54-1.6-1.1zm-.1 1.49h.2c.18.08.42.24.71.47s.52.39.68.47c.06.11.08.18.07.21-.25.31-.63.76-1.15 1.33-.13.08-.22.09-.29.02-.52-.27-.97-.61-1.35-1 .08-.18.26-.44.55-.77s.48-.58.58-.73z"/><path d="m105.41 5.68c-.45 1.26-1.2 2.26-2.25 2.99-.53.37-1.08.56-1.64.56-.27 0-.53-.05-.78-.15-.04-.01-.12-.06-.24-.15s-.21-.13-.28-.13c-.04 0-.09.01-.14.04-.35.19-.75.57-1.19 1.14-.05.05-.15.07-.29.07-.04-.05-.04-.18 0-.39.7-1.35 1.48-2.33 2.34-2.91.09-.09.2-.13.31-.13s.25.05.42.15c.18.1.3.16.37.18.26.1.53.15.8.15.55 0 1.01-.17 1.4-.5.2-.25.53-.6.98-1.04.12-.07.18-.03.18.12zm-3.17 4.73c-.04.25-.09.61-.14 1.09-.06.61-.1 1.46-.11 2.54 0 1.24-.01 2.11-.04 2.6-.05 1.05-.34 2.16-.86 3.3-.09.21-.18.32-.26.32-.05 0-.09-.01-.13-.04-.09-.05-.13-.18-.1-.37.11-.37.2-1.29.27-2.76-.1-1.19-.14-2.52-.11-3.99.22-.74.6-1.66 1.15-2.75.14-.08.25-.06.33.06z"/><path d="m114.54 11.38.04-3.46c0-.13 0-.36-.02-.7-.01-.34-.02-.61-.02-.8.01-.29.05-.53.12-.72.15-.34.33-.86.55-1.55.03-.09.09-.13.19-.13.09 0 .15.05.16.15-.23 1.8-.31 4.07-.23 6.81.09.53.17 1.06.25 1.59.17.61.49 1 .98 1.17.21.07.42.1.64.1.53 0 1.02-.17 1.47-.51.15-.11.49-.5 1.01-1.19.38-.5.78-.77 1.2-.82.45 0 .78.21.97.62 0 .12.03.18.08.18.69-1.88 1.82-3.3 3.38-4.26.03-.01.09-.05.21-.11s.19-.09.25-.09c.07 0 .13.03.18.08l-.06.25-.8 1.61c-1.84 1.17-3.03 3.06-3.56 5.67-.03.12-.1.14-.23.06-.09-.05-.14-.2-.14-.43 0-.13.03-.33.08-.6s.08-.48.08-.61c0-.31-.12-.56-.36-.74-.27-.11-.6-.05-.99.17-.21.21-.53.62-.95 1.23-.42.6-.76 1.03-1.04 1.28-.44.38-.92.59-1.44.63-.64-.07-1.1-.32-1.37-.76-.21-.31-.36-.68-.47-1.1h-.04c-.19.38-.39.76-.59 1.14-.26.44-.57.75-.93.92-.51.21-1.03.42-1.55.64-.59.27-1.02.62-1.29 1.04-.03.01-.04.1-.04.25.21.21.51.36.88.45.33.05.65.11.98.16l2.13.13 3.62.1h6.42l2.59-.14s.09 0 .14.06l-.02.14c-1.19.94-2.56 1.48-4.1 1.62l-2.07.18-3.33.19c-1.54.08-2.7.12-3.49.12-1.12 0-2.12-.06-2.99-.18-.65-.1-1.11-.2-1.37-.29-.48-.19-.81-.51-.98-.94-.01-.31.08-.65.29-1.01.2-.3.4-.6.61-.9.38-.57.92-1.08 1.62-1.53.34-.22.98-.57 1.92-1.05.74-.55 1.22-1.3 1.44-2.27v-1.82zm2.95 10.57c-.23.4-.46.8-.67 1.2s-.32.85-.32 1.37c0 .15.06.26.19.33.13 0 .19 0 .18.02.05-.03.14-.16.27-.39.09-.19.2-.28.32-.28.06 0 .12 0 .17.02.08.08.13.2.15.35.02.16.04.31.05.47-.09.34-.24.64-.45.9-.26.33-.53.49-.82.49-.26 0-.5-.16-.71-.49-.11-.21-.17-.45-.17-.74 0-.19.05-.55.15-1.07.26-.75.7-1.49 1.31-2.23.04-.09.11-.14.22-.14.13 0 .17.07.13.2zm2.64 1.95v-.1s.48-.59 1.37-1.66l.1.02c.52.49 1.06.9 1.62 1.23l.12-.02.97-1.19h.12c.34.27.86.68 1.57 1.23.05.05.05.11 0 .18-.04.05-.08.12-.12.19-.22.33-.6.76-1.14 1.31-.1.03-.35-.06-.74-.25-.27-.21-.62-.53-1.05-.98-.2.26-.52.64-.96 1.15-.08.05-.16.08-.24.08-.13 0-.27-.06-.44-.17-.23-.16-.35-.25-.38-.26-.19-.17-.46-.42-.8-.76zm4.36 2.44v.16c-.08.14-.46.6-1.15 1.39-.07.06-.13.09-.2.09-.09 0-.18-.04-.29-.13-.16-.09-.26-.15-.29-.16-.24-.19-.41-.33-.51-.41-.17-.17-.3-.32-.37-.47.26-.35.68-.89 1.25-1.6l.15.04c.51.51.98.87 1.41 1.09z"/><path d="m135.07 14.33h.16c.32.46.62.68.89.67.11.04.22.06.34.06.33 0 .66-.15.99-.45.09-.16.28-.34.55-.53.03.03.06.12.11.28s.13.26.25.31.25.07.4.07c.37 0 .88-.32 1.55-.96.07-.01.13 0 .17.04s.05.1.02.17c-.17.5-.49.93-.96 1.28s-.97.53-1.49.53c-.33 0-.63-.07-.9-.21-.23.17-.47.33-.7.48-.27.17-.53.26-.77.26-.1 0-.2-.01-.29-.04-.17-.07-.41-.18-.74-.35-.6.56-1.34 1.03-2.23 1.4-.31.12-.61.38-.88.79-.04.1-.05.2-.04.29.2.19.49.33.86.41.33.05.65.11.98.16l2.52.15 5.17.08c1.24.01 3.1-.08 5.58-.29.37-.07.93-.15 1.68-.26.04.05.03.16-.04.32-.26.22-.6.43-1.02.62-.36.16-.72.32-1.07.49-1.11.39-2.45.68-4.01.86-.65.07-2.06.16-4.24.29-1.67.09-2.78.14-3.32.14-1.47 0-2.71-.16-3.71-.47-.57-.26-.9-.57-.98-.94.12-.82.71-1.76 1.76-2.81.57-.57 1.35-1.09 2.34-1.55.16-.13.34-.34.55-.65s.38-.51.53-.62z"/><path d="m151.97 3.64c.14-.19.31-.19.51 0 .29.24.61.5.98.77.14.11.21.18.21.22 0 .05-.19.29-.58.7l-.64.67c-.23.01-.41-.03-.55-.12-.16-.11-.4-.33-.73-.66-.19-.19-.29-.31-.29-.34 0-.04.18-.25.55-.64.36-.39.54-.59.54-.6z"/><path d="m158.07 8.2c.14-.17.23-.25.27-.25s.14.07.29.21c.53.52.99.89 1.38 1.1.03 0 .11-.08.25-.24.54-.62.85-.94.92-.97.03 0 .1.06.23.17.46.41.9.77 1.33 1.07.02.01.03.05.02.12s-.13.24-.35.51l-.14.16c-.45.54-.7.83-.76.87-.03.02-.09.03-.17.03-.21 0-.52-.18-.93-.55-.29-.27-.48-.47-.57-.6-.04-.07-.08-.11-.11-.12-.03 0-.2.19-.53.57-.33.37-.51.57-.54.59-.12.03-.27-.01-.46-.11-.31-.17-.62-.41-.91-.72-.23-.25-.35-.4-.35-.46 0-.04.38-.5 1.13-1.38z"/><path d="m157.16 5.01c.51-.39.95-.75 1.31-1.09.09.01.11.08.08.2-.07.33-.32.79-.75 1.39-.13.17-.25.31-.37.4-.29.21-.73.47-1.3.79-1.08.61-1.8 1.06-2.15 1.35-.6.49-1.03.96-1.28 1.41 1.16-.31 2.35-.4 3.55-.25.11.04.16.14.16.29 0 .1-.02.19-.04.28-.09.34-.3.75-.63 1.23-.21.3-.57.74-1.08 1.31-.69.77-1.17 1.39-1.42 1.84-.54.99-.85 2.08-.93 3.27-.02.81.12 1.52.41 2.12.67 1.4 1.99 1.87 3.95 1.42 1.18-.32 2.14-.91 2.87-1.77.76-.86 1.36-1.96 1.8-3.29.08-.25.17-.39.26-.41.13-.03.17.09.14.36-.47 2.54-1.48 4.58-3.02 6.15-.51.49-1.02.87-1.55 1.13-1.07.52-2.2.62-3.39.29-1.19-.43-1.95-1.31-2.28-2.64-.29-1.17-.25-2.51.12-4.01.13-.53.29-1.04.49-1.53.62-1.53 1.57-3.02 2.84-4.48.13-.15.2-.24.2-.26 0-.04-.07-.07-.22-.09-1.02-.11-2.01.03-2.97.43-.12.05-.21.07-.28.06-.11-.02-.17-.07-.17-.14.13-.51.35-1.04.68-1.58.56-.92 1.31-1.73 2.25-2.44.35-.26.91-.63 1.7-1.1.57-.35.91-.56 1.02-.63z"/><path d="m164.3 20.99c-.25.05-.65.13-1.21.23-.12 0-.19-.04-.22-.13-.01-.12.08-.23.28-.34.52-.33 1.04-.66 1.56-.99.61-.39 1.11-.76 1.49-1.1.4-.45.78-1.12 1.13-1.99.26-.74.52-1.48.78-2.21.04-.11.13-.17.27-.17.12 0 .18.06.18.17.03.26-.08.85-.33 1.78-.42 1.61-.92 2.92-1.51 3.91-.22.37-.58.59-1.09.68-.45.05-.89.11-1.33.16z"/><path d="m169.57 15.02.1-3.58c.01-.31.11-.7.29-1.15.26-.65.4-1.02.43-1.11.03-.03.06-.03.1-.02.05.01.11.04.18.09-.27 2.09-.35 4.36-.24 6.81.07 1.62.49 2.52 1.27 2.68.08.03.16.04.24.04.3 0 .62-.23.97-.7.05-.13.13-.34.22-.63l.18-.19c.07.01.13.11.17.29.03.57-.18 1.38-.62 2.4-.37.64-.77 1.06-1.22 1.27-.13.04-.26.06-.39.06-.31 0-.59-.09-.83-.27s-.46-.55-.65-1.13c-.11-.35-.17-1.32-.2-2.91-.01-.34-.01-.99 0-1.95zm5.71-.59c-.48-.23-1.03-.62-1.66-1.17l-1.02 1.19c-.83-.19-1.43-.63-1.78-1.31.79-1.01 1.24-1.55 1.35-1.6.46.41 1 .82 1.62 1.23l1.25-1.29c.76.63 1.34 1.08 1.74 1.37-.69.73-1.19 1.25-1.5 1.58z"/><path d="m180.42 11.32 2.7-1.32h.27v9.4c0 .62.03 1.01.08 1.16s.16.27.33.36c.16.08.5.13 1.01.15v.3h-4.19v-.3c.53-.01.87-.06 1.02-.14s.26-.19.32-.32.09-.53.09-1.2v-6.01c0-.81-.03-1.33-.08-1.56-.04-.17-.11-.3-.21-.39-.1-.08-.22-.12-.36-.12-.21 0-.49.09-.85.26l-.12-.26z"/><path d="m187.23 15.91c0-1.27.19-2.36.57-3.28s.89-1.6 1.53-2.05c.49-.36.99-.54 1.52-.54.85 0 1.62.44 2.3 1.31.85 1.07 1.27 2.54 1.27 4.38 0 1.29-.19 2.38-.56 3.29-.37.9-.85 1.56-1.43 1.97s-1.13.61-1.67.61c-1.06 0-1.95-.63-2.65-1.88-.59-1.05-.89-2.33-.89-3.81zm1.6.2c0 1.54.19 2.79.57 3.75.31.81.78 1.22 1.39 1.22.3 0 .61-.13.93-.4.32-.26.56-.71.72-1.34.25-.94.38-2.27.38-3.97 0-1.27-.13-2.34-.39-3.18-.2-.63-.46-1.07-.77-1.33-.22-.18-.49-.27-.81-.27-.37 0-.7.17-.99.5-.39.45-.66 1.17-.81 2.14-.14.97-.21 1.93-.21 2.87z"/><path d="m206.51 8.37-.07-.11c-.61.03-1.06-.15-1.35-.53-.13-.22-.17-.49-.1-.8.23-.38.54-.97.92-1.78.23-.39.48-.59.74-.59.31-.07.62.12.92.59.19.45.29.94.29 1.45 0 1.08-.34 2.08-1.03 2.99l-.67.7c.3.15.72.44 1.25.86.19.41.17.8-.04 1.15-.57.91-1.31 1.41-2.21 1.5-.9.08-1.71.36-2.45.84-.81.52-1.36 1.19-1.66 2.01-.15.6-.21 1.78-.17 3.52l.11 4.77c.01.43-.1 1.04-.33 1.85-.03.08-.1.12-.23.12-.04-.07-.06-.18-.06-.33.01-.17.01-.27 0-.3 0-.35 0-.88-.02-1.6l-.2-3.07c-.07-.97-.11-1.74-.11-2.28 0-1.75.3-3.19.9-4.33s1.66-2.13 3.19-2.96c.57-1.05 1.32-2.02 2.23-2.91.19-.34.24-.59.15-.75zm1.18-8.31h.19c.49.47 1 .87 1.53 1.21.06.07.05.16-.04.29-.2.27-.41.54-.63.8-.25.33-.5.56-.76.69-.43-.15-.95-.53-1.56-1.15-.08-.08-.11-.12-.1-.12-.23.29-.6.69-1.11 1.21-.34-.05-.86-.42-1.55-1.09-.11-.17-.15-.28-.1-.32.3-.39.74-.91 1.33-1.58l.16.02c.49.47 1.01.87 1.54 1.21h.12l.98-1.17z"/><path d="m209.6 20.99c-.25.05-.65.13-1.21.23-.12 0-.19-.04-.22-.13-.01-.12.08-.23.28-.34.52-.33 1.04-.66 1.56-.99.61-.39 1.11-.76 1.49-1.1.4-.45.78-1.12 1.13-1.99.26-.74.52-1.48.78-2.21.04-.11.13-.17.27-.17.12 0 .18.06.18.17.03.26-.08.85-.33 1.78-.42 1.61-.92 2.92-1.51 3.91-.22.37-.58.59-1.09.68-.45.05-.89.11-1.33.16z"/><path d="m55.86 41.03c.13 0 .37.06.71.17.29.08.51.11.68.08.37-.07.61-.35.72-.84v-1.84c0-.66.11-1.28.34-1.87.45-1.06 1.09-1.81 1.91-2.23.03-.01.84-.4 2.44-1.15.97-.45 1.75-.89 2.35-1.33.01-.01.07-.06.17-.13s.18-.11.22-.11c.05 0 .09.04.12.12-.03.18-.14.39-.34.64-.35.41-.76.81-1.25 1.2-.49.33-1.23.7-2.2 1.11-1.04.45-1.77.81-2.21 1.08-.55.33-.82.92-.82 1.75 0 .13.01.41.04.84.03.35.04.63.03.83.01.87-.21 1.71-.68 2.52-.18.31-.44.49-.78.54-.18.01-.43-.03-.76-.12s-.56-.15-.69-.15c-.21 0-.39.05-.54.16-.56.29-.84.72-.84 1.31.06.37.35.64.86.8.58.17.92.39 1.03.68.15.38.22.79.22 1.23 0 .29-.07.85-.2 1.7-.73 2.82-2.14 4.7-4.22 5.66-.43.21-.91.31-1.43.31-.79 0-1.44-.23-1.93-.7-.89-.83-1.33-2.04-1.33-3.62 0-.89.14-1.92.43-3.08.15-.64.56-1.84 1.21-3.6.08-.11.17-.15.27-.14.04.08.06.17.06.26 0-.09-.06.12-.17.64-.26.76-.53 1.9-.8 3.4-.01.29-.02.54-.02.76 0 1.5.41 2.57 1.23 3.19.44.26.94.39 1.5.39.85 0 1.71-.27 2.6-.8.98-.73 1.65-1.54 2.01-2.44.16-.41.14-.71-.05-.92-.15-.12-.47-.26-.98-.43-.42-.12-.72-.33-.9-.62s-.27-.66-.27-1.1c0-.22.1-.81.29-1.78.26-.7.49-1.2.68-1.5.37-.57.8-.86 1.29-.86zm-.92-4.75c.05.18.04.32-.03.41-.05.03-.11.04-.18.04-.08 0-.2-.03-.35-.09s-.26-.09-.34-.09c-.13 0-.24.07-.32.22-.09.09-.18.24-.27.45.04.27.29.45.76.54.12.03.38-.09.78-.35.34-.22.54-.32.61-.31.07.31-.19.68-.76 1.11-1.06.79-1.86 1.63-2.39 2.52-.03.08-.1.09-.21.02-.05-.15.02-.44.21-.86.05-.09.29-.42.71-1.01-.26-.19-.41-.29-.45-.32-.16-.15-.25-.3-.28-.45-.04-.26.05-.53.26-.8.19-.22.39-.45.6-.68.3-.41.65-.61 1.04-.61.09 0 .2.01.32.04s.21.1.29.22zm7.99-4.03-2.82 1.29c-.7.31-1.22.62-1.56.92-.11 0-.17-.02-.18-.06.05-.22.31-.59.77-1.11.36-.27.81-.54 1.36-.8l1.41-.63c.42-.19.84-.39 1.27-.59.49-.23.91-.47 1.25-.7.03-.03.07-.03.12 0 .07.03.1.07.1.12-.04.07-.28.34-.71.82-.3.33-.64.57-1.01.74z"/><path d="m79.81 49.48-.08.17c-1.12.79-2.11 1.24-2.95 1.37-1.35.21-2.61.33-3.77.37l-3.64.14c-2.24.08-3.96-.08-5.15-.49-.69-.25-1.02-.62-1.01-1.11.13-.51.58-1.24 1.36-2.21.35-.45.84-.86 1.45-1.21.53-.29 1.07-.57 1.62-.86.34-.19.64-.5.9-.94.21-.39.4-.79.59-1.19.05-.07.11-.1.19-.1.07 0 .11.03.12.1-.12.85-.5 1.72-1.15 2.6-.29.31-.87.63-1.76.95-.79.3-1.35.68-1.66 1.14 0 .01-.01.06-.04.15-.01.07 0 .11.02.14.47.42 1.35.69 2.65.8s2.53.17 3.71.17h4.24c1.8 0 3.19-.01 4.16-.04.11 0 .17.02.2.06zm-10.08-9.96c-.19.34-.5.86-.92 1.56-.4-.17-.74-.12-1.01.14-.19.19-.45.54-.79 1.03s-.61.83-.82 1.03c-.34.31-.72.48-1.14.49-.15 0-.32-.05-.49-.15.17-.34.43-.85.77-1.53.13 0 .31 0 .56-.02.47-.05.9-.35 1.29-.88.27-.47.55-.92.84-1.37.39-.41.88-.58 1.45-.5.08.03.16.1.25.21z"/><path d="m82.88 48.98h.06c.25-.56.49-1.12.74-1.68.31-.64.65-1.15 1.02-1.53.27-.21.58-.31.92-.31.27 0 .63.08 1.07.24.55.21.9.32 1.06.35.23.04.58.1 1.03.19.07.04.1.09.1.14 0 .04-.01.08-.04.12-.4.35-.98 1.01-1.74 1.98-.76.96-1.37 1.64-1.84 2.03-.73.61-1.51.95-2.33 1.02-.65.05-1.17-.23-1.54-.84-.39-.85-.59-1.92-.59-3.22 0-.29.02-.89.06-1.82.03-.76.03-1.38.02-1.84.03-.63.05-1.25.06-1.86.04-.74.18-1.33.43-1.77.04-.21.16-.51.37-.88.09 0 .15.03.17.09-.26 2.13-.34 4.36-.25 6.7.04.83.09 1.4.16 1.68.18.63.53 1.04 1.05 1.23zm1.25 6.99c-.66-.21-1.25-.66-1.78-1.33.81-.94 1.26-1.45 1.35-1.53.55.46 1.13.9 1.74 1.33zm3.11-8.71v-.06c-.82-.33-1.5-.53-2.05-.62-.29.05-.53.23-.74.54-.15.27-.3.55-.45.84-.21.39-.35.76-.41 1.1 1.27-.01 2.49-.61 3.65-1.8z"/><path d="m102.8 37.91.08.17c-.13.46-.33 1.15-.62 2.06-.05.1-.15.16-.28.17-.22.01-.34.03-.37.04-1.24.63-2.02 1.53-2.34 2.7-.09.33 0 .61.27.84.11.07.41.18.92.33.39.11.65.29.8.55.19.34.29.78.29 1.33 0 .18-.01.41-.04.7-.03.35-.04.58-.04.68-.23 1.29-.66 2.46-1.29 3.5-.71 1.17-1.61 2.05-2.67 2.62-.47.25-1 .37-1.59.37-.7 0-1.27-.18-1.72-.53-1.03-.82-1.55-2.15-1.56-3.98-.01-1.49.42-3.63 1.31-6.42l.18-.06c.07.05.11.2.11.45-.48 1.94-.72 3.34-.72 4.18 0 1.76.43 2.92 1.29 3.46.42.27.9.41 1.43.41.92 0 1.91-.38 2.95-1.13.99-.9 1.53-1.79 1.64-2.66.05-.42-.05-.71-.31-.86-.35-.09-.71-.2-1.06-.31-.4-.15-.66-.38-.78-.71s-.18-.69-.18-1.09.07-.88.22-1.51c.55-2.3 1.61-4.01 3.18-5.12.38-.18.6-.27.65-.27.08 0 .16.03.25.08z"/><path d="m106.69 45.38c.07.27.1.55.1.84 0 .56-.14 1.19-.43 1.88-.03.05-.31.65-.86 1.78-.07.15-.22.35-.47.58-.64.2-1.62.46-2.95.77-.09.06-.16.01-.2-.14.03-.04.26-.22.71-.53.29-.21.79-.5 1.5-.88.64-.33 1.12-.63 1.45-.9.22-.25.27-.62.15-1.11-.15-.59-.63-1.07-1.42-1.45-.05-.07-.05-.16 0-.25.04-.08.08-.16.13-.25.15-.51.34-1.13.59-1.86.37.03.71.2 1.04.51.29.29.51.62.66 1.01z"/><path d="m124.99 33.73.61-.37s.12.04.23.15c-.06.07-.26.33-.6.78-.23.33-.47.57-.72.73l-3.4 1.56c-.67.3-1.04.48-1.12.53-.4.26-.65.58-.74.97-.05 1.13-.11 2.26-.16 3.39-.07 1.38-.25 2.49-.54 3.32-.41.77-.62 1.16-.63 1.17-.3.41-.65.63-1.04.68-.67.19-1.24.67-1.7 1.45-.36.68-.72 1.36-1.07 2.05-.12.17-.24.35-.37.53-.15.22-.32.36-.53.41-.71.07-1.77.18-3.17.33-.06-.03-.14-.08-.23-.17.05-.13.18-.25.37-.34.25-.13.39-.2.43-.23.75-.37 1.5-.73 2.25-1.09.83-.47 1.44-1.06 1.82-1.76.3-.55.6-1.1.91-1.66.35-.63.79-1.05 1.31-1.27.63-.13 1.05-.4 1.27-.79.12-.31.18-.74.18-1.29v-3.18c0-1.03.4-2.04 1.19-3.01.37-.45 1.16-.94 2.37-1.49z"/><path d="m134.05 42.88-.12-3.46c-.05-1.01-.05-1.92 0-2.71.2-.95.55-1.8 1.04-2.54.11 0 .16.06.16.17-.15 1.12-.22 2.2-.22 3.23 0 .71.03 1.37.1 1.97.15.65.41 1.09.78 1.31.18.07.37.1.57.1.39 0 .71-.1.97-.3 0-.06-.02-.14-.07-.23-.04-.09-.07-.16-.07-.2-.04-.22-.06-.43-.06-.64 0-.83.28-1.56.84-2.17.34-.37.72-.54 1.13-.51.39.03.7.23.92.61.08.23.12.47.12.7 0 .51-.3 1.3-.9 2.37 1.15 0 1.9-.35 2.25-1.06l.37-.74c.07-.04.15-.05.25-.04.17.31.4.48.69.51.61.05 1.09-.16 1.46-.65.17-1.3.44-2.27.8-2.89.05-.05.11-.08.16-.08.08.09.11.24.08.45-.04.23-.04.39 0 .47.14.45.22.71.25.78.13.27.33.44.59.49.13-.3.34-.73.64-1.29.07-.05.14-.08.22-.08.1 0 .29.07.58.2.29.18.43.45.43.82-.21 1.34-.71 2.26-1.52 2.75-.41.25-.84.25-1.31 0-.29-.15-.52-.41-.7-.78h-.06c-.65.65-1.25.98-1.8.98-.18 0-.34-.02-.5-.07s-.25-.14-.31-.28c-1.01 1.19-1.92 1.78-2.74 1.78-.21 0-.41-.03-.62-.08-.53.6-.91.99-1.14 1.17-.48.37-.97.52-1.46.45-.16-.03-.46-.18-.9-.45-.01.51-.07 1.28-.16 2.31-.35 2.16-1.04 4.07-2.09 5.73-1.38 2.17-3.08 3.21-5.1 3.11-.57-.03-1.1-.24-1.59-.63s-.83-.86-1.03-1.41c-.25-.65-.37-1.38-.37-2.19 0-1.12.29-2.55.86-4.28.05-.18.11-.36.18-.55.07-.18.18-.32.33-.42.07-.01.13.03.18.12-.15.52-.34 1.29-.57 2.32-.07.5-.1.95-.1 1.35 0 1.05.25 1.84.74 2.36.49.53 1.2.79 2.12.79.45 0 .88-.07 1.31-.2 1.09-.25 2.05-.88 2.88-1.89.81-.97 1.29-2.02 1.46-3.17.08-.6.09-1.74.04-3.42zm-.06-10.4.04-.12c.35-.43.78-.93 1.29-1.49l.12.06c.25.22.74.61 1.48 1.16l1.04-1.1h.12c.56.51 1.03.89 1.4 1.15.05.05.05.13 0 .24l-1.11 1.25c-.08.07-.16.1-.25.1-.11 0-.22-.04-.35-.13s-.26-.17-.38-.26c-.19-.15-.45-.4-.76-.75h-.04l-.94 1c-.06.03-.12.04-.17.04-.08 0-.29-.1-.63-.29-.21-.17-.49-.46-.86-.86zm5.31 5.83c-.09-.12-.25-.19-.47-.22-.45.07-.78.3-.98.71-.09.13-.13.26-.13.39 0 .21.09.47.27.8l.14.16c.06.09.12.13.19.13.48-.22.84-.57 1.08-1.05.13-.41.09-.71-.1-.92zm-.39-3.05 1.25-1.5h.12c.25.25.75.64 1.52 1.17.22-.26.56-.65 1.02-1.17l.13.04c.46.43.94.8 1.43 1.11.04.04.03.12-.04.23-.29.43-.66.88-1.11 1.33-.07.04-.13.06-.2.06-.03 0-.23-.1-.62-.29-.2-.16-.5-.43-.9-.82-.2.25-.55.6-1.04 1.07-.18 0-.37-.07-.58-.22-.2-.14-.4-.29-.6-.43-.09-.09-.19-.19-.29-.29s-.13-.2-.11-.31zm5.99-2.72 1.29-1.44.11.02c.54.55 1 .94 1.37 1.19.03.03.03.1 0 .23-.48.57-.9 1-1.25 1.29-.05.01-.1.02-.15.02-.13 0-.31-.1-.54-.29s-.52-.49-.89-.9z"/><path d="m163.75 47.22c.14-.17.23-.25.27-.25s.14.07.29.21c.53.52.99.89 1.38 1.1.03 0 .11-.08.25-.24.54-.62.85-.94.92-.97.03 0 .1.06.23.17.46.41.9.77 1.33 1.07.02.01.03.05.02.12s-.13.24-.35.51l-.14.16c-.45.54-.7.83-.76.87-.03.02-.09.03-.17.03-.21 0-.52-.18-.93-.55-.29-.27-.48-.47-.57-.6-.04-.07-.08-.11-.11-.12-.03 0-.2.19-.53.57-.33.37-.51.57-.54.59-.12.03-.27-.01-.46-.11-.31-.17-.62-.41-.91-.72-.23-.25-.35-.4-.35-.46 0-.04.38-.5 1.13-1.38z"/><path d="m171.46 36.87c.06-.05.1-.07.13-.06.09.05.16.13.22.26.11.32.42.84.93 1.55.16.23.24.37.23.44-.05.27-.22.53-.51.78-.34.35-.6.56-.78.65-.09.05-.17.07-.22.06-.11-.01-.35-.11-.72-.3-.5-.25-.95-.28-1.36-.09-.41.25-.8.62-1.17 1.12-.45.56-.82.93-1.09 1.1-.83.48-1.49.39-1.99-.26-.09-.11-.17-.1-.24.02-.27.41-.59.75-.98 1.03-.28.25-.68.38-1.19.39-.26 0-.41.03-.45.08s-.06.19-.06.43c0 .47-.05 1.04-.15 1.71-.32 2.07-1.08 3.91-2.28 5.54-.74 1-1.54 1.71-2.39 2.13-.61.3-1.26.46-1.95.48-1.03.03-1.79-.23-2.27-.8-.75-.72-1.12-1.8-1.12-3.24 0-.42.03-.85.1-1.29.15-1.02.49-2.21 1-3.56.1-.27.18-.44.23-.49.08-.07.15-.07.21 0 .03.11 0 .31-.08.6-.29.99-.48 1.82-.58 2.48-.13.95-.03 1.8.31 2.53.3.62.86 1.02 1.69 1.21 1.16.17 2.2.03 3.12-.42.78-.37 1.47-.95 2.08-1.73 1.14-1.43 1.59-3.4 1.34-5.92-.03-.63.05-1.15.23-1.58.13-.14.2-.11.23.1l.06.3c.59.21 1.2.18 1.81-.11.31-.15.54-.31.71-.5.15-.16.24-.49.29-1 .11-.67.35-1.4.7-2.16.12-.25.21-.38.27-.41.07-.02.17-.03.3-.03l-.02.33c-.03.82.1 1.38.4 1.67.29.33.71.48 1.26.47.09 0 .2-.05.31-.13.21-.14.55-.43 1.03-.88.47-.47.94-.82 1.41-1.05.1-.07.18-.19.24-.34.27-.53.52-.89.76-1.1z"/></g></svg>