<svg viewBox="0 0 262.69 68.88" xmlns="http://www.w3.org/2000/svg"><g fill="#fff"><path d="m15.06 61.09-1.63.2-3.49.25-3.44.09c-2.16.06-3.78-.05-4.85-.33s-1.62-.73-1.65-1.34c.06-.36.2-.71.42-1.06.22-.34.45-.67.68-.99.5-.72 1.29-1.38 2.36-1.98 1.46-.78 2.33-1.3 2.61-1.54.28-.25.55-.5.81-.77.32-.33.62-.49.9-.49.14 0 .28.04.43.11.06.03.14.12.25.27s.2.23.27.23c.04 0 .09-.02.15-.05.05-.04.14-.21.26-.53.1-.23.25-.32.47-.27l.21.25c.07.18.11.37.11.58 0 .5-.19.99-.56 1.48-.32.26-.62.33-.9.21-.04-.03-.24-.19-.58-.47-.26-.21-.48-.32-.68-.32-.13 0-.28.05-.43.15-.32.33-.81.77-1.48 1.33-.06.04-.68.31-1.87.79-.76.3-1.29.7-1.59 1.19 0 .2 0 .28-.02.25.46.4 1.16.66 2.09.77l2.09.22 5.99.09h4.49l1.62-.07c.09 0 .18.04.25.11-.01.08-.12.19-.32.34-1.02.76-2 1.19-2.95 1.31zm-8.36 1.74c-.03.19-.11.42-.24.69-.18.31-.29.53-.32.65-.33.77-.5 1.4-.5 1.9 0 .21.04.39.11.57.07.17.18.24.32.19.06-.04.15-.22.29-.54.1-.23.25-.32.47-.27.18.11.29.4.32.86-.03.78-.37 1.33-1.01 1.63-.32.09-.56.07-.73-.07-.39-.3-.58-.76-.58-1.37 0-.24.04-.64.13-1.2.18-1.02.67-2.07 1.46-3.16.17 0 .26.04.27.12z"/><path d="m33.51 47.66c0 .17.01-.71.04-2.63.27-.92.5-1.55.68-1.89.33-.66.79-1.17 1.4-1.52 1.53-.92 2.39-1.42 2.56-1.51 1.5-.78 2.63-1.5 3.4-2.18.07-.05.12 0 .17.15-.17.37-.32.65-.45.81-.44.66-1.11 1.27-2.02 1.82-.81.43-1.62.87-2.42 1.32-.42.23-.83.45-1.25.68-.5.3-.87.62-1.11.95-.16.89-.18 2.46-.04 4.73.04.72.44 1.21 1.18 1.48.59.21 1.03.21 1.33 0 .37-.39.63-.7.76-.92.17-.01.26.03.28.13.06.2.19.31.38.34.69.03 1.21-.26 1.55-.88.07-.15.15-.24.22-.29.11-.01.19 0 .23.07.01.04 0 .11-.02.19s-.04.13-.04.14c0 .07.04.1.13.1.33.03.61-.11.84-.41.18-.29.35-.56.52-.84.16-.06.27-.07.32-.04.07.06.08.14.02.24-.24.47-.48.94-.73 1.42-.33.51-.75.8-1.26.86-.19.01-.34.02-.45.02-.49.54-1.02.78-1.59.7l-.58-.11s-.23.33-.6.87c-.26.38-.49.66-.7.84-.37.31-.79.45-1.26.41-.4-.03-.71-.23-.92-.6-.15-.27-.25-.65-.31-1.13-.15.24-.3.48-.45.73-.2.27-.43.44-.7.5-.22.03-.51-.01-.88-.13-.4-.12-.69-.19-.85-.19-.18 0-.37.04-.55.12-.66.28-1.02.68-1.08 1.21.12.29.39.49.81.6.51.14.83.27.97.41.37.38.56.94.56 1.67 0 .31-.04.77-.13 1.35-.34 2.38-1.48 4.4-3.42 6.06-.9.78-1.89 1.17-2.96 1.17-.56 0-1.06-.14-1.51-.41-1.33-.79-2-2.22-2-4.3 0-.54.04-1.14.13-1.8.21-1.53.74-3.39 1.57-5.58.15-.09.26-.1.32-.02.03.21 0 .47-.09.77-.09.24-.17.48-.25.71-.45 1.9-.67 3.24-.67 4.04 0 .84.15 1.59.45 2.25.36.79 1 1.29 1.93 1.51.18.01.36.02.52.02 2.04 0 3.65-.92 4.82-2.77.3-.46.46-.91.47-1.33.05-.29-.04-.51-.29-.67-.4-.12-.79-.24-1.18-.36-.45-.16-.74-.43-.87-.8s-.2-.75-.2-1.14c0-.78.22-1.57.67-2.39.59-1.08 1.25-1.63 1.99-1.67.07-.01.15-.02.22-.02.15 0 .35.07.6.2.25.14.45.2.6.2.09 0 .18-.02.29-.07.37-.09.66-.41.86-.97.09-1.02.12-1.76.09-2.23zm-2.47-.07-1.2 1.35c-.09.04-.17.07-.24.07-.12 0-.25-.04-.39-.13s-.28-.18-.4-.27c-.22-.18-.51-.47-.88-.88-.22.26-.56.62-1.01 1.09-.09.07-.18.11-.26.11-.05 0-.28-.12-.68-.36-.18-.15-.36-.3-.56-.47-.2-.16-.33-.35-.38-.54.31-.39.82-.95 1.51-1.67l.12.05c.63.56 1.16 1 1.59 1.3.15-.16.4-.41.73-.76.1-.14.27-.3.5-.47.36.32.91.74 1.64 1.28l-.07.32z"/><path d="m47.55 58.81h.07c.27-.62.54-1.23.81-1.85.34-.7.72-1.26 1.12-1.68.3-.23.64-.34 1.01-.34.3 0 .69.09 1.18.26.6.23.99.36 1.17.38.26.04.63.11 1.13.21.07.04.11.1.11.15 0 .04-.01.09-.04.13-.44.39-1.08 1.11-1.91 2.17s-1.5 1.8-2.02 2.23c-.81.67-1.66 1.05-2.56 1.12-.72.06-1.28-.25-1.69-.92-.43-.93-.65-2.11-.65-3.54 0-.32.02-.98.07-2 .03-.84.04-1.51.02-2.02.03-.69.05-1.37.07-2.04.04-.81.2-1.46.47-1.95.04-.23.18-.56.41-.97.1 0 .17.03.19.1-.29 2.34-.38 4.79-.28 7.35.04.92.1 1.53.18 1.85.2.69.58 1.14 1.15 1.35zm1.37 7.67c-.73-.23-1.38-.72-1.96-1.46.89-1.03 1.39-1.59 1.48-1.68.6.51 1.24.99 1.91 1.46l-1.44 1.68zm3.42-9.56v-.07c-.9-.36-1.65-.59-2.25-.68-.32.05-.59.25-.81.59-.16.3-.33.61-.5.92-.23.43-.38.84-.45 1.21 1.4-.01 2.74-.67 4.01-1.98z"/><path d="m66.33 52.07v.43l-.21.2c-.27.24-.41.58-.41 1 .15.22.45.38.92.47.4.1.66.21.78.35.35.35.52.92.52 1.71-.06 1.52-.39 2.85-.99 3.99-.57 1.14-1.36 2.11-2.38 2.92-.87.7-1.81 1.04-2.81 1.04-.97-.03-1.72-.34-2.23-.95-.86-.99-1.27-2.36-1.23-4.1.04-1.32.33-2.85.87-4.58.32-1.08.51-1.65.57-1.7.13-.1.23-.07.29.08.03.1.01.27-.04.52-.34 1.41-.58 2.6-.7 3.55-.17 1.39.06 2.55.68 3.49.22.33.52.59.91.79.73.37 1.61.38 2.65.04 1.48-.5 2.57-1.45 3.27-2.86.19-.4.29-.73.29-1v-.25c-.21-.2-.54-.35-.99-.46-.85-.14-1.34-.59-1.47-1.35-.08-.47-.06-1.06.07-1.78.22-.69.63-1.32 1.24-1.89.02 0 .1.07.22.18l.2.17z"/><path d="m69.65 61.47c.16-.14.33-.15.49-.02.25.22.59.49 1.03.82.21.15.31.26.31.31 0 .04-.04.12-.14.24-.24.28-.55.61-.93 1l-.25.27c-.33 0-.59-.1-.79-.3-.37-.29-.68-.61-.91-.96 0-.06.15-.24.44-.55l.17-.16c.4-.43.59-.65.59-.66z"/><path d="m71.09 46.58v.44l-.4.38-2.35.49-.62.44c-.42.29-.62.43-.62.44.77-.04 1.8-.04 3.08-.02.61.03.96.08 1.05.14.1.27.01.56-.27.88-.55.81-1.33 1.47-2.33 1.99-.73.43-1.17.69-1.3.79-.12.08-.5.17-1.15.27l-.28.04v-1.21l.26-.09c1.3-.37 2.4-.81 3.31-1.3.16-.13.16-.22 0-.25-.95-.18-2.1-.21-3.45-.09-.26.02-.41.02-.43 0-.06-.08.03-.32.27-.73.95-1.55 2.53-2.56 4.73-3.03.11 0 .21.07.3.2l.19.2z"/><path d="m71.47 52.04c.15-.18.25-.27.3-.27s.15.08.32.23c.58.57 1.08.97 1.52 1.21.03 0 .12-.09.28-.26.59-.68.93-1.04 1.01-1.07.03 0 .11.06.25.19.51.45.99.85 1.46 1.18.02.01.03.06.02.13-.01.08-.14.27-.38.56l-.15.18c-.49.59-.77.91-.83.96-.04.02-.1.03-.19.03-.23 0-.57-.2-1.02-.6-.32-.29-.53-.51-.63-.66-.04-.08-.08-.12-.12-.13-.03 0-.22.21-.58.63-.36.41-.56.63-.59.65-.13.03-.3-.01-.51-.12-.34-.19-.68-.45-1-.79-.26-.27-.38-.44-.38-.51 0-.04.41-.55 1.24-1.52z"/><path d="m77.62 47.07v.43l-.27.27c-.45.42-1.01.65-1.68.68-.87-.21-1.55-.71-2.02-1.5-.08-.12-.21-.21-.4-.24-.7.01-1.45.2-2.24.55-.14.07-.22.1-.23.1-.02 0-.02-.2-.02-.59v-.59l.24-.12c.67-.34 1.44-.57 2.32-.68.25-.01.58-.01.98.01.24.02.44.09.59.2.27.18.57.47.9.86.2.23.37.39.52.46.21.09.47.04.78-.15.11-.07.17-.09.19-.08l.19.22.17.18z"/><path d="m80.56 40.76c.57.06.96.32 1.15.79.07.05.15 0 .23-.17.5-.75 1.07-1.34 1.7-1.77 0 0 .08.07.22.21l.21.22v.44l-.21.2c-.37.29-.72.52-1.04.7 0 0 .08.03.23.05.81.16 1.3.35 1.45.57.04.04.05.12.04.24 0 .34-.18.91-.53 1.68-.45.81-1.13 1.48-2.02 2-.5.21-1.16.36-1.99.44l-.73.11-.2.17c-.38.31-.87.62-1.46.95l-.38.21v-1.36c.41-.65.8-1.59 1.15-2.8.29-.98.48-1.55.56-1.71.15-.3.37-.58.67-.82.29-.23.6-.35.93-.34zm.45 2.44c.14-.62-.08-.97-.67-1.08-.31.02-.55.17-.71.43-.27.37-.49.83-.65 1.4l-.51 1.41c-.17.48-.25.71-.24.71.45-.15.93-.48 1.45-.98.61-.59 1.05-1.22 1.33-1.89zm2.47-.56c-.21-.28-.51-.37-.89-.27-.41.23-.77.69-1.09 1.35-.44.82-.82 1.4-1.13 1.73-.08.08-.1.12-.07.11l.47-.14c1-.24 1.75-.67 2.23-1.28.52-.69.68-1.19.47-1.5z"/><path d="m83.62 49.62c.16-.14.33-.15.49-.02.25.22.59.49 1.03.82.21.15.31.26.31.31 0 .04-.04.12-.14.24-.24.28-.55.61-.93 1l-.25.27c-.33 0-.59-.1-.79-.3-.37-.29-.68-.61-.91-.96 0-.06.15-.24.44-.55l.17-.16c.4-.43.59-.65.59-.66z"/><path d="m88.02 35.69c.24-.08.41-.09.51-.03.05.04.06.11.02.22-.01.04-.22.33-.62.88l-.58.84-.4.2c-1.36.73-2.44 1.74-3.22 3.04v-1.19s.12-.2.12-.2c.24-.4.57-.88.98-1.45.24-.37.45-.62.63-.75.92-.77 1.78-1.29 2.56-1.56z"/><path d="m98.27 50.64.04-3.8c0-.14 0-.4-.02-.77-.01-.37-.02-.67-.02-.88.01-.31.06-.58.13-.79.16-.37.36-.94.6-1.7.03-.1.1-.14.21-.14.1 0 .16.06.18.17-.26 1.98-.34 4.47-.25 7.48.09.59.19 1.17.27 1.75.18.67.54 1.1 1.08 1.29.23.07.46.11.7.11.59 0 1.12-.19 1.62-.56.17-.12.54-.55 1.11-1.31.42-.55.86-.85 1.32-.9.5 0 .85.23 1.07.68 0 .13.03.2.09.2.76-2.07 2-3.63 3.72-4.68.03-.01.1-.06.23-.12s.21-.1.27-.1c.07 0 .14.03.2.09l-.07.27-.88 1.77c-2.02 1.28-3.33 3.36-3.91 6.22-.03.13-.11.15-.25.07-.1-.06-.15-.22-.15-.47 0-.14.03-.36.09-.66s.09-.52.09-.67c0-.34-.13-.62-.4-.81-.3-.12-.66-.06-1.09.19-.23.23-.58.68-1.04 1.35-.46.66-.84 1.13-1.14 1.4-.48.42-1.01.65-1.58.69-.7-.07-1.21-.35-1.51-.84-.23-.34-.4-.75-.52-1.21h-.04c-.21.42-.43.84-.65 1.25-.29.48-.63.82-1.02 1.01-.56.23-1.13.46-1.7.7-.64.3-1.12.68-1.42 1.14-.03.01-.04.11-.04.27.23.23.56.39.97.49.36.06.72.12 1.08.18l2.34.14 3.98.11h7.05l2.85-.15s.1 0 .15.07l-.02.15c-1.3 1.03-2.81 1.63-4.51 1.78l-2.28.2-3.66.21c-1.69.09-2.96.13-3.84.13-1.23 0-2.33-.07-3.29-.2-.72-.11-1.22-.22-1.51-.32-.53-.21-.89-.56-1.08-1.03-.01-.34.09-.71.32-1.11.22-.33.44-.66.67-.99.42-.63 1.01-1.19 1.78-1.68.37-.24 1.08-.63 2.11-1.15.81-.6 1.34-1.43 1.58-2.5v-2zm3.24 11.61c-.26.44-.5.88-.74 1.31s-.35.94-.35 1.5c0 .17.07.29.21.36.15 0 .21 0 .2.02.06-.03.16-.17.3-.43.1-.21.22-.31.35-.31.07 0 .13 0 .19.02.09.09.14.22.17.39.02.17.04.34.05.51-.1.37-.27.7-.49.99-.29.36-.59.54-.9.54-.29 0-.55-.18-.78-.54-.12-.23-.19-.5-.19-.81 0-.21.05-.6.17-1.18.29-.82.77-1.64 1.44-2.45.04-.1.12-.15.24-.15.14 0 .19.07.14.22zm2.9 2.14v-.11s.53-.65 1.51-1.83l.11.02c.57.54 1.17.99 1.78 1.35l.13-.02 1.07-1.31h.13c.37.3.95.75 1.73 1.35.05.06.05.12 0 .2-.04.06-.09.13-.13.21-.24.36-.66.84-1.25 1.44-.11.03-.38-.06-.81-.27-.3-.23-.68-.59-1.15-1.08-.22.29-.57.71-1.05 1.26-.09.06-.18.09-.26.09-.14 0-.3-.06-.48-.19-.25-.18-.39-.27-.42-.29-.21-.18-.51-.46-.88-.84zm4.79 2.68v.18c-.09.15-.51.66-1.26 1.53-.07.07-.15.1-.22.1-.09 0-.2-.05-.32-.14-.18-.1-.28-.16-.32-.18-.26-.21-.45-.36-.56-.45-.19-.18-.33-.36-.41-.52.29-.39.74-.97 1.37-1.76l.17.04c.56.56 1.08.96 1.55 1.2z"/><path d="m120.55 53.89h.18c.35.51.68.75.98.74.12.04.24.07.37.07.37 0 .73-.17 1.09-.5.1-.18.3-.37.61-.58.03.03.07.13.12.3s.14.28.28.34.28.08.43.08c.4 0 .97-.35 1.7-1.06.08-.01.14 0 .19.04s.05.11.02.19c-.18.55-.53 1.02-1.05 1.4s-1.06.58-1.63.58c-.36 0-.69-.08-.99-.23-.26.18-.51.36-.77.53-.3.19-.58.29-.85.29-.11 0-.22-.01-.32-.04-.18-.07-.45-.2-.81-.38-.66.62-1.48 1.13-2.45 1.54-.34.13-.67.42-.97.87-.04.11-.06.22-.04.32.22.21.54.36.95.45l1.08.18 2.77.17 5.67.09c1.36.01 3.4-.09 6.12-.32.4-.07 1.02-.17 1.85-.29.04.06.03.18-.04.35-.29.24-.66.47-1.12.68-.4.18-.79.36-1.18.54-1.22.43-2.69.75-4.41.95-.71.07-2.26.18-4.66.32-1.83.1-3.05.15-3.65.15-1.62 0-2.98-.17-4.08-.52-.63-.29-.99-.63-1.08-1.03.13-.9.78-1.93 1.94-3.09.63-.63 1.49-1.2 2.57-1.7.18-.14.38-.38.6-.71.23-.34.42-.56.58-.68z"/><path d="m151.2 61.26-4.57.25c-1.03.06-1.91.09-2.63.09-1.59 0-2.96-.14-4.1-.41-.75-.18-1.25-.51-1.51-1.01-.03-.09-.04-.19-.04-.3 0-.23.17-.65.52-1.23 1.02-1.77 2.44-3.13 4.25-4.08.59-.27 1.41-.76 2.47-1.46.03-.06-.07-.16-.29-.3-.83-.21-1.63-.31-2.41-.31s-1.4.1-1.99.29c-.1 0-.17-.04-.2-.13 0-.17.08-.39.24-.67.92-1.63 2.37-2.93 4.35-3.9.66-.31 1.33-.64 2-.97.76-.39 1.38-.79 1.87-1.21.15 0 .22.06.22.18-.04.2-.21.49-.5.88-.5.7-1.04 1.18-1.59 1.44l-3.29 1.55c-.8.53-1.35.99-1.65 1.37l.06.02c.42-.07.85-.11 1.3-.11.81 0 1.69.12 2.64.36.23.06.36.15.41.29.01.17-.11.53-.38 1.09-.3.62-.81 1.15-1.53 1.59-.14.09-.8.43-1.99 1.03-1.09.56-2 1.35-2.72 2.39-.07.08-.07.19 0 .32.23.2.57.34 1.01.43.37.07.75.14 1.12.2 1.7.14 3.43.21 5.18.21h8.16l2.79-.14s.07.03.13.08c0 .07-.07.16-.21.26-1.18.92-2.66 1.47-4.43 1.65l-2.71.26zm-6.62 1.51.13.05c.38.31.95.76 1.71 1.34.01.02 0 .11-.02.27-.6.75-1.08 1.29-1.44 1.63-.2.04-.44-.04-.73-.25-.6-.43-1.01-.81-1.23-1.12.42-.67.94-1.31 1.57-1.92zm5.33 1.35 1.54-1.77.13.02c.39.33.96.8 1.72 1.4l-.02.22c-.3.37-.78.91-1.44 1.59-.07.02-.13.03-.19.03-.12 0-.24-.05-.38-.14s-.27-.18-.4-.27c-.24-.2-.58-.52-1-.97l.04-.12z"/><path d="m164.3 50.58 2.97-1.45h.3v10.32c0 .68.03 1.11.09 1.28s.18.3.36.39.55.15 1.11.16v.33h-4.61v-.33c.58-.01.95-.07 1.12-.15s.29-.21.35-.35c.07-.15.1-.59.1-1.32v-6.6c0-.89-.03-1.47-.09-1.72-.04-.19-.12-.33-.23-.42s-.24-.14-.4-.14c-.23 0-.54.1-.93.29l-.13-.29z"/><path d="m179.52 59.25-.86 2.35h-7.21v-.33c2.13-1.94 3.62-3.52 4.49-4.74.86-1.23 1.3-2.35 1.3-3.37 0-.77-.24-1.4-.71-1.9s-1.04-.75-1.7-.75c-.6 0-1.14.18-1.62.53s-.83.87-1.07 1.54h-.33c.15-1.11.54-1.97 1.16-2.56s1.39-.89 2.33-.89c1 0 1.83.32 2.49.96s1 1.39 1 2.25c0 .62-.14 1.24-.43 1.86-.45.98-1.17 2-2.17 3.09-1.5 1.63-2.43 2.62-2.8 2.96h3.19c.65 0 1.11-.02 1.37-.07s.49-.15.7-.29.39-.36.56-.63h.33z"/><path d="m198.16 56.32c-.2.93-.64 1.79-1.32 2.59s-1.47 1.33-2.35 1.6c-2.4.73-4.78 1.1-7.11 1.1-1.17 0-2.29-.1-3.35-.3-.9-.16-1.43-.59-1.58-1.28-.07-.34-.11-.72-.11-1.13 0-.56.11-1.39.34-2.5.01-.01.03-.05.05-.1s.05-.08.08-.08c.14 0 .22.04.25.13 0 .37 0 .74.02 1.1.03.45.22.75.56.88 1.2.48 3.12.71 5.76.67 2.65-.03 4.82-.34 6.53-.95.81-.28 1.45-.87 1.91-1.77.03-.07.09-.11.19-.12.09 0 .13.05.13.14zm-7.99-1.74h.07c.26-.33.64-.78 1.14-1.35.18.09.43.25.74.49s.53.4.67.47.3.22.49.43c-.13.29-.55.85-1.25 1.69-.11.19-.26.24-.45.15-.64-.29-1.2-.72-1.67-1.31h-.07c-.23.33-.62.79-1.18 1.37-.13 0-.39-.1-.78-.31-.29-.21-.67-.55-1.15-1.02l.02-.13c.3-.42.79-1.03 1.46-1.83l.12.04c.4.3 1.02.73 1.85 1.29z"/><path d="m200.74 49.58c-.05.27-.11.67-.17 1.2-.06.67-.1 1.6-.11 2.79 0 1.36-.01 2.32-.04 2.86-.06 1.16-.37 2.37-.95 3.63-.11.23-.21.35-.3.35-.04 0-.09-.01-.13-.04-.1-.06-.14-.19-.11-.41.12-.4.21-1.41.29-3.03-.1-1.3-.14-2.77-.11-4.39.24-.81.66-1.82 1.26-3.02.15-.09.27-.07.36.07z"/><path d="m201.65 61.2c-.27.06-.71.14-1.33.25-.13 0-.21-.05-.24-.14-.01-.13.09-.26.31-.37.57-.37 1.14-.73 1.71-1.09.67-.43 1.22-.84 1.64-1.21.44-.5.85-1.23 1.24-2.19.29-.81.57-1.62.86-2.43.04-.12.14-.19.3-.19.13 0 .2.06.2.19.03.29-.09.94-.36 1.96-.46 1.77-1.02 3.21-1.66 4.3-.24.4-.64.65-1.2.75-.49.06-.98.12-1.46.18z"/><path d="m222.97 41.52c-.23.63-.7 1.32-1.42 2.08-.5.42-1.23.93-2.19 1.55-1.05.69-1.78 1.19-2.2 1.51-.18.17-.42.46-.7.88-.01.03-.04.1-.07.21s-.08.55-.15 1.31c.01.78.02 1.36.02 1.74 0 2.4-.41 4.29-1.24 5.67-.01.01-.25.29-.69.84-.08.42-.17.78-.27 1.1-.23.66-.38 1.1-.47 1.33-.23.48-.49.86-.79 1.12-.3.14-.69.25-1.17.32-.42.07-.83.14-1.24.21-.76.15-1.19.22-1.28.22-.1-.03-.13-.13-.1-.3.44-.31 1.08-.67 1.93-1.08.54-.29 1.08-.57 1.61-.86.6-.39.88-.88.83-1.48-.01-.15-.1-.27-.25-.38-.66.17-1.18.07-1.55-.31-.18-.18-.28-.4-.28-.66 0-.19.06-.43.19-.71.09-.24.18-.48.29-.73.11-.34.23-.7.37-1.07s.39-.58.76-.65c.3 0 .56.14.78.41.07.08.23.34.5.79.05.18.11.44.19.77.33-.17.63-.55.9-1.13.16-.36.24-.79.24-1.31 0 .48-.01.03-.04-1.36-.04-1.76 0-2.91.11-3.45.4-1.22 1-2.16 1.8-2.84.47-.39 1.24-.9 2.32-1.55.99-.6 1.73-1.13 2.23-1.58.2-.19.49-.46.88-.8.1-.03.15.04.15.2z"/><path d="m225.09 42.14c.15-.21.34-.21.56 0 .31.26.67.55 1.08.85.15.12.23.2.23.24 0 .06-.21.31-.64.77l-.7.74c-.25.01-.45-.03-.6-.13-.18-.12-.44-.36-.8-.73-.21-.21-.32-.34-.32-.37 0-.04.2-.28.6-.7.4-.43.59-.65.59-.66z"/><path d="m231.78 47.15c.15-.18.25-.27.3-.27s.15.08.32.23c.58.57 1.08.97 1.52 1.21.03 0 .12-.09.28-.26.59-.68.93-1.04 1.01-1.07.03 0 .11.06.25.19.51.45.99.85 1.46 1.18.02.01.03.06.02.13-.01.08-.14.27-.38.56l-.15.18c-.49.59-.77.91-.83.96-.04.02-.1.03-.19.03-.23 0-.57-.2-1.02-.6-.32-.29-.53-.51-.63-.66-.04-.08-.08-.12-.12-.13-.03 0-.22.21-.58.63-.36.41-.56.63-.59.65-.13.03-.3-.01-.51-.12-.34-.19-.68-.45-1-.79-.26-.27-.38-.44-.38-.51 0-.04.41-.55 1.24-1.52z"/><path d="m230.78 43.65c.56-.42 1.04-.82 1.44-1.2.09.01.12.09.09.22-.08.36-.36.87-.83 1.53-.14.19-.27.34-.41.44-.32.23-.8.52-1.43.87-1.19.67-1.98 1.17-2.36 1.48-.66.54-1.13 1.06-1.41 1.55 1.28-.34 2.58-.44 3.9-.27.12.04.18.15.18.32 0 .11-.02.21-.04.31-.09.37-.33.82-.69 1.35-.23.33-.62.81-1.19 1.44-.76.85-1.28 1.52-1.56 2.02-.59 1.08-.93 2.28-1.02 3.59-.02.89.13 1.67.45 2.33.74 1.53 2.19 2.05 4.34 1.56 1.3-.35 2.35-1 3.16-1.95.84-.95 1.5-2.15 1.98-3.62.09-.28.18-.43.29-.45.14-.04.19.1.15.4-.52 2.79-1.63 5.04-3.32 6.75-.56.54-1.12.96-1.7 1.24-1.17.57-2.42.68-3.73.32-1.3-.48-2.14-1.44-2.51-2.9-.32-1.28-.27-2.75.13-4.41.14-.58.32-1.14.54-1.68.68-1.68 1.72-3.32 3.12-4.93.15-.17.22-.26.22-.29 0-.04-.08-.08-.24-.1-1.12-.12-2.21.03-3.26.47-.13.06-.24.08-.31.07-.12-.02-.19-.07-.19-.15.14-.56.39-1.14.75-1.74.62-1.01 1.44-1.91 2.47-2.68.38-.29 1-.69 1.87-1.21.62-.38 1-.61 1.12-.69z"/><path d="m238.63 61.2c-.27.06-.71.14-1.33.25-.13 0-.21-.05-.24-.14-.01-.13.09-.26.31-.37.57-.37 1.14-.73 1.71-1.09.67-.43 1.22-.84 1.64-1.21.44-.5.85-1.23 1.24-2.19.29-.81.57-1.62.86-2.43.04-.12.14-.19.3-.19.13 0 .2.06.2.19.03.29-.09.94-.36 1.96-.46 1.77-1.02 3.21-1.66 4.3-.24.4-.64.65-1.2.75-.49.06-.98.12-1.46.18z"/><path d="m244.42 54.65.11-3.94c.01-.34.12-.77.32-1.26.29-.72.44-1.12.47-1.22.03-.03.07-.04.11-.02.06.02.12.05.2.1-.3 2.29-.39 4.79-.26 7.48.07 1.78.54 2.76 1.4 2.95.09.03.18.04.26.04.33 0 .68-.26 1.07-.77.06-.15.14-.38.24-.69l.2-.21c.08.01.14.12.19.32.03.63-.2 1.51-.68 2.64-.4.7-.85 1.17-1.34 1.4-.14.04-.28.07-.43.07-.34 0-.65-.1-.91-.29s-.5-.61-.71-1.24c-.12-.38-.19-1.45-.22-3.2-.01-.37-.01-1.09 0-2.14zm6.28-.65c-.53-.26-1.14-.69-1.83-1.29l-1.12 1.31c-.92-.21-1.57-.69-1.96-1.44.86-1.11 1.36-1.7 1.48-1.76.51.45 1.1.9 1.78 1.35l1.37-1.42c.84.69 1.47 1.19 1.91 1.51-.75.8-1.3 1.38-1.65 1.74z"/><path d="m255.22 61.23v-.33c.78-.01 1.5-.2 2.18-.55.67-.35 1.32-.97 1.95-1.84s1.06-1.84 1.31-2.9c-.95.61-1.8.91-2.56.91-.86 0-1.59-.33-2.21-1-.62-.66-.92-1.54-.92-2.64s.31-2.02.92-2.86c.74-1.02 1.7-1.53 2.89-1.53 1 0 1.87.41 2.58 1.24.88 1.03 1.32 2.3 1.32 3.8 0 1.36-.33 2.63-1.01 3.8-.67 1.17-1.6 2.15-2.79 2.92-.97.64-2.02.96-3.17.96h-.51zm5.58-6.29c.11-.78.17-1.4.17-1.87 0-.59-.1-1.22-.3-1.89s-.48-1.19-.85-1.56c-.37-.36-.78-.54-1.24-.54-.54 0-1 .24-1.41.73-.4.48-.6 1.2-.6 2.14 0 1.27.27 2.26.8 2.98.4.51.88.77 1.45.77.27 0 .6-.07.98-.2s.71-.32 1-.56z"/><path d="m22.11 15.27.07.07c-.18.67-.42 1.7-.71 3.08-.1.51-.14.99-.14 1.44 0 1.55.51 2.6 1.53 3.16.64.34 1.34.52 2.1.52 1.17 0 2.31-.35 3.4-1.06 1.16-.73 1.91-1.64 2.25-2.73.06-.39.09-.85.09-1.37 0-.18-.02-.81-.07-1.91-.03-.78-.02-1.41.02-1.89.21-.81.5-1.64.86-2.47.1-.11.2-.12.3-.02.03.27.01 1-.05 2.18-.01.89-.03 1.77-.04 2.66-.04 1.05-.16 1.89-.35 2.54-.54 1.73-1.36 3.23-2.46 4.51-.9.86-1.89 1.47-2.97 1.85-.62.21-1.25.32-1.89.32-.72 0-1.34-.14-1.87-.41-1.17-.77-1.76-2.17-1.76-4.19 0-1.14.19-2.41.56-3.8 0-.11.03-.25.1-.41s.1-.28.1-.36c.12-.37.34-.91.67-1.62.11-.15.2-.18.27-.07zm2.21 2.41 1.59-1.78.11.07c.45.53 1 1.04 1.65 1.55-.33.38-.86.92-1.58 1.63-.26-.04-.54-.19-.81-.44s-.54-.49-.78-.74z"/><path d="m34.74 11.43c-.05.27-.11.67-.17 1.2-.06.67-.1 1.6-.11 2.79 0 1.36-.01 2.32-.04 2.86-.06 1.16-.37 2.37-.95 3.63-.11.23-.21.35-.3.35-.04 0-.09-.01-.13-.04-.1-.06-.14-.19-.11-.41.12-.4.21-1.41.29-3.03-.1-1.3-.14-2.77-.11-4.39.24-.81.66-1.82 1.26-3.02.15-.09.27-.07.36.07z"/><path d="m35.65 23.05c-.27.06-.71.14-1.33.25-.13 0-.21-.05-.24-.14-.01-.13.09-.26.31-.37.57-.37 1.14-.73 1.71-1.09.67-.43 1.22-.84 1.64-1.21.44-.5.85-1.23 1.24-2.19.29-.81.57-1.62.86-2.43.04-.12.14-.19.3-.19.13 0 .2.06.2.19.03.29-.09.94-.36 1.96-.46 1.77-1.02 3.21-1.66 4.3-.24.4-.64.65-1.2.75-.49.06-.98.12-1.46.18z"/><path d="m44.6 19.14c-.1.73-.49 1.71-1.17 2.92-.18.33-.5.55-.95.67-.37.1-.76.19-1.15.3-.29.09-.72.22-1.3.38-.14 0-.22-.04-.25-.13 0-.11.1-.22.3-.34.6-.36 1.2-.71 1.8-1.06.66-.42 1.22-.85 1.68-1.29.14-.18.18-.43.13-.75-.09-.22-.19-.37-.31-.45-.15.03-.3.04-.43.04-.54 0-.95-.19-1.22-.56-.1-.18-.15-.36-.15-.56 0-.21.07-.48.2-.79.12-.23.24-.48.34-.75s.2-.55.3-.85c.16-.33.38-.55.65-.65.5-.1.9.11 1.2.6.33.56.5 1.22.5 1.98 0 .4-.05.82-.17 1.26z"/><path d="m49.63 16.71c.07.3.11.61.11.92 0 .62-.16 1.3-.47 2.07-.03.06-.34.71-.95 1.96-.07.17-.25.38-.52.64-.7.22-1.78.5-3.24.85-.1.07-.18.01-.22-.15.03-.04.29-.24.78-.58.31-.23.86-.55 1.65-.97.7-.36 1.24-.69 1.59-.99.24-.27.3-.68.16-1.22-.17-.64-.69-1.18-1.56-1.59-.06-.08-.06-.17 0-.27.04-.09.09-.18.14-.27.16-.56.38-1.25.65-2.04.4.03.78.22 1.14.56.32.32.56.69.73 1.11z"/><path d="m64.26 8.33 3.33-1.48c.45-.23.89-.45 1.33-.68.53-.29.95-.58 1.26-.88.12 0 .18.04.18.12.04.12-.05.31-.27.58-.7.85-1.59 1.55-2.65 2.09-1.14.48-2.83 1.26-5.07 2.32-.56.3-.91.69-1.06 1.15-.07.33-.11 1-.14 2-.04.86-.12 1.52-.24 1.98-.34 1.3-1.04 2.2-2.1 2.68-.51.23-1.01.44-1.51.65-.57.3-.98.69-1.23 1.18-.04.12.09.27.37.45.56.21 1.32.33 2.28.37 1.52.1 2.3.14 2.36.14h4.4l4.09-.14 2.81-.18c.11 0 .17.04.19.11l-.07.14c-1.25 1.03-2.79 1.65-4.64 1.85l-3.56.37-4.1.25c-.62.04-1.15.07-1.59.07-1.49 0-2.69-.22-3.61-.65-.48-.23-.71-.54-.69-.92.01-.33.14-.69.36-1.09.21-.34.42-.68.65-1.01.36-.57.91-1.1 1.64-1.59.34-.23 1.01-.61 2.01-1.15.82-.43 1.25-1.02 1.28-1.77 0-.62.01-1.23.03-1.85.03-.7.13-1.27.31-1.71.45-1.1 1.02-1.88 1.69-2.34.49-.34 1.14-.7 1.96-1.06z"/><path d="m92.88 8.72 3.26-1.42c.12-.08.58-.34 1.4-.77.57-.3 1.02-.59 1.35-.88.12 0 .18.04.18.13 0 .15-.1.33-.3.52-.78.98-1.54 1.63-2.3 1.95-.58.32-1.48.73-2.69 1.26-1.22.52-2.11.94-2.68 1.24-.72.39-1.08.83-1.08 1.33-.18 1.95-.18 4.19 0 6.71.16.6.43 1.03.8 1.29.23.15.5.22.81.22.4 0 .77-.1 1.1-.31.12-.08.27-.22.42-.42.16-.2.29-.33.39-.39.09-.03.16.02.21.13-.17.93-.48 1.72-.95 2.36-.59.83-1.16 1.26-1.71 1.29-.75.04-1.32-.25-1.71-.88-.19-.46-.36-1.14-.5-2.02-.51 1.2-1.45 2.06-2.84 2.56-.81.3-2.11.55-3.91.75-.39.04-.78.07-1.18.07-1.12 0-2.14-.17-3.06-.49-.57-.21-.91-.58-1.01-1.11-.08-.39-.12-.8-.12-1.23 0-.77.11-1.58.34-2.43l.19-.19c.15 0 .22.06.22.19 0 .01 0 .34.02.97 0 .39.1.68.3.88.55.31 1.4.52 2.54.63.97.09 1.85.13 2.62.13 1.83 0 3.32-.26 4.47-.78.84-.4 1.31-.89 1.41-1.48s.15-1.53.15-2.81.04-2.22.13-2.81c.26-1.62 1.13-2.82 2.63-3.59l1.09-.56zm4.47-4.19c-.1.23-.29.48-.56.74-.24.2-.47.4-.69.62-.4.23-.95.5-1.65.78-.83.36-1.37.61-1.64.75-.48.22-.96.45-1.44.69-.56.29-1.01.57-1.37.86-.07.01-.13 0-.19-.07.15-.4.47-.85.95-1.33.67-.48 1.8-1.05 3.38-1.71.7-.28 1.71-.76 3.04-1.44.07 0 .13.04.18.12zm-4.5 12.42c-.9-.21-1.54-.69-1.91-1.42.88-1.03 1.37-1.59 1.48-1.68.6.51 1.24.99 1.91 1.44z"/><path d="m96.85 23.05c-.27.06-.71.14-1.33.25-.13 0-.21-.05-.24-.14-.01-.13.09-.26.31-.37.57-.37 1.14-.73 1.71-1.09.67-.43 1.22-.84 1.64-1.21.44-.5.85-1.23 1.24-2.19.29-.81.57-1.62.86-2.43.04-.12.14-.19.3-.19.13 0 .2.06.2.19.03.29-.09.94-.36 1.96-.46 1.77-1.02 3.21-1.66 4.3-.24.4-.64.65-1.2.75-.49.06-.98.12-1.46.18zm3.51-8.85-.11-.04c-.62-.51-1.09-.97-1.42-1.4-.03-.07 0-.17.1-.29s.16-.2.17-.23c.26-.27.64-.65 1.14-1.14l.19.02c.26.32.69.73 1.28 1.25l.04.12s.04.09 0 .13c-.28.37-.74.9-1.4 1.57z"/><path d="m109.8 10.9h.04c.39-.95 1.06-1.93 2-2.95.87-.83 1.73-1.65 2.58-2.47.6-.56 1.2-1.11 1.8-1.67.71-.67 1.25-1.3 1.61-1.89.03-.09.09-.12.18-.09.07.04.1.11.09.2-.12.71-.44 1.47-.97 2.28-.72.84-1.66 1.77-2.84 2.79-.99.87-1.99 1.74-2.99 2.62-.2.21-.45.53-.75.97l.04.04c.36-.11.74-.16 1.13-.16.76 0 1.35.2 1.78.61.42.41.63.96.63 1.64 0 .34-.06.81-.19 1.4-.18.71-.51 1.75-1.01 3.11-.54.73-1.14 1.07-1.83 1.01-.51 0-.95-.22-1.32-.67-.08-.17-.21-.4-.38-.7h-.02c-.14.48-.45.93-.92 1.35-.42.37-.9.65-1.42.81l-.12.15c-.26 1.25-.68 2.31-1.25 3.2-.15.23-.39.37-.7.43-.72.1-1.8.29-3.24.56-.07 0-.13-.04-.18-.11-.01-.17.08-.31.3-.43.78-.39 1.94-.98 3.49-1.78.47-.26.71-.57.73-.95.01-.33-.1-.59-.34-.79-.14.03-.28.04-.43.04-.39 0-.73-.12-1.01-.35-.18-.21-.28-.46-.28-.75 0-.23.07-.52.21-.88.19-.48.29-.75.31-.84.11-.43.2-.72.27-.87.16-.31.38-.5.67-.55.3-.06.58.05.83.32.42.43.67 1.11.77 2.04.15.04.5-.05 1.06-.26.56-.4.89-.95 1.01-1.63-.12-.53-.18-1.47-.18-2.79v-4.77c-.03-.15-.04-.3-.04-.47 0-.34.09-.78.29-1.3.24-.68.38-1.11.43-1.29.03-.11.08-.16.14-.16.07 0 .12.04.15.12-.15 2.18-.2 4.13-.13 5.87zm3.21 2.86c-.21-.3-.61-.52-1.21-.67-.78-.09-1.41.14-1.87.69-.03.1-.04.19-.04.3 0 .48.2.9.61 1.24.4.34.85.49 1.33.43.84-.24 1.33-.75 1.46-1.52-.01-.16-.11-.32-.27-.47z"/><path d="m143.63 14.57c-.07 1.17-.51 2.1-1.33 2.79-.4.18-.7.25-.9.2-.06 0-.14-.03-.25-.09s-.19-.09-.25-.09c-.26.37-.44.62-.54.75-.26.26-.52.41-.79.45-.14.03-.31.01-.52-.06-.26-.09-.42-.13-.5-.13-.12 0-.23.04-.32.11-.99 1.55-1.94 2.49-2.86 2.84-.23.1-.46.14-.7.14-.51 0-.92-.15-1.25-.45-.12.13-.34.3-.64.52-.95.67-2.5 1.21-4.65 1.59-1.3.23-2.61.34-3.92.34-1.16 0-2.25-.09-3.27-.28s-1.6-.63-1.74-1.34c-.06-.33-.09-.69-.09-1.07 0-.66.11-1.51.34-2.56.03-.06.09-.14.18-.23.15-.03.25.03.28.19v1.14c.04.45.25.75.6.88 1.3.48 3.3.69 5.99.63 2.72-.06 4.83-.41 6.33-1.06.73-.31 1.28-.86 1.64-1.64.17-.12.28-.18.32-.17.07.08.09.19.07.34-.04.15-.27.7-.68 1.65.2.06.41.09.64.09.48 0 .99-.14 1.53-.43.36-.24.73-.66 1.12-1.24.44-.64.78-1.07 1.02-1.29.19-.12.43-.13.71-.04.37.12.59.19.66.19.18 0 .33-.08.47-.25.18-.34.49-.81.95-1.4.07-.01.15.02.24.11-.01.08-.01.21 0 .38.13.14.28.21.45.21.54-.1.97-.67 1.29-1.74.01-.06.05-.1.11-.13.06-.01.12-.01.18 0 .05.03.08.07.08.13zm-15.07 3.46c-.52-.25-1.12-.67-1.81-1.28l-1.13 1.3c-.9-.21-1.55-.69-1.96-1.44.89-1.11 1.38-1.7 1.48-1.77.27.25.56.51.86.77s.62.45.95.57l1.35-1.39c.84.69 1.48 1.19 1.91 1.51-.75.79-1.3 1.37-1.65 1.73z"/><path d="m146.01 11.43c-.05.27-.11.67-.17 1.2-.06.67-.1 1.6-.11 2.79 0 1.36-.01 2.32-.04 2.86-.06 1.16-.37 2.37-.95 3.63-.11.23-.21.35-.3.35-.04 0-.09-.01-.13-.04-.1-.06-.14-.19-.11-.41.12-.4.21-1.41.29-3.03-.1-1.3-.14-2.77-.11-4.39.24-.81.66-1.82 1.26-3.02.15-.09.27-.07.36.07z"/><path d="m152.82 19.4c-.32 1.26-.9 2.41-1.76 3.45-.18.22-.44.35-.79.38s-.67.05-.96.05-.7.02-1.23.07c-.53.04-.93.05-1.22.02-.06-.04-.07-.15-.04-.32l.3-.15c.43-.24 1.11-.51 2.04-.8s1.61-.55 2.03-.78c.28-.15.44-.39.5-.74.04-.31-.05-.55-.28-.7-.7 0-1.2-.2-1.48-.6-.07-.16-.11-.32-.11-.47 0-.26.1-.58.31-.97.27-.48.43-.8.47-.95.15-.33.26-.55.32-.65.17-.26.36-.42.58-.49.39-.14.69-.06.9.24.31.3.52.81.6 1.53.05.03.18 0 .38-.11.47-.31 1.56-1.3 3.29-2.97-.75-.37-1.55-.82-2.41-1.35-.3-.18-.57-.23-.81-.13-.19.06-.41.19-.65.4-.36.35-.56.54-.6.57-.1 0-.17-.06-.21-.19.01-.13.09-.29.23-.47.09-.15.18-.29.29-.43.54-.75 1.1-1.12 1.67-1.12.33 0 .77.15 1.31.45.4.23.81.46 1.21.69.78.41 1.42.7 1.89.88.11.06.15.16.12.32l-.12.13c-.95.53-1.95 1.3-3.01 2.32-.51.5-1.44 1.47-2.77 2.9zm1.89-10.74 1.59-1.68h.14c.33.36.86.84 1.59 1.44.07.04.07.14 0 .27-.32.36-.81.86-1.48 1.51-.07.03-.28-.02-.6-.14-.32-.25-.54-.44-.68-.58-.26-.24-.44-.47-.56-.69v-.12z"/><path d="m160.03 23.05c-.27.06-.71.14-1.33.25-.13 0-.21-.05-.24-.14-.01-.13.09-.26.31-.37.57-.37 1.14-.73 1.71-1.09.67-.43 1.22-.84 1.64-1.21.44-.5.85-1.23 1.24-2.19.29-.81.57-1.62.86-2.43.04-.12.14-.19.3-.19.13 0 .2.06.2.19.03.29-.09.94-.36 1.96-.46 1.77-1.02 3.21-1.66 4.3-.24.4-.64.65-1.2.75-.49.06-.98.12-1.46.18z"/><path d="m169.27 16.71c.07.3.11.61.11.92 0 .62-.16 1.3-.47 2.07-.03.06-.34.71-.95 1.96-.07.17-.25.38-.52.64-.7.22-1.78.5-3.24.85-.1.07-.18.01-.22-.15.03-.04.29-.24.78-.58.31-.23.86-.55 1.65-.97.7-.36 1.24-.69 1.59-.99.24-.27.3-.68.16-1.22-.17-.64-.69-1.18-1.56-1.59-.06-.08-.06-.17 0-.27.04-.09.09-.18.14-.27.16-.56.38-1.25.65-2.04.4.03.78.22 1.14.56.32.32.56.69.73 1.11z"/><path d="m188.9 2.59c0 .16-.05.32-.16.48s-.21.3-.31.43c-.34.54-.85 1.06-1.54 1.54-.62.36-1.22.73-1.83 1.1-.51.27-1.01.54-1.53.79-.6.33-1.06.68-1.37 1.06-.19.51-.26 1.17-.2 1.98.04.59.07 1.04.07 1.37 0 .97-.17 1.76-.52 2.36-.21.51-.32.81-.32.9 0 .18.07.34.21.48s.39.24.75.31.61.16.75.26c.52.4.78 1.05.78 1.97 0-.04-.03.44-.09 1.42-.29 1.51-.77 2.84-1.46 4-.81 1.37-1.84 2.34-3.1 2.9-.44.2-.92.3-1.45.3-.72 0-1.32-.18-1.79-.54-1.34-1.02-1.94-2.86-1.8-5.52.04-.86.2-1.85.47-2.97.27-.98.53-1.95.78-2.94.11-.1.21-.12.3-.07.04.14 0 .52-.11 1.13-.39 1.85-.58 3.18-.58 4 0 1.23.28 2.28.85 3.16.56.63 1.3.95 2.23.95 1.03 0 2.04-.39 3.02-1.17.93-.75 1.58-1.63 1.96-2.64.1-.6.06-.99-.13-1.18-.44-.13-.88-.26-1.33-.37-.51-.17-.84-.45-.99-.86-.09-.34-.14-.72-.14-1.13 0-.99.26-2.03.77-3.12v-1.69c-.01-.24-.02-.47-.02-.69 0-1.16.26-2.22.79-3.18.39-.72 1.08-1.36 2.07-1.91.84-.47 1.67-.93 2.5-1.37.41-.26.81-.51 1.2-.75.48-.31.86-.62 1.14-.92.09-.06.14-.02.14.12z"/><path d="m200.16 4.77.32-.9c.13-.1.24-.12.32-.04v.49l-.12.81v5.52c0 2.15-.55 3.93-1.64 5.35-.47.6-1.12.9-1.96.9-.12 0-.25 0-.38-.02-.5-.13-.88-.32-1.14-.56-.48.98-1.01 1.58-1.57 1.82s-1.12.46-1.67.68c-.6.3-1.03.71-1.29 1.22-.04.09-.03.16.06.22.08.06.16.12.23.19.73.33 2.11.52 4.17.56l2.81.07 3.8.04 4.49-.07 2.68-.15c.09.06.13.08.13.07l-.02.15c-1.06.83-2.06 1.34-2.99 1.53-1.16.24-2.62.41-4.38.52l-4.82.3c-.92.06-1.72.09-2.41.09-1.79 0-3.28-.19-4.46-.58-.69-.23-1.06-.6-1.1-1.12.04-.4.38-1.06 1-1.98s1.92-1.88 3.88-2.87c.37-.24.68-.59.95-1.03.2-.39.4-.78.62-1.17.15-.12.25-.17.31-.14.1.04.15.16.15.35s.09.29.25.31c.33.15.7.22 1.11.22.45 0 .84-.1 1.17-.3.59-.55.9-1.36.95-2.43v-2.79c.03-.36.03-.82 0-1.37-.03-.72-.04-1.16-.04-1.32 0-1.06.2-1.91.6-2.55zm-6.06 6.78.05-.12c.36-.39.87-.96 1.53-1.73h.13c.36.33.92.8 1.69 1.4.04.04.02.15-.07.31l-1.31 1.46c-.07.07-.16.1-.25.1-.12 0-.36-.13-.71-.38-.53-.37-.88-.72-1.07-1.03z"/><path d="m210.97 16.03h.04c.41-.84 1.04-1.71 1.89-2.61.26-.27 1.07-1.04 2.43-2.3 1.37-1.26 2.37-2.28 3-3.07.09-.23.17-.34.24-.34.04 0 .09.04.14.12.01.12-.06.41-.23.88-.26.75-.9 1.65-1.94 2.69-.48.5-1.27 1.22-2.37 2.15s-1.9 1.67-2.42 2.2c-.09.23-.12.36-.11.37.33-.1.67-.15 1.03-.15.83 0 1.46.26 1.87.77.3.39.45.86.45 1.42 0 .4-.14 1.07-.41 2-.4 1.03-.77 1.8-1.1 2.3.09.04.21.06.37.04.2-.01.33-.01.41 0 .8-.1 1.5-.36 2.1-.77.69-.45 1.16-1.02 1.42-1.7.03-.34.02-.82-.02-1.44-.05-.74-.08-1.23-.08-1.46.17-.3.43-.74.79-1.33.06-.08.19-.07.38.02-.06 1-.12 2.01-.18 3.01-.11 1.11-.45 2.02-1.02 2.73-.85 1.06-1.95 1.68-3.31 1.85-.21.03-.49.02-.85-.02-.41-.06-.68-.09-.81-.09-.21 0-.4.03-.56.09-.59.03-1.04-.13-1.37-.47-.29-.4-.47-.93-.54-1.58-.07-.53-.12-1.07-.17-1.62-.01-1.63-.04-4.04-.07-7.22 0-.33.11-.74.34-1.22.29-.59.45-.99.49-1.2.01-.04.04-.08.09-.11.07-.03.16 0 .25.09-.08.93-.16 2.56-.23 4.89 0 .39 0 .75.02 1.08zm3.16 3.27c-.21-.4-.6-.7-1.18-.9-.13-.03-.28-.04-.43-.04-.51 0-.99.19-1.46.58-.13.17-.17.32-.11.45.06.71.48 1.2 1.26 1.46.52.11.96 0 1.33-.35.48-.4.67-.8.58-1.2zm3.22-6.23v-.09c.52-.53 1.1-1.08 1.73-1.65l.14.04c.6.65 1.12 1.17 1.57 1.56l-.02.18c-.34.37-.88.88-1.62 1.51-.14.03-.27 0-.38-.08s-.22-.16-.32-.24c-.21-.18-.43-.37-.65-.58s-.37-.43-.45-.65z"/><path d="m232.02 9.19-.08-.12c-.67.03-1.17-.17-1.48-.58-.15-.24-.18-.54-.11-.88.26-.42.59-1.07 1.01-1.96.26-.43.53-.65.81-.65.34-.08.68.14 1.01.65.21.5.32 1.03.32 1.59 0 1.19-.38 2.28-1.13 3.29l-.74.77c.33.17.79.48 1.37.95.21.45.19.88-.04 1.26-.63 1-1.44 1.55-2.42 1.64-.99.09-1.88.4-2.69.92-.89.57-1.5 1.31-1.83 2.21-.17.66-.23 1.95-.19 3.87l.12 5.24c.01.47-.11 1.15-.36 2.03-.03.09-.11.13-.25.13-.04-.07-.07-.19-.07-.36.01-.19.01-.3 0-.33 0-.38 0-.97-.02-1.76l-.22-3.38c-.08-1.07-.12-1.91-.12-2.51 0-1.92.33-3.51.98-4.76.66-1.25 1.82-2.34 3.5-3.25.63-1.16 1.45-2.22 2.45-3.2.21-.37.27-.65.17-.82zm1.3-9.12h.21c.54.51 1.1.96 1.68 1.33.07.07.05.18-.04.32-.22.3-.45.59-.69.88-.27.36-.55.61-.83.76-.47-.16-1.04-.58-1.71-1.26-.09-.09-.12-.13-.11-.13-.26.32-.66.76-1.22 1.33-.37-.06-.94-.46-1.7-1.2-.12-.19-.16-.31-.11-.35.33-.42.82-1 1.46-1.74l.18.02c.54.51 1.11.96 1.69 1.33h.13l1.08-1.29z"/><path d="m237.61 23.05c-.27.06-.71.14-1.33.25-.13 0-.21-.05-.24-.14-.01-.13.09-.26.31-.37.57-.37 1.14-.73 1.71-1.09.67-.43 1.22-.84 1.64-1.21.44-.5.85-1.23 1.24-2.19.29-.81.57-1.62.86-2.43.04-.12.14-.19.3-.19.13 0 .2.06.2.19.03.29-.09.94-.36 1.96-.46 1.77-1.02 3.21-1.66 4.3-.24.4-.64.65-1.2.75-.49.06-.98.12-1.46.18z"/></g></svg>